<?xml version="1.0" encoding="utf-8"?>
<!-- Generator: Adobe Illustrator 25.0.0, SVG Export Plug-In . SVG Version: 6.00 Build 0)  -->
<svg version="1.1" id="Layer_1" xmlns="http://www.w3.org/2000/svg" xmlns:xlink="http://www.w3.org/1999/xlink" x="0px" y="0px"
	 viewBox="0 0 200 200" style="enable-background:new 0 0 200 200;" xml:space="preserve">
<style type="text/css">
	.st0{opacity:0.3;fill:#ABB4B9;}
	.st1{fill:#FFE59A;}
	.st2{fill:#E8C018;}
	.st3{opacity:0.2;fill:#E4AF18;}
	.st4{fill:#8DBE5D;}
	.st5{fill:#AAC962;}
	.st6{fill:#75A85E;}
	.st7{fill:#538057;}
	.st8{fill:#B22F1F;}
	.st9{fill:#9C2018;}
	.st10{opacity:0.4;fill:#9C2018;}
	.st11{fill:#CC6E28;}
	.st12{fill:#FFDD35;}
	.st13{fill:#E4AF18;}
	.st14{fill:#FFCF4B;}
	.st15{fill:#D97F0D;}
	.st16{fill:#D9BA98;}
	.st17{fill:#F2DDC7;}
	.st18{fill:#FEEDDA;}
	.st19{fill:#FDF4DC;}
	.st20{fill:#E7D3BD;}
	.st21{fill:#D14216;}
	.st22{opacity:0.6;fill:url(#SVGID_1_);}
	.st23{fill:#FFFFFF;}
</style>
<path class="st0" d="M191.2,171.22c1.02-18.17-33.69-34.9-77.52-37.35c-43.84-2.45-80.19,10.3-81.2,28.48
	c-1.02,18.17,33.69,34.9,77.52,37.35C153.83,202.15,190.18,189.4,191.2,171.22z"/>
<g>
	<path class="st1" d="M180.06,115.12c-1.68,9.54-11.01,17.42-17.41,23.32c-9.58,8.83-24.77,22.26-36.92,26.16
		c-19.3,6.2-29.71,6.81-49.84,4.07c-17.01-2.32-38.29-13.79-49.14-29.41c-6.82-9.83-10.97-24.07-10.1-36.32
		c1.45-20.64,19.48-18.09,35.39-19.5c17.79-1.59,35.9-4.44,53.47-7.79c11.84-2.27,25.03-5.46,37.17-3.54
		c10.87,1.72,23.64,9.69,30.18,19.51c3.21,4.84,7.08,18.47,5.15,24.02c-0.77-0.48-0.59-1-0.99-1.83L180.06,115.12z"/>
	<path class="st2" d="M45.69,110.34c-7.34-2.79-11.87,10.32-3.86,10.41c2.92,0.04,6.68-1.14,7.13-4.75
		c0.27-2.23-1.49-6.31-3.95-5.58L45.69,110.34z"/>
	<path class="st2" d="M63.16,106.54c-2.31-2.12-6.75-1.93-6.88,1.97c-0.15,4.22,6.76,9.38,10.24,8.28
		c5.87-1.86,0.1-10.54-3.85-10.88L63.16,106.54z"/>
	<path class="st2" d="M137.34,107.32c-2.82-1.07-10.17-0.03-12.14,2.77c-2.57,3.66,1.59,5.25,5.19,5.05
		c2.86-0.16,12.3-6.99,6.12-7.62L137.34,107.32z"/>
	<path class="st2" d="M10.58,80.61c-1.13,2.23,2.08,5.45,3.28,2.99c1-2.04-2.54-4.15-3.57-2.73L10.58,80.61z"/>
	<path class="st3" d="M149.05,123.82c-5.77,2.86-12.73,5.17-17.18,10.32c-4.7,5.44-7.58,11.03-13.17,16.02
		c-5.66,5.04-11.19,8.69-18.09,11.31c-5,1.9-11.47,1.57-15.9,4.11c17.11,10.69,43.81-2.93,58.33-13.55
		c7.8-5.7,16.55-12.64,20.26-22.35c4.36-11.42-4.93-17.29-12.95-8.44L149.05,123.82z"/>
	<g>
		<g>
			<path class="st4" d="M121.35,132.94c1.68,4.06,7.56,3.13,10.73,2.24c6.57-1.84,11.95-5.92,18.93-6.32
				c2.98-0.17,11.3-1.3,11.5,3.63c0.13,3.22-4.11,4.99-2.08,9c1.42,2.81,6.06,4.19,8.27,1.64c2.28-2.64-0.78-4.52-0.25-6.65
				c0.73-2.93,3.77-0.61,5.41-2.28c1.98-2.01-0.57-4.08-0.39-6.25c3.5-0.09,3.24,1.28,5.94,2.77c2.65,1.47,6.06,0.29,8.37-1.46
				c1.08-0.82,2.31-1.63,2.6-3.22c0.31-1.77-1.24-2.51-1.24-3.91c0.02-3.13,4.11-2.13,6.24-4.41c1.79-1.92,4.07-6.66,1.5-9.09
				c-2.22-2.09-5.64,1.87-6.08-2.04c-0.27-2.44,3.21-6.26,3.83-8.79c0.94-3.93,0.56-7.47-3.1-9.53c-1.49-0.84-3.11-1.75-4.64-0.54
				c-1.24,0.97-0.68,3.2-1.74,4.09c-3.58,3.01-2.59-2.41-2.5-4.31c0.27-6.06-5.89-14.41-12.33-12.01
				c-7.8,2.88-3.45,15.83-6.91,22.06c-3.13,5.64-8.64,10.73-14.42,13.16c-2.73,1.14-5.68,1.32-7.81,3.63
				c-2.16,2.33-3.44,5.49-5.72,7.84c-3.86,3.98-9.34,9.24-14.8,10.49c0.37-0.09,0.71-0.26,1.07-0.41L121.35,132.94z"/>
			<path class="st5" d="M121.67,132.97c6.68,8.82,20.84-0.7,29.45-2.04c2.44-0.39,6.05-0.52,8.13,1.18c2.69,2.2,1.19,4.23,0.69,6.93
				c-0.93,4.96,5.32,12.33,8.39,5.37c0.9-2.05-0.35-5.51,0.89-7.16c1.62-2.13,4.14,0.56,5.5-2.44c0.83-1.84-2.36-5.99-0.33-6.82
				c1.56-0.64,4.76,5.08,6.35,2.12c0.88-1.62-8.14-8.94-9.24-1.84c-0.33,2.15,0.38,4.49-2.49,5.71c-3.37,1.43-3.4-1.27-2.09-3.7
				c-1.17-0.3-2.39-0.22-3.51-0.16c-0.08-2.92,1.89-4.7-1.71-6.39c-3.35-1.56-3.45,1.02-5.64,2.53c-2.58,1.78-4.43-0.45-7.5,0.17
				c-2.66,0.54-4.47,2.22-6.85,3.06c-1.03,0.36-6.95,1.47-7.53,0.13c-0.68-1.63,4.08-3.58,3.09-6.45c-1.89-5.48-8.43,3.5-10.56,4.97
				c-1.3,0.89-4.76,2.01-5.37,3.68c-0.88,2.39,1.99,3.7,4.11,2.94L121.67,132.97z"/>
			<path class="st6" d="M134.12,126.17c1.34-4.02,6.06-11.01,10.01-12.55c5.66-2.19,10.9-2.79,15.39-7.51
				c3.85-4.04,7.35-9.64,7.73-15.53c0.31-4.93-1.78-11.82,5.07-12.5c2.2-0.23,5.43,0.99,4.53,3.96c-8.16-2.32-4.04,7.22-4.02,11.5
				c0.05,7.34-9.82,9.77-9.2,16.1c1.73-0.43,6.32-3.55,7.92-0.79c1.63,2.78-3.56,4.08-4.48,6c1.64,1.46,5.83,1.4,4.72,4.92
				c-1.02,3.23-3.68,1.07-5.5-0.13c-2.65-1.75-4.88-3.23-8.06-1.94c-3.03,1.23-2.41,3.93-4.35,5.6c-1.98,1.69-4.12,0.09-6.44,1.21
				c-5.71,2.76,0.35,1.99,1.68,3.27c3.16,3.04-2.99,3.16-4.54,2.73c-2.75-0.77-3.35-2.47-6.2-1.22c-1.64,0.73-6.92,5.85-8.87,3.22
				c-1.93-2.61,4.09-4.49,4.9-5.96L134.12,126.17z"/>
		</g>
		<path class="st6" d="M189.33,90.01c-1.53-1.44-2.13,3.2-2.77,4.47c-1.13,2.24-2.69,2.62-4.48,4.03
			c-2.03,1.59-10.51,7.84-7.59,10.39c1.84-1.13,5.3-3.48,7.55-3.63c3.77-0.25,3.33,2.53,6.44-1.25c3.59-4.36,5.9-10.81-0.16-13.75
			c-0.48,0.3-0.23,0.53-0.41,0.95L189.33,90.01z"/>
		<path class="st7" d="M146,111.1c0.68,4.45-6.37,11.91-9.95,14.51c-4.43,3.23-12.12,2.62-15.63,7.13c4.36,5.2,9.08,2.5,12.52-1.64
			c2.32-2.8,3.77-2.25,6.59-3.7c2.43-1.24,2.96-3.75,4.22-5.94c2.32-4.01,2.97-2.72,6.48-2.69c3.15,0.03,5.6-1.81,7.25-4.66
			c1.6-2.79,2.18-5.35-1.52-4.37c-2.42,0.64-3.69,2.28-6.37,2.36c-0.66,0.03-4.22-0.42-3.66-0.34L146,111.1z"/>
	</g>
	<g>
		<path class="st8" d="M109.18,146.11c-39.59,10.34-76.96-7.56-83.5-39.98c-6.53-32.43,20.26-67.09,59.85-77.43
			c39.58-10.34,76.96,7.56,83.49,39.98C175.55,101.11,148.76,135.78,109.18,146.11z"/>
		<path class="st9" d="M75.6,33.25c-3.86-2.79-12.57,4.19-16.18,6.5c-6.54,4.17-12.06,9.31-17.71,14.79
			c-4.53,4.4-7.47,9.07-10.63,14.5c-1.92,3.3-6.65,6.79-7.44,10.51c-0.55,2.55,1.17,3.49,1.16,5.66c0,2.49-1.48,4.12-2.04,6.4
			c-0.86,3.51,0.41,7.34,0.74,10.87c0.57,6.21,2.32,15.8,6.54,20.25c2.93,3.08,4.62,4.42,6.85,8.49c2.39,4.35,4.53,4.15,8.19,6.59
			c3.65,2.44,5.83,4.59,10.42,5.76c4.27,1.09,5.57,3.86,9.45,5.5c9.11,3.83,19.26,3.14,28.71,1.09c10.23-2.21,20.2-5.84,30.27-9
			c18.58-5.83,32.43-21.13,40.18-39.88c-3.31,3.24-5.68,7.56-9.02,10.87c-4.8,4.78-10.2,8.98-15.7,12.74
			c-6.57,4.5-15.07,9.98-22.74,11.06c-3.38,0.48-6.27,0.36-9.39,2.1c-2.84,1.58-5.07,4.44-8.32,5.37c-5.64,1.6-8.14-1.3-12.43-3.55
			c-5.07-2.65-11.35-0.18-16.74-0.11c-4.84,0.08-9.04-1.55-12.82-4.68c-2.94-2.44-7.56-7.41-8.28-11.6
			c-0.32-1.79,0.83-2.65,0.14-4.52c-0.71-1.95-3.73-4.07-5.17-5.44c-2.69-2.55-4.88-4.59-6.63-8.15c-2.59-5.27,1.02-6.7,0.29-11.8
			c-0.64-4.48-3.16-7.21-2.85-12.09c0.25-3.88,1.25-8.65,3.01-12.19c3.93-7.88,12.32-16.3,18.91-21.7c3.79-3.11,7.64-5.5,11.65-8.13
			c2.43-1.59,7.77-4.31,9-6.39L75.6,33.25z"/>
		<path class="st10" d="M166.34,85.97c-1.02,3.95-2.22,7.81-4.97,11c-3.66,4.24-8.61,4.79-12.99,7.63c-3.47,2.25-5.11,6.1-8.05,9.02
			c-3.5,3.47-6.58,5.37-10.83,7.28c-8.15,3.66-15.42,8.72-24,11.52c-9.05,2.95-18.44,2.56-27.5,0.61
			c-3.89-0.83-8.44-1.31-11.94-3.32c-2.45-1.4-2.22-3.02-3.56-4.59c-3.25-3.8-7.85-3.76-11.37-6.59c-3.09-2.48-6.57-6.87-8.77-9.99
			c-2.36-3.36-6.73-9.78-7.41-13.89c-0.38-2.35,0.72-5.07,0.8-7.5c0.09-2.71,0-4.96,0.5-7.67c0.62-3.34,5.03-10.52,3.07-13.24
			c-9.96,8-15.49,28.35-11.4,40.68c2.59,7.78,7.71,10.91,12.51,16.29c4.4,4.93,7.06,10.26,13.01,13.86
			c12.33,7.47,31.87,10.27,46.1,7.49c12.23-2.4,22.36-8.32,33.44-13.69c10.45-5.05,20.26-14.05,26.17-24.46
			c2.08-3.66,4.59-7.41,6.19-11.32c1.46-3.54,1.23-7.89,2.63-11.14L166.34,85.97z"/>
	</g>
	<path class="st11" d="M12.3,78.67c-0.6-0.6-4.97-0.91-6.71-0.56c-2.69,0.55-3.45,0.12-1.9,4.28c1.55,4.1,5.54,6.34,8.7,8.66
		c4.78,3.53,8.74,7.14,11.26,12.88c3.16,7.17,4.17,25.63,13.03,28.03c3.13,0.85,6.69-2.33,9.27-3.69c3.87-2.05,7.7-3.16,11.97-3.88
		c12.5-2.14,22.77-0.56,35.2,1.42c12.41,1.98,26.04,0.63,37.72-4.11c10.22-4.15,18.77-11.07,27.22-18.41
		c6.41-5.58,14.08-10.22,20.03-16.2c2.32-2.33,12.35-11.88,8.88-16.14c-1.58-1.95-8.42-0.94-10.55-0.94
		c-4.2,0.02-8.32,0.7-12.09,2.78c-11.87,6.58-23.91,11.75-36.98,15.42c-28.48,8.01-59.93,12.02-88.47,1.05
		c-9.03-3.47-17.44-6.12-25.78-10.32c-1.16-0.58-0.48-0.68-1.59-0.65L12.3,78.67z"/>
	<path class="st12" d="M13.86,77.16c-0.59-0.6-4.93-0.86-6.65-0.5c-2.68,0.57-3.44,0.15-1.92,4.26c1.5,4.05,5.45,6.24,8.57,8.5
		c4.73,3.45,8.63,7,11.09,12.65c3.08,7.08,3.95,25.34,12.74,27.64c3.1,0.81,6.67-2.37,9.24-3.74c3.86-2.06,7.67-3.18,11.93-3.95
		c12.44-2.23,22.62-0.75,34.96,1.1c12.31,1.85,25.86,0.4,37.5-4.4c10.18-4.19,18.73-11.12,27.17-18.47
		c6.4-5.58,14.06-10.25,20.02-16.21c2.33-2.33,12.36-11.87,8.94-16.06c-1.56-1.92-8.36-0.86-10.47-0.83
		c-4.17,0.05-8.27,0.75-12.03,2.86c-11.85,6.62-23.85,11.84-36.85,15.6c-28.35,8.17-59.62,12.42-87.9,1.8
		c-8.94-3.35-17.28-5.91-25.54-9.99c-1.14-0.57-0.47-0.67-1.57-0.63L13.86,77.16z"/>
	<g>
		<g>
			<path class="st1" d="M136.15,10.42C110.77-8.91,74.87,1.15,50.7,17.54C30.9,30.97,2.14,57.05,18.51,84.79
				c6.19,10.49,11.26,14.79,22.56,15.92c9.25,0.92,19.01,0.2,28.13,1.69c10.22,1.66,18.74,7.58,29.47,7.66
				c10.86,0.1,23.64-3.51,33.48-8.28c22.39-10.85,53.99-36.46,37.33-66.63c-5.12-9.29-14.75-16.19-22.94-22.05
				c-3.59-2.58-7.73-5-11.77-6.44c-3.32-1.18-11.84-1.86-13.06-4.06L136.15,10.42z"/>
			<path class="st13" d="M134.7,6.35c-4.56,0.05-9.57-4.14-14.47-4.67c-6.07-0.65-12.17-1.18-18.27-0.96
				C88.14,1.24,73.15,7.19,60.72,13.56C41.18,23.58,12.74,45.14,17.19,72.04c1.13,6.83,4.58,12.11,9,16.98
				c7.18,7.91,15.9,9.13,25.84,8.71c5.43-0.23,10.93-2.02,16.34-1.08c5.24,0.92,10.04,4.18,15.12,5.8
				c11.92,3.79,27.07,6.4,36.72-4.06c-8.07-0.16-15.88,1.88-24.25,0.32c-9.87-1.84-19.69-4.48-28.5-9.89
				C47.89,76.8,47.09,49.35,60.81,31.66C72.32,16.82,89.43,6.86,107.26,4.58c3.2-0.41,26.36,1.66,26.37,1.66L134.7,6.35z"/>
			<path class="st3" d="M125.61,5.36c6.88,4.79,14.18,10.08,17.57,18.72c3.94,10.05,2.34,24.89-3.12,33.71
				c-5.99,9.67-16.17,17.66-26.56,20.61c-4.28,1.22-9.32,2.2-13.7,0.73c-4.32-1.46-7.9-5.33-12.39-6.42
				c-9.15-2.22-18.45,2.53-24.35-8.37c-5.63-10.4,1.09-23.03,7.34-30.78c6.62-8.21,13.72-15,22.66-20.04
				c5.88-3.32,12.62-4.74,18.42-7.93c-3.17-5.97-21.13-3.14-26.21-2.3c-9.3,1.54-18.93,5.64-26.66,11.37
				C42.32,26.73,24.55,38.91,17.1,59.95c-2.41,6.81-4.64,14.22-1.16,21.11c2.92,5.79,10.13,10.28,15.67,12.39
				c6.59,2.52,13.48,2.9,20.37,3.38c6.78,0.48,14.85-1.53,21.31,1.06c5.44,2.17,9.65,6.95,15.6,8.2c6.91,1.45,16.71,0.26,23.57-1.2
				c7.41-1.57,14.81-3.75,21.8-6.75c6.25-2.69,11.09-6.88,16.38-11.26c14.16-11.74,27.54-30.56,16.83-49.81
				c-8.47-15.22-24.64-28.22-40.46-32.45L125.61,5.36z"/>
			<path class="st14" d="M118.64,11.04c-6.89-1.29-16.14,2.69-20.18,8.85c-4.89,7.43-0.82,13.64,3.9,19.44
				c9.08,11.2,21.89,16.22,33.3,6.86c14.56-11.94-9.85-40.05-23.34-37.01L118.64,11.04z"/>
			<path class="st15" d="M70.09,35.62c-1.79,1.59-4.13,1.71-5.22,0.27c-1.1-1.45-0.54-3.91,1.25-5.49c1.78-1.6,4.12-1.71,5.21-0.27
				C72.42,31.57,71.87,34.03,70.09,35.62z"/>
			<path class="st15" d="M94.33,28.43c-0.89,0.79-2.53,0.22-3.67-1.28c-1.14-1.5-1.34-3.36-0.45-4.15c0.89-0.79,2.54-0.22,3.67,1.28
				C95.01,25.78,95.21,27.64,94.33,28.43z"/>
			<path class="st15" d="M121.83,38.8c-2.02,1.8-5.01,1.48-6.67-0.7c-1.67-2.19-1.38-5.43,0.64-7.22c2.02-1.8,5-1.49,6.67,0.71
				C124.13,33.77,123.85,37,121.83,38.8z"/>
			<path class="st15" d="M93.57,50.69c-1.7,1.52-4.01,1.5-5.17-0.03c-1.16-1.53-0.73-3.99,0.97-5.5c1.7-1.52,4.01-1.5,5.17,0.03
				C95.71,46.71,95.27,49.18,93.57,50.69z"/>
			<path class="st15" d="M67.99,56.73c-1.62,1.44-3.88,1.36-5.05-0.18c-1.17-1.54-0.81-3.96,0.8-5.4c1.62-1.44,3.88-1.36,5.05,0.18
				C69.97,52.87,69.61,55.29,67.99,56.73z"/>
			<path class="st15" d="M79.28,18.65c-1.62,1.44-3.32,2.09-3.8,1.45c-0.48-0.63,0.44-2.32,2.05-3.77c1.61-1.43,3.31-2.09,3.8-1.45
				C81.82,15.52,80.9,17.2,79.28,18.65z"/>
			<path class="st15" d="M45.94,44.5c-1.61,1.44-3.87,1.36-5.03-0.18c-1.17-1.53-0.81-3.95,0.81-5.39c1.62-1.44,3.87-1.36,5.03,0.17
				C47.92,40.65,47.56,43.06,45.94,44.5z"/>
			<path class="st15" d="M148.81,45.17c-1.08,0.95-3.15,0.14-4.64-1.82c-1.49-1.97-1.83-4.33-0.76-5.29
				c1.07-0.95,3.15-0.14,4.64,1.83C149.53,41.85,149.87,44.22,148.81,45.17z"/>
			<path class="st15" d="M135.03,27.03c-1.08,0.96-3.29-0.04-4.96-2.23c-1.66-2.19-2.14-4.74-1.07-5.7
				c1.07-0.96,3.29,0.05,4.95,2.23C135.62,23.52,136.09,26.08,135.03,27.03z"/>
			<path class="st15" d="M114.97,16.97c-1.18,1.07-2.85,0.99-3.72-0.15c-0.87-1.15-0.61-2.93,0.57-3.99
				c1.18-1.06,2.85-0.98,3.72,0.16C116.41,14.14,116.16,15.93,114.97,16.97z"/>
			<path class="st15" d="M126.76,64.83c-1.57,1.4-3.45,1.74-4.2,0.76c-0.75-0.98-0.07-2.92,1.5-4.32c1.58-1.4,3.46-1.75,4.21-0.76
				C129,61.49,128.33,63.42,126.76,64.83z"/>
			<path class="st15" d="M147.48,66.16c-1.6,1.42-3.39,1.94-3.99,1.14c-0.6-0.79,0.21-2.59,1.81-4.02c1.6-1.43,3.39-1.94,3.99-1.15
				C149.89,62.93,149.08,64.74,147.48,66.16z"/>
		</g>
		<path class="st15" d="M23.71,44.28c-7.39,7.78-9.68,25.39-5.72,35.58c3.84,9.85,11.46,16.09,21,18.26
			c9.83,2.23,19.88-0.35,29.62,2.07c9.73,2.41,18.62,7.07,28.36,8.84c3.75,0.69,6.87,0.55,10.47-0.31
			c-5.72-0.01-11.92,0.52-17.74-0.84c-4.77-1.11-8.79-3.08-13.64-3.75c-7.97-1.1-16.04-1.27-23.97-1.23
			c-7.89,0.04-16.34,0.37-23-4.41c-5.6-4.02-9.59-8.66-12.52-15.18c-3.31-7.36-6.5-14.95-3.75-23.02
			c2.46-7.19,11.44-12.63,12.56-19.64L23.71,44.28z"/>
	</g>
	<path class="st2" d="M175.06,73.68c-2.66,2.42-5.54,6.89,0.35,5.46c5.08-1.24,3.33-7.55,0.38-4.5L175.06,73.68z"/>
	<path class="st2" d="M16.63,79.51c2.67,3.76,4.18,10.03,6.64,14.42c2.68,4.78,5.75,9.19,10.62,11.41
		c12.08,5.5,24.84,1.42,37.26,4.14c7.12,1.56,14.05,4.75,21.23,6.34c6.74,1.51,14.09,0.36,20.6-1.76
		c10.28-3.33,20.3-9.14,29.39-15.1c6.86-4.48,13.88-9.9,19.54-16.11c4.24-4.65,5.45-8.94,7.88-14.55
		c-1.81,5.7-8.13,10.39-12.29,14.08c-5.29,4.71-10.77,8.51-16.84,11.94c-10.24,5.79-20.82,9.47-32.06,11.84
		c-8.23,1.74-17.83,1.73-25.99-0.49c-9.56-2.61-17.35-4.16-27.13-4.07c-8.21,0.08-18.34,0.54-25.59-3.83
		c-3.25-1.96-6.22-5.73-8.4-9.24c-1.33-2.12-4.39-8.54-4.19-10.7L16.63,79.51z"/>
	<path class="st3" d="M37.94,130.81c0.73,13.07,15.07,21.69,24.3,27.03c9.53,5.52,19.62,11.37,30.46,12.41
		c-32.7-5.8-81.57-20.28-74.51-66.96c1.11-7.38,4.61-9.83,10.22-3.99c4.03,4.18,11.81,23.19,8.51,26.71L37.94,130.81z"/>
	<path class="st2" d="M136.83,136.15c3.54-0.55,8.88-3.48,12.33-1.67c2.92,1.52,1.6,4.66,5.59,5.56
		c-5.87,10.77-18.52,13.15-27.04,19.34c8.4,2.31,28.43-9.52,32.71-18.01c2.75-5.46-0.52-11.07-5.81-11.28
		c-6.1-0.23-11.99,3.8-17.39,5.71L136.83,136.15z"/>
	<path class="st2" d="M19.86,98.4c-0.48,16.34,1.06,29.14,9.98,42.46c4.45,6.65,10.52,12.12,16.61,16.64
		c5.85,4.36,20.9,12.88,27.83,10.09c-3.9-6.16-14.52-6.75-20.21-11.02c-2.08-1.55-6.24-4.82-6.91-7.75
		c-1.52-6.72,3.53-1.24,6.34-0.27c3.35,1.16,5.53,1.19,8.56,2.88c3.21,1.79,5.42,2.89,9.1,3.32c6.01,0.69,13.99,1.13,18.26-4.28
		c-3.59-2.67-12.18-1.22-16.81-2.2c-5.43-1.14-9.82-3.92-14.63-6.76c-6.74-4-13.96-5.13-20.19-9.12c-5.91-3.8-11-7.84-12.57-15.93
		c-1.26-6.45-1.61-12.5-4.26-18.2c-0.48,0.24-0.73,0.65-1.17,0.93L19.86,98.4z"/>
	<path class="st2" d="M71.82,9.24C64.47,8.5,53.66,20.85,48.85,25.98c-7.56,8.05-16.48,16.11-20.48,27
		c-5.23,14.24,3.1,28.91,16.53,31.09c6.39,1.04,11.82,2.62,16.98,6.8c6.58,5.33,11.76,4.87,19.3,7.26
		c6.54,2.08,11.22,6.68,18.34,7.04c5.87,0.29,13.46,0,18.86-2.52c-7.93,9.65-29.73,1.8-38.98-0.95
		c-12.18-3.63-23.73-4.18-35.99-4.99c-18.32-1.22-29.38-29.32-22.58-46.13c4.49-11.08,14.18-18.51,22.66-26.07
		c5.1-4.54,9.86-8.02,16.05-10.56c6.93-2.85,15.45-2.82,20.9-8.83L71.82,9.24z"/>
</g>
<path class="st16" d="M-49.26,84.95c0-9.29-20.33-16.82-45.41-16.82s-45.41,7.53-45.41,16.82c0,9.29,20.33,44.43,45.41,44.43
	S-49.26,94.24-49.26,84.95z"/>
<path class="st17" d="M-49.26,84.47c0-9.03-20.33-16.34-45.41-16.34s-45.41,7.32-45.41,16.34s20.33,43.16,45.41,43.16
	S-49.26,93.5-49.26,84.47z"/>
<path class="st18" d="M-134.98,78.1c-2.83,3.71-4.02,7.72-3.01,11.45c2.43,8.97,23.88,39.57,39,35.47
	c15.12-4.1,18.2-41.34,15.77-50.3c-0.46-1.71-1.36-3.24-2.61-4.56c-3.2-0.26-6.51-0.41-9.92-0.41
	C-112.49,69.75-127.1,73.1-134.98,78.1z"/>
<ellipse class="st19" cx="-94.67" cy="84.95" rx="45.41" ry="16.82"/>
<path class="st20" d="M-94.67,99.08c-23.09,0-42.6-6.72-42.6-14.67c0-7.95,19.51-14.67,42.6-14.67c23.09,0,42.6,6.72,42.6,14.67
	C-52.08,92.36-71.58,99.08-94.67,99.08z"/>
<path class="st21" d="M-94.67,99.08c16.94,0,31.93-3.62,38.73-8.68c-1.42-6.84-18.57-12.46-38.73-12.46s-37.31,5.62-38.73,12.46
	C-126.61,95.46-111.61,99.08-94.67,99.08z"/>
<linearGradient id="SVGID_1_" gradientUnits="userSpaceOnUse" x1="-105.7147" y1="77.9831" x2="-73.3803" y2="114.0596">
	<stop  offset="0" style="stop-color:#FFFFFF"/>
	<stop  offset="1" style="stop-color:#020203"/>
</linearGradient>
<path class="st22" d="M-127.1,93.79c7.88,3.21,19.6,5.29,32.43,5.29c15.47,0,29.3-3.02,36.77-7.4c-4.99-6.1-18.5-10.61-33.92-10.61
	C-108.99,81.07-123.78,86.65-127.1,93.79z"/>
<path class="st23" d="M-133.37,92.11c-0.35,1.12,4.12,3.51,9.98,5.34c5.86,1.83,10.89,2.4,11.24,1.29
	c0.35-1.12-4.75-1.48-10.61-3.31C-128.62,93.59-133.02,90.99-133.37,92.11z"/>
<path class="st23" d="M-122.19,105.12c-1.55-2.3-3.34-3.8-4.01-3.35c-0.67,0.45,0.04,2.68,1.59,4.98c1.55,2.3,3.34,3.8,4.01,3.35
	C-119.94,109.66-120.65,107.43-122.19,105.12z"/>
<path class="st23" d="M-117.24,112.75c-0.92-0.75-1.93-1.03-2.26-0.62c-0.33,0.41,0.14,1.35,1.05,2.1c0.92,0.75,1.93,1.02,2.26,0.61
	C-115.86,114.43-116.33,113.49-117.24,112.75z"/>
</svg>
