<?xml version="1.0" encoding="utf-8"?>
<!-- Generator: Adobe Illustrator 25.0.0, SVG Export Plug-In . SVG Version: 6.00 Build 0)  -->
<svg version="1.1" id="Layer_1" xmlns="http://www.w3.org/2000/svg" xmlns:xlink="http://www.w3.org/1999/xlink" x="0px" y="0px"
	 viewBox="0 0 200 200" style="enable-background:new 0 0 200 200;" xml:space="preserve">
<style type="text/css">
	.st0{opacity:0.3;fill:#ABB4B9;enable-background:new    ;}
	.st1{fill:#FFE59A;}
	.st2{fill:#E8C018;}
	.st3{opacity:0.2;fill:#E4AF18;enable-background:new    ;}
	.st4{fill:#8DBE5D;}
	.st5{fill:#AAC962;}
	.st6{fill:#75A85E;}
	.st7{fill:#538057;}
	.st8{fill:#B22F1F;}
	.st9{fill:#9C2018;}
	.st10{opacity:0.4;fill:#9C2018;enable-background:new    ;}
	.st11{fill:#CC6E28;}
	.st12{fill:#FFDD35;}
	.st13{fill:#E4AF18;}
	.st14{fill:#FFCF4B;}
	.st15{fill:#D97F0D;}
	.st16{fill:#D9BA98;}
	.st17{fill:#F2DDC7;}
	.st18{fill:#FEEDDA;}
	.st19{fill:#FDF4DC;}
	.st20{fill:#E7D3BD;}
	.st21{fill:#D14216;}
	.st22{opacity:0.6;fill:url(#SVGID_1_);enable-background:new    ;}
	.st23{fill:#FFFFFF;}
</style>
<g>
	<path class="st0" d="M159.1,146.4c0.7-11.8-21.9-22.7-50.5-24.3c-28.5-1.6-52.2,6.7-52.9,18.5c-0.7,11.8,21.9,22.7,50.5,24.3
		C134.7,166.6,158.4,158.3,159.1,146.4z"/>
	<g>
		<path class="st1" d="M151.8,109.9c-1.1,6.2-7.2,11.3-11.3,15.2c-6.2,5.7-16.1,14.5-24,17c-12.6,4-19.3,4.4-32.4,2.6
			c-11.1-1.5-24.9-9-32-19.1c-4.4-6.4-7.1-15.7-6.6-23.6c0.9-13.4,12.7-11.8,23-12.7c11.6-1,23.4-2.9,34.8-5.1
			c7.7-1.5,16.3-3.6,24.2-2.3c7.1,1.1,15.4,6.3,19.6,12.7c2.1,3.2,4.6,12,3.4,15.6c-0.5-0.3-0.4-0.7-0.6-1.2L151.8,109.9z"/>
		<path class="st2" d="M64.3,106.8c-4.8-1.8-7.7,6.7-2.5,6.8c1.9,0,4.3-0.7,4.6-3.1c0.2-1.5-1-4.1-2.6-3.6L64.3,106.8z"/>
		<path class="st2" d="M75.7,104.3c-1.5-1.4-4.4-1.3-4.5,1.3c-0.1,2.7,4.4,6.1,6.7,5.4c3.8-1.2,0.1-6.9-2.5-7.1L75.7,104.3z"/>
		<path class="st2" d="M124,104.8c-1.8-0.7-6.6,0-7.9,1.8c-1.7,2.4,1,3.4,3.4,3.3c1.9-0.1,8-4.6,4-5L124,104.8z"/>
		<path class="st2" d="M41.5,87.4c-0.7,1.5,1.4,3.5,2.1,1.9c0.7-1.3-1.7-2.7-2.3-1.8L41.5,87.4z"/>
		<path class="st3" d="M131.6,115.6c-3.8,1.9-8.3,3.4-11.2,6.7c-3.1,3.5-4.9,7.2-8.6,10.4c-3.7,3.3-7.3,5.7-11.8,7.4
			c-3.3,1.2-7.5,1-10.4,2.7c11.1,7,28.5-1.9,38-8.8c5.1-3.7,10.8-8.2,13.2-14.6c2.8-7.4-3.2-11.3-8.4-5.5L131.6,115.6z"/>
		<g>
			<g>
				<path class="st4" d="M113.6,121.5c1.1,2.6,4.9,2,7,1.5c4.3-1.2,7.8-3.9,12.3-4.1c1.9-0.1,7.4-0.8,7.5,2.4
					c0.1,2.1-2.7,3.2-1.4,5.9c0.9,1.8,3.9,2.7,5.4,1.1c1.5-1.7-0.5-2.9-0.2-4.3c0.5-1.9,2.5-0.4,3.5-1.5c1.3-1.3-0.4-2.7-0.3-4.1
					c2.3-0.1,2.1,0.8,3.9,1.8c1.7,1,3.9,0.2,5.4-1c0.7-0.5,1.5-1.1,1.7-2.1c0.2-1.2-0.8-1.6-0.8-2.5c0-2,2.7-1.4,4.1-2.9
					c1.2-1.2,2.6-4.3,1-5.9c-1.4-1.4-3.7,1.2-4-1.3c-0.2-1.6,2.1-4.1,2.5-5.7c0.6-2.6,0.4-4.9-2-6.2c-1-0.5-2-1.1-3-0.4
					c-0.8,0.6-0.4,2.1-1.1,2.7c-2.3,2-1.7-1.6-1.6-2.8c0.2-3.9-3.8-9.4-8-7.8c-5.1,1.9-2.2,10.3-4.5,14.4c-2,3.7-5.6,7-9.4,8.6
					c-1.8,0.7-3.7,0.9-5.1,2.4c-1.4,1.5-2.2,3.6-3.7,5.1c-2.5,2.6-6.1,6-9.6,6.8c0.2-0.1,0.5-0.2,0.7-0.3L113.6,121.5z"/>
				<path class="st5" d="M113.8,121.5c4.3,5.7,13.6-0.5,19.2-1.3c1.6-0.3,3.9-0.3,5.3,0.8c1.8,1.4,0.8,2.8,0.4,4.5
					c-0.6,3.2,3.5,8,5.5,3.5c0.6-1.3-0.2-3.6,0.6-4.7c1.1-1.4,2.7,0.4,3.6-1.6c0.5-1.2-1.5-3.9-0.2-4.4c1-0.4,3.1,3.3,4.1,1.4
					c0.6-1.1-5.3-5.8-6-1.2c-0.2,1.4,0.2,2.9-1.6,3.7c-2.2,0.9-2.2-0.8-1.4-2.4c-0.8-0.2-1.6-0.1-2.3-0.1c-0.1-1.9,1.2-3.1-1.1-4.2
					c-2.2-1-2.2,0.7-3.7,1.6c-1.7,1.2-2.9-0.3-4.9,0.1c-1.7,0.4-2.9,1.4-4.5,2c-0.7,0.2-4.5,1-4.9,0.1c-0.4-1.1,2.7-2.3,2-4.2
					c-1.2-3.6-5.5,2.3-6.9,3.2c-0.8,0.6-3.1,1.3-3.5,2.4c-0.6,1.6,1.3,2.4,2.7,1.9L113.8,121.5z"/>
				<path class="st6" d="M121.9,117.1c0.9-2.6,3.9-7.2,6.5-8.2c3.7-1.4,7.1-1.8,10-4.9c2.5-2.6,4.8-6.3,5-10.1
					c0.2-3.2-1.2-7.7,3.3-8.1c1.4-0.1,3.5,0.6,2.9,2.6c-5.3-1.5-2.6,4.7-2.6,7.5c0,4.8-6.4,6.4-6,10.5c1.1-0.3,4.1-2.3,5.2-0.5
					c1.1,1.8-2.3,2.7-2.9,3.9c1.1,1,3.8,0.9,3.1,3.2c-0.7,2.1-2.4,0.7-3.6-0.1c-1.7-1.1-3.2-2.1-5.2-1.3c-2,0.8-1.6,2.6-2.8,3.6
					c-1.3,1.1-2.7,0.1-4.2,0.8c-3.7,1.8,0.2,1.3,1.1,2.1c2.1,2-1.9,2.1-3,1.8c-1.8-0.5-2.2-1.6-4-0.8c-1.1,0.5-4.5,3.8-5.8,2.1
					c-1.3-1.7,2.7-2.9,3.2-3.9L121.9,117.1z"/>
			</g>
			<path class="st6" d="M157.9,93.5c-1-0.9-1.4,2.1-1.8,2.9c-0.7,1.5-1.8,1.7-2.9,2.6c-1.3,1-6.8,5.1-4.9,6.8
				c1.2-0.7,3.5-2.3,4.9-2.4c2.5-0.2,2.2,1.6,4.2-0.8c2.3-2.8,3.8-7-0.1-9c-0.3,0.2-0.1,0.3-0.3,0.6L157.9,93.5z"/>
			<path class="st7" d="M129.6,107.3c0.4,2.9-4.1,7.8-6.5,9.4c-2.9,2.1-7.9,1.7-10.2,4.6c2.8,3.4,5.9,1.6,8.2-1.1
				c1.5-1.8,2.5-1.5,4.3-2.4c1.6-0.8,1.9-2.4,2.7-3.9c1.5-2.6,1.9-1.8,4.2-1.8c2.1,0,3.6-1.2,4.7-3c1-1.8,1.4-3.5-1-2.8
				c-1.6,0.4-2.4,1.5-4.1,1.5c-0.4,0-2.7-0.3-2.4-0.2L129.6,107.3z"/>
		</g>
		<g>
			<path class="st8" d="M105.7,130.1c-25.8,6.7-50.1-4.9-54.4-26c-4.3-21.1,13.2-43.7,39-50.4c25.8-6.7,50.1,4.9,54.4,26
				C148.9,100.8,131.4,123.3,105.7,130.1z"/>
			<path class="st9" d="M83.8,56.6c-2.5-1.8-8.2,2.7-10.5,4.2c-4.3,2.7-7.9,6.1-11.5,9.6c-2.9,2.9-4.9,5.9-6.9,9.4
				c-1.2,2.1-4.3,4.4-4.8,6.8c-0.4,1.7,0.8,2.3,0.8,3.7c0,1.6-1,2.7-1.3,4.2c-0.6,2.3,0.3,4.8,0.5,7.1c0.4,4,1.5,10.3,4.3,13.2
				c1.9,2,3,2.9,4.5,5.5c1.6,2.8,2.9,2.7,5.3,4.3c2.4,1.6,3.8,3,6.8,3.7c2.8,0.7,3.6,2.5,6.2,3.6c5.9,2.5,12.5,2,18.7,0.7
				c6.7-1.4,13.2-3.8,19.7-5.9c12.1-3.8,21.1-13.8,26.2-26c-2.2,2.1-3.7,4.9-5.9,7.1c-3.1,3.1-6.6,5.8-10.2,8.3
				c-4.3,2.9-9.8,6.5-14.8,7.2c-2.2,0.3-4.1,0.2-6.1,1.4c-1.8,1-3.3,2.9-5.4,3.5c-3.7,1-5.3-0.8-8.1-2.3c-3.3-1.7-7.4-0.1-10.9-0.1
				c-3.2,0.1-5.9-1-8.3-3c-1.9-1.6-4.9-4.8-5.4-7.6c-0.2-1.2,0.5-1.7,0.1-2.9c-0.5-1.3-2.4-2.6-3.4-3.5c-1.8-1.7-3.2-3-4.3-5.3
				c-1.7-3.4,0.7-4.4,0.2-7.7c-0.4-2.9-2.1-4.7-1.9-7.9c0.2-2.5,0.8-5.6,2-7.9c2.6-5.1,8-10.6,12.3-14.1c2.5-2,5-3.6,7.6-5.3
				c1.6-1,5.1-2.8,5.9-4.2L83.8,56.6z"/>
			<path class="st10" d="M142.9,90.9c-0.7,2.6-1.4,5.1-3.2,7.2c-2.4,2.8-5.6,3.1-8.5,5c-2.3,1.5-3.3,4-5.2,5.9
				c-2.3,2.3-4.3,3.5-7.1,4.7c-5.3,2.4-10,5.7-15.6,7.5c-5.9,1.9-12,1.7-17.9,0.4c-2.5-0.5-5.5-0.9-7.8-2.2c-1.6-0.9-1.4-2-2.3-3
				c-2.1-2.5-5.1-2.4-7.4-4.3c-2-1.6-4.3-4.5-5.7-6.5c-1.5-2.2-4.4-6.4-4.8-9c-0.2-1.5,0.5-3.3,0.5-4.9c0.1-1.8,0-3.2,0.3-5
				c0.4-2.2,3.3-6.8,2-8.6c-6.5,5.2-10.1,18.5-7.4,26.5c1.7,5.1,5,7.1,8.1,10.6c2.9,3.2,4.6,6.7,8.5,9c8,4.9,20.7,6.7,30,4.9
				c8-1.6,14.6-5.4,21.8-8.9c6.8-3.3,13.2-9.1,17-15.9c1.4-2.4,3-4.8,4-7.4c1-2.3,0.8-5.1,1.7-7.3L142.9,90.9z"/>
		</g>
		<path class="st11" d="M42.6,86.2c-0.4-0.4-3.2-0.6-4.4-0.4c-1.8,0.4-2.2,0.1-1.2,2.8c1,2.7,3.6,4.1,5.7,5.6
			c3.1,2.3,5.7,4.6,7.3,8.4c2.1,4.7,2.7,16.7,8.5,18.2c2,0.6,4.4-1.5,6-2.4c2.5-1.3,5-2.1,7.8-2.5c8.1-1.4,14.8-0.4,22.9,0.9
			c8.1,1.3,17,0.4,24.6-2.7c6.7-2.7,12.2-7.2,17.7-12c4.2-3.6,9.2-6.7,13-10.5c1.5-1.5,8-7.7,5.8-10.5c-1-1.3-5.5-0.6-6.9-0.6
			c-2.7,0-5.4,0.5-7.9,1.8c-7.7,4.3-15.6,7.6-24.1,10c-18.5,5.2-39,7.8-57.6,0.7c-5.9-2.3-11.4-4-16.8-6.7c-0.8-0.4-0.3-0.4-1-0.4
			L42.6,86.2z"/>
		<path class="st12" d="M43.6,85.2c-0.4-0.4-3.2-0.6-4.3-0.3c-1.7,0.4-2.2,0.1-1.2,2.8c1,2.6,3.5,4.1,5.6,5.5
			c3.1,2.2,5.6,4.6,7.2,8.2c2,4.6,2.6,16.5,8.3,18c2,0.5,4.3-1.5,6-2.4c2.5-1.3,5-2.1,7.8-2.6c8.1-1.5,14.7-0.5,22.8,0.7
			c8,1.2,16.8,0.3,24.4-2.9c6.6-2.7,12.2-7.2,17.7-12c4.2-3.6,9.2-6.7,13-10.6c1.5-1.5,8-7.7,5.8-10.5c-1-1.2-5.4-0.6-6.8-0.5
			c-2.7,0-5.4,0.5-7.8,1.9c-7.7,4.3-15.5,7.7-24,10.2c-18.5,5.3-38.8,8.1-57.2,1.2c-5.8-2.2-11.2-3.8-16.6-6.5
			c-0.7-0.4-0.3-0.4-1-0.4L43.6,85.2z"/>
		<g>
			<g>
				<path class="st1" d="M123.2,41.7c-16.5-12.6-39.9-6-55.6,4.6c-12.9,8.7-31.6,25.7-21,43.8c4,6.8,7.3,9.6,14.7,10.4
					c6,0.6,12.4,0.1,18.3,1.1c6.7,1.1,12.2,4.9,19.2,5c7.1,0.1,15.4-2.3,21.8-5.4c14.6-7.1,35.1-23.7,24.3-43.4
					c-3.3-6-9.6-10.5-14.9-14.4c-2.3-1.7-5-3.3-7.7-4.2c-2.2-0.8-7.7-1.2-8.5-2.6L123.2,41.7z"/>
				<path class="st13" d="M122.3,39.1c-3,0-6.2-2.7-9.4-3c-4-0.4-7.9-0.8-11.9-0.6c-9,0.3-18.8,4.2-26.8,8.4
					c-12.7,6.5-31.2,20.6-28.3,38.1c0.7,4.4,3,7.9,5.9,11.1c4.7,5.1,10.4,5.9,16.8,5.7c3.5-0.1,7.1-1.3,10.6-0.7
					c3.4,0.6,6.5,2.7,9.8,3.8c7.8,2.5,17.6,4.2,23.9-2.6c-5.3-0.1-10.3,1.2-15.8,0.2c-6.4-1.2-12.8-2.9-18.6-6.4
					c-12.7-7.8-13.3-25.7-4.3-37.2c7.5-9.7,18.6-16.1,30.2-17.6c2.1-0.3,17.2,1.1,17.2,1.1L122.3,39.1z"/>
				<path class="st3" d="M116.4,38.4c4.5,3.1,9.2,6.6,11.4,12.2c2.6,6.5,1.5,16.2-2,21.9c-3.9,6.3-10.5,11.5-17.3,13.4
					c-2.8,0.8-6.1,1.4-8.9,0.5c-2.8-1-5.1-3.5-8.1-4.2c-6-1.4-12,1.6-15.9-5.4c-3.7-6.8,0.7-15,4.8-20c4.3-5.3,8.9-9.8,14.8-13
					c3.8-2.2,8.2-3.1,12-5.2c-2.1-3.9-13.8-2-17.1-1.5c-6.1,1-12.3,3.7-17.4,7.4c-10.6,7.9-22.2,15.8-27,29.5
					c-1.6,4.4-3,9.3-0.8,13.7c1.9,3.8,6.6,6.7,10.2,8.1c4.3,1.6,8.8,1.9,13.3,2.2c4.4,0.3,9.7-1,13.9,0.7c3.5,1.4,6.3,4.5,10.2,5.3
					c4.5,0.9,10.9,0.2,15.3-0.8c4.8-1,9.6-2.4,14.2-4.4c4.1-1.8,7.2-4.5,10.7-7.3c9.2-7.6,17.9-19.9,11-32.4
					c-5.5-9.9-16-18.4-26.3-21.1L116.4,38.4z"/>
				<path class="st14" d="M111.8,42.1c-4.5-0.8-10.5,1.8-13.1,5.8c-3.2,4.8-0.5,8.9,2.5,12.7c5.9,7.3,14.3,10.6,21.7,4.5
					c9.5-7.8-6.4-26.1-15.2-24.1L111.8,42.1z"/>
				<path class="st15" d="M80.2,58.1c-1.2,1-2.7,1.1-3.4,0.2c-0.7-0.9-0.4-2.5,0.8-3.6c1.2-1,2.7-1.1,3.4-0.2
					C81.7,55.5,81.4,57.1,80.2,58.1z"/>
				<path class="st15" d="M96,53.5c-0.6,0.5-1.6,0.1-2.4-0.8c-0.7-1-0.9-2.2-0.3-2.7c0.6-0.5,1.7-0.1,2.4,0.8
					C96.4,51.7,96.6,52.9,96,53.5z"/>
				<path class="st15" d="M113.9,60.2c-1.3,1.2-3.3,1-4.3-0.5c-1.1-1.4-0.9-3.5,0.4-4.7c1.3-1.2,3.3-1,4.3,0.5
					C115.4,56.9,115.2,59,113.9,60.2z"/>
				<path class="st15" d="M95.5,67.9c-1.1,1-2.6,1-3.4,0c-0.8-1-0.5-2.6,0.6-3.6c1.1-1,2.6-1,3.4,0C96.9,65.4,96.6,67,95.5,67.9z"/>
				<path class="st15" d="M78.9,71.9c-1.1,0.9-2.5,0.9-3.3-0.1c-0.8-1-0.5-2.6,0.5-3.5c1.1-0.9,2.5-0.9,3.3,0.1
					C80.1,69.4,79.9,70.9,78.9,71.9z"/>
				<path class="st15" d="M86.2,47.1C85.2,48,84,48.4,83.7,48c-0.3-0.4,0.3-1.5,1.3-2.5c1-0.9,2.2-1.4,2.5-0.9
					C87.9,45.1,87.3,46.1,86.2,47.1z"/>
				<path class="st15" d="M64.5,63.9c-1,0.9-2.5,0.9-3.3-0.1c-0.8-1-0.5-2.6,0.5-3.5c1.1-0.9,2.5-0.9,3.3,0.1
					C65.8,61.4,65.6,63,64.5,63.9z"/>
				<path class="st15" d="M131.5,64.4c-0.7,0.6-2.1,0.1-3-1.2c-1-1.3-1.2-2.8-0.5-3.4c0.7-0.6,2.1-0.1,3,1.2
					C131.9,62.2,132.2,63.7,131.5,64.4z"/>
				<path class="st15" d="M122.5,52.5c-0.7,0.6-2.1,0-3.2-1.5c-1.1-1.4-1.4-3.1-0.7-3.7s2.1,0,3.2,1.5
					C122.9,50.3,123.2,51.9,122.5,52.5z"/>
				<path class="st15" d="M109.4,46c-0.8,0.7-1.9,0.6-2.4-0.1c-0.6-0.7-0.4-1.9,0.4-2.6c0.8-0.7,1.9-0.6,2.4,0.1
					C110.4,44.2,110.2,45.3,109.4,46z"/>
				<path class="st15" d="M117.1,77.2c-1,0.9-2.2,1.1-2.7,0.5c-0.5-0.6,0-1.9,1-2.8c1-0.9,2.3-1.1,2.7-0.5
					C118.6,75,118.1,76.2,117.1,77.2z"/>
				<path class="st15" d="M130.6,78c-1,0.9-2.2,1.3-2.6,0.7c-0.4-0.5,0.1-1.7,1.2-2.6c1-0.9,2.2-1.3,2.6-0.7
					C132.2,75.9,131.7,77.1,130.6,78z"/>
			</g>
			<path class="st15" d="M50,63.8c-4.8,5.1-6.3,16.5-3.7,23.2c2.5,6.4,7.5,10.5,13.7,11.9c6.4,1.5,12.9-0.2,19.3,1.3
				c6.3,1.6,12.1,4.6,18.5,5.8c2.4,0.4,4.5,0.4,6.8-0.2c-3.7,0-7.8,0.3-11.5-0.5c-3.1-0.7-5.7-2-8.9-2.4c-5.2-0.7-10.4-0.8-15.6-0.8
				c-5.1,0-10.6,0.2-15-2.9c-3.6-2.6-6.2-5.6-8.2-9.9c-2.2-4.8-4.2-9.7-2.4-15c1.6-4.7,7.4-8.2,8.2-12.8L50,63.8z"/>
		</g>
		<path class="st2" d="M148.6,82.9c-1.7,1.6-3.6,4.5,0.2,3.6c3.3-0.8,2.2-4.9,0.2-2.9L148.6,82.9z"/>
		<path class="st2" d="M45.4,86.7c1.7,2.4,2.7,6.5,4.3,9.4c1.7,3.1,3.7,6,6.9,7.4c7.9,3.6,16.2,0.9,24.3,2.7c4.6,1,9.1,3.1,13.8,4.1
			c4.4,1,9.2,0.2,13.4-1.1c6.7-2.2,13.2-6,19.1-9.8c4.5-2.9,9-6.4,12.7-10.5c2.8-3,3.5-5.8,5.1-9.5c-1.2,3.7-5.3,6.8-8,9.2
			c-3.4,3.1-7,5.5-11,7.8c-6.7,3.8-13.6,6.2-20.9,7.7c-5.4,1.1-11.6,1.1-16.9-0.3c-6.2-1.7-11.3-2.7-17.7-2.6
			c-5.3,0.1-11.9,0.4-16.7-2.5c-2.1-1.3-4-3.7-5.5-6c-0.9-1.4-2.9-5.6-2.7-7L45.4,86.7z"/>
		<path class="st3" d="M59.3,120.1c0.5,8.5,9.8,14.1,15.8,17.6c6.2,3.6,12.8,7.4,19.8,8.1c-21.3-3.8-53.1-13.2-48.5-43.6
			c0.7-4.8,3-6.4,6.7-2.6c2.6,2.7,7.7,15.1,5.5,17.4L59.3,120.1z"/>
		<path class="st2" d="M123.7,123.6c2.3-0.4,5.8-2.3,8-1.1c1.9,1,1,3,3.6,3.6c-3.8,7-12.1,8.6-17.6,12.6c5.5,1.5,18.5-6.2,21.3-11.7
			c1.8-3.6-0.3-7.2-3.8-7.3c-4-0.1-7.8,2.5-11.3,3.7L123.7,123.6z"/>
		<path class="st2" d="M47.5,99c-0.3,10.6,0.7,19,6.5,27.6c2.9,4.3,6.8,7.9,10.8,10.8c3.8,2.8,13.6,8.4,18.1,6.6
			c-2.5-4-9.5-4.4-13.2-7.2c-1.4-1-4.1-3.1-4.5-5c-1-4.4,2.3-0.8,4.1-0.2c2.2,0.8,3.6,0.8,5.6,1.9c2.1,1.2,3.5,1.9,5.9,2.2
			c3.9,0.4,9.1,0.7,11.9-2.8c-2.3-1.7-7.9-0.8-10.9-1.4c-3.5-0.7-6.4-2.6-9.5-4.4c-4.4-2.6-9.1-3.3-13.1-5.9
			c-3.8-2.5-7.2-5.1-8.2-10.4c-0.8-4.2-1-8.1-2.8-11.8c-0.3,0.2-0.5,0.4-0.8,0.6L47.5,99z"/>
		<path class="st2" d="M81.4,41c-4.8-0.5-11.8,7.6-15,10.9c-4.9,5.2-10.7,10.5-13.3,17.6c-3.4,9.3,2,18.8,10.8,20.2
			c4.2,0.7,7.7,1.7,11.1,4.4c4.3,3.5,7.7,3.2,12.6,4.7c4.3,1.4,7.3,4.3,11.9,4.6c3.8,0.2,8.8,0,12.3-1.6c-5.2,6.3-19.4,1.2-25.4-0.6
			c-7.9-2.4-15.4-2.7-23.4-3.2c-11.9-0.8-19.1-19.1-14.7-30c2.9-7.2,9.2-12.1,14.8-17c3.3-3,6.4-5.2,10.4-6.9
			c4.5-1.9,10.1-1.8,13.6-5.7L81.4,41z"/>
	</g>
</g>
<path class="st16" d="M-49.3,84.9c0-9.3-20.3-16.8-45.4-16.8s-45.4,7.5-45.4,16.8s20.3,44.4,45.4,44.4S-49.3,94.2-49.3,84.9z"/>
<path class="st17" d="M-49.3,84.5c0-9-20.3-16.3-45.4-16.3s-45.4,7.3-45.4,16.3s20.3,43.2,45.4,43.2S-49.3,93.5-49.3,84.5z"/>
<path class="st18" d="M-135,78.1c-2.8,3.7-4,7.7-3,11.4c2.4,9,23.9,39.6,39,35.5s18.2-41.3,15.8-50.3c-0.5-1.7-1.4-3.2-2.6-4.6
	c-3.2-0.3-6.5-0.4-9.9-0.4C-112.5,69.8-127.1,73.1-135,78.1z"/>
<ellipse class="st19" cx="-94.7" cy="84.9" rx="45.4" ry="16.8"/>
<path class="st20" d="M-94.7,99.1c-23.1,0-42.6-6.7-42.6-14.7s19.5-14.7,42.6-14.7s42.6,6.7,42.6,14.7
	C-52.1,92.4-71.6,99.1-94.7,99.1z"/>
<path class="st21" d="M-94.7,99.1c16.9,0,31.9-3.6,38.7-8.7c-1.4-6.8-18.6-12.5-38.7-12.5s-37.3,5.6-38.7,12.5
	C-126.6,95.5-111.6,99.1-94.7,99.1z"/>
<linearGradient id="SVGID_1_" gradientUnits="userSpaceOnUse" x1="-105.7138" y1="122.0177" x2="-73.3794" y2="85.9412" gradientTransform="matrix(1 0 0 -1 0 200)">
	<stop  offset="0" style="stop-color:#FFFFFF"/>
	<stop  offset="1" style="stop-color:#020203"/>
</linearGradient>
<path class="st22" d="M-127.1,93.8c7.9,3.2,19.6,5.3,32.4,5.3c15.5,0,29.3-3,36.8-7.4c-5-6.1-18.5-10.6-33.9-10.6
	C-109,81.1-123.8,86.7-127.1,93.8z"/>
<path class="st23" d="M-133.4,92.1c-0.4,1.1,4.1,3.5,10,5.3c5.9,1.8,10.9,2.4,11.2,1.3c0.3-1.1-4.8-1.5-10.6-3.3
	C-128.6,93.6-133,91-133.4,92.1z"/>
<path class="st23" d="M-122.2,105.1c-1.6-2.3-3.3-3.8-4-3.3c-0.7,0.4,0,2.7,1.6,5c1.6,2.3,3.3,3.8,4,3.3
	C-119.9,109.7-120.7,107.4-122.2,105.1z"/>
<path class="st23" d="M-117.2,112.8c-0.9-0.8-1.9-1-2.3-0.6c-0.3,0.4,0.1,1.3,1.1,2.1c0.9,0.8,1.9,1,2.3,0.6
	C-115.9,114.4-116.3,113.5-117.2,112.8z"/>
</svg>
