<?xml version="1.0" encoding="utf-8"?>
<!-- Generator: Adobe Illustrator 25.0.0, SVG Export Plug-In . SVG Version: 6.00 Build 0)  -->
<svg version="1.1" id="Layer_1" xmlns="http://www.w3.org/2000/svg" xmlns:xlink="http://www.w3.org/1999/xlink" x="0px" y="0px"
	 viewBox="0 0 200 200" style="enable-background:new 0 0 200 200;" xml:space="preserve">
<style type="text/css">
	.st0{opacity:0.3;fill:#ABB4B9;enable-background:new    ;}
	.st1{fill:#F29F2A;}
	.st2{fill:#FFE084;}
	.st3{fill:#E25F10;}
	.st4{fill:#B72B18;}
	.st5{fill:#DABF70;}
	.st6{fill:#FDF4DC;}
	.st7{fill:#402D1C;}
	.st8{opacity:0.5;fill:#F2DDC7;enable-background:new    ;}
	.st9{fill:#F2DDC7;}
	.st10{fill:#4C712B;}
	.st11{fill:#7EB029;}
</style>
<g>
	<path class="st0" d="M180.8,113.9c1-24.6-38.2-47.2-87.8-50.6C43.4,60,2.2,77.3,1.1,102c-1.2,24.6,38.1,47.3,87.8,50.7
		c15.5,1,30.2,0.1,43.2-2.5c6.2,2,13.3,3.4,20.8,3.9c25.5,1.7,46.6-7.2,47.2-19.8C200.4,126.3,192.7,118.8,180.8,113.9z"/>
	<g>
		<path class="st1" d="M156,68.1c-10.4-11.2-28.5-14.4-43-15.9C82,49.1-11.9,46.5,1.9,100c7.3,28.3,45.2,38,70.1,40.8
			c13.6,1.6,27.4,1.7,40.8-1.5c2.3-0.5,4.7-1.2,7.2-2c1.3,0,2.2-0.9,2.8-2c1-1.6,0.9-3.2,0.1-4.9c-1.9-3.7-6.2-3.5-9.2-1.6
			c-1.7-2.1-3.4-4.2-5-6.4c-4.7-6.2-9-13.2-14.7-18.5c-2.6-2.5-5.2-4.8-7-7.8c0.9,0.1,1.7,0.2,2.5,0c3.9,1.1,8.3,1,12.2,2.5
			c2.8,1.1,6.3,1,9.3,1.2c5.5,0.3,11,2.2,16.3,3.2c8.3,1.6,16.3,4.9,24.6,6.4c3.7,0.7,6.6,1.1,8.7-1.9
			C167.6,94.8,166.4,79.4,156,68.1z M158.5,105.5c-3.2,4-18.1-1.6-22.2-2.9c-6.7-2.1-13.6-3.4-20.5-4.7c-6.2-1.1-12.3-1.3-18.5-2.9
			c-2.8-0.7-6.3-1.2-9.3-0.8c-0.1,0-0.2-0.1-0.3-0.1c-0.7-0.2-1.4-0.4-2.1-0.6c0-0.1,0-0.1,0-0.2c-0.4-0.3-0.2-0.9,0.4-1
			c6.3-0.9,14.4,2.5,20.7,3.5c10.1,1.7,20.2,3.3,30.2,5.5c5.1,1.1,10.2,2.4,15.3,3.8c0.9-1.2,2.7-2.1,4-2.1c1.1-0.1,2.5,0.6,3.2,1.6
			c0.1,0.2,0.2,0.4,0.4,0.6C159.2,105.1,158.8,105.1,158.5,105.5z"/>
		<path class="st2" d="M158.5,102.8C158.5,102.8,158.5,102.8,158.5,102.8c5.5-12,3.7-25.4-5.5-35.3c-10-10.8-27.6-13.9-41.9-15.3
			c-5.2-0.5-15.9-1.4-29-1.4c-22.4,0-62,2.7-76.2,21.1c-5.3,6.9-6.7,15.6-4.1,25.8c7.6,29.5,50.5,37.5,68.6,39.5
			c6.2,0.7,11.8,1,17.2,1l0,0c8.3,0,15.9-0.8,23.1-2.5c1.7-0.4,4.2-1,7.1-1.9c0,0,0,0,0-0.1c0.8-0.2,1.5-0.6,2.4-1
			c1.5-0.6,2.8-1.8,2.2-3.6c-0.6-1.8-2.8-2.1-4.4-2c-1.8,0.1-3.4,0.4-4.8,1.4c-4.4,1.4-8.9,2.4-13.8,2.9c-3.8,0.4-7.8,0.6-11.9,0.6
			c-11.3,0-23.4-1.6-36.2-4.8c-20.4-5.1-33.8-13.2-40.8-24.8C3.5,91.4,6,78.2,16.5,70.7C33.6,58.4,58.3,56.8,78,56.8
			c5.8,0,11.4,0.2,16.7,0.3c10.2,0.3,23.5,1.1,36.7,4.9c10.2,3,17.6,8,21.9,15.1c4.6,7.4,4.4,16.7-0.3,26c-5,0.4-12.5-3-16.9-4.2
			c-6.8-1.9-13.7-3.2-20.7-4.2c-6.9-0.9-13.7-1.8-20.6-2.9c-3.4-0.5-6.3-1.9-9.7-1.4c-3,0.4-1.7,5,1.3,4.5c4.5-0.6,11.4,2.1,15.8,3
			c7.1,1.3,14.4,1.7,21.5,2.9c6.5,1.2,12.9,3.2,19.2,4.9c2.5,0.7,5.2,1.6,7.8,1.8c0.2,0.1,0.4,0.2,0.6,0.3c0.2,0.1,6.5,3.3,8.7-2.1
			C160.3,105,159.7,103,158.5,102.8z"/>
		<path class="st3" d="M148.7,99.5c-1.1,0.9-12-2.6-13.4-2.9c-5.3-0.8-10.5-1.8-15.8-2.4c-6.8-0.8-13.4-2.3-20.2-3.4
			c-4.7-0.8-9.4-2.2-14.1-0.8c-1.5,0.4-1.4,2.4,0,2.9c10.9,3.6,23,5.5,34.3,6.6c7.5,0.7,15.6,2.4,23,4.1c3,0.7,6.1,2.1,9.1,0.8
			C156,102.6,152.4,96.5,148.7,99.5z"/>
		<path class="st3" d="M153.6,79.8c-4.7-7.6-12.5-11.9-20.9-14.4c-11.8-3.4-24-4.5-36.3-4.8C72.3,59.9,39.9,59,19.3,73.8
			c-9.8,7.1-12,19.3-5.6,29.8c8.3,13.6,25,20.3,39.8,24c15.3,3.8,31.7,5.9,47.5,4.1c4.6-0.5,8.9-1.4,12.9-2.7
			c-1.7-2.2-3.4-4.3-5.1-6.5c-4.7-6.2-9-13.2-14.7-18.5c-3.3-3.1-6.6-6-8.3-10.2c-0.1-0.1-0.1-0.2-0.1-0.4c-0.4-0.3-0.2-0.9,0.4-1
			c6.3-0.9,14.4,2.5,20.7,3.5c10.1,1.7,20.2,3.3,30.2,5.5c5,1.1,10.1,2.3,15.1,3.7c0.1-0.1,0.1-0.1,0.2-0.1c0.3-0.3,0.6-0.5,1-0.6
			C157.1,96.7,158.5,87.7,153.6,79.8z"/>
		<g>
			<path class="st4" d="M149.2,88.1c0-1.4-0.4-2.9-0.7-3.9c-0.5-1.8-1.3-3.6-2.2-5.2c-1.6-2.8-5-6.1-8.4-4c-0.2,0.1-0.4,0.3-0.5,0.4
				c-0.2-0.6-0.4-1.3-0.5-2.1c-0.3-3.2-3.3-5.2-6.2-3.8c-1.7-1.3-3.7-2.3-5.3-2.6c-1.9-0.4-3.9-0.2-5.5,0.9
				c-0.3,0.2-0.5,0.4-0.7,0.7c-1-0.6-2.2-0.9-3.3-0.5c-1,0.4-6.3,3-6.8,0.6c-0.8-3.4-4.9-3.9-7.2-1.9c-0.2,0.2-0.5,0.3-0.7,0.4
				c-0.1-0.1-0.1-0.1-0.2-0.2c-0.3-0.3-0.5-0.4-0.6-0.5c0-0.1-0.1-0.2-0.2-0.5c-0.1-0.6-0.2-1.1-0.3-1.7c-0.5-2.5-3.7-2.9-5.3-1.4
				c-1,0.9-2.1,2-2.5,3.4c-6.4-5.8-17.3-4.6-26.2-3c-1.9,0-3.8,0.4-5.6,1.1c-0.1,0-0.1,0-0.1,0c0,0,0,0,0,0
				c-0.3,0.1-0.5,0.2-0.8,0.3c-1,0.5-1.5,1.2-1.6,2.1c-4.1-0.7-7.7-0.4-11.8,0.5c-0.9-1-2.4-1.5-4-0.8c-1.1,0.4-2.1,0.9-2.9,1.7
				c-1.3,1-1.6,2.3-1.4,3.4c-0.6,0.5-1.3,1-2,1.3c-0.2,0.1-0.5,0.2-0.7,0.3c-2.1,0.9-4.5,1.3-7.1,1.4c-0.5,0-1.1,0.2-1.6,0.5
				c-0.8-0.2-1.6-0.2-2.4,0.3c-3.3,1.9-5.7,4-8.2,7c-1.6,1.9-1.4,4.1-0.2,5.5c-4.7,3.1-2.1,10.9-0.4,15.2c0.7,1.9,2.4,3,4.4,2.5
				c1.3-0.3,2.6-0.3,3.8-0.1c0.7,1.4,1.8,2.7,3,3.4c1.6,0.9,3.4,1.4,5.2,1.6c-0.8,0.3-1.4,0.8-2,1.4c-1.5,1.5-0.5,4.4,1.8,4.2
				c0.2,0,0.3,0,0.5,0H32c0.1,0,0.1,0,0.2,0c0.7,0.1,1.4,0.1,2.1,0.1c0.8-0.1,1.8-0.2,2.5-0.6c0.3-0.2,0.6-0.4,0.8-0.7
				c3.3,3,6.7,5.7,10.2,6.8c2.1,0.7,4.6,0,6.7-0.4c3.8-0.7,5.3,1.6,8.8,3c4.4,1.8,12.8-3.1,15.4-0.1c1,1.2,3.2,1.4,4.5,0.5
				c0.1,0.2,0.3,0.4,0.6,0.5c2.6,1,4.8,3.1,7.6,3.7c2.1,0.5,3.7-1.4,3.7-3.1c0.4-0.2,0.7-0.4,1-0.7c0.2-0.3,1.1-1.3,0.4-0.5
				c0.1-0.1,0.2-0.2,0.2-0.3c0.3-0.2,0.6-0.5,0.7-1c0-0.1,0.1-0.3,0.1-0.4c0.2,0.1,0.3,0.1,0.5,0.1c1.7,0.5,3.4,0.5,4.9,0.1
				c0.1,0.6,0.3,1.2,0.6,1.6c0.6,0.8,1.4,1,2.3,0.6c0.2-0.1,0.4-0.2,0.5-0.3c0.1-0.1,0.4-0.3,0.6-0.4c0.2-0.1,0.4-0.3,0.6-0.4
				c0.2,0,0.4,0,0.9-0.1c-1.3,0.2,0.1,0,0.5-0.1c0.4-0.1,0.7-0.3,1-0.4c-0.4-0.5-0.8-1-1.2-1.5c-3.8-5.1-7.4-10.6-11.7-15.4
				c-1.2,1.9-0.7,3.8,0.6,5c-0.3,0.1-0.7,0.2-1,0.3c-0.7-1.3-1.1-2.8-1.7-4.1c-1.1-2.3-4.2-4-6.7-3.9c-2,0.1-3.9,0.4-5.7,1
				c-0.2-0.6-0.6-1.1-1-1.5c0.2-0.1,0.4-0.2,0.6-0.4c0.3,0.4,0.8,0.8,1.3,1c1,0.3,1.8,0.2,2.8,0c0.2,0,0.4-0.1,0.6-0.2
				c0.1,0,0.2-0.1,0.5-0.2c0.7-0.5,1-1,1.1-1.8c0.1-0.9-0.5-1.8-1.1-2.3c0.5-0.4,1-0.9,1.4-1.4c-1.1-1.4-2.2-2.9-2.9-4.7
				c-0.1-0.1-0.1-0.2-0.1-0.4c-0.4-0.3-0.2-0.9,0.4-1c6.3-0.9,14.4,2.5,20.7,3.5c1.7,0.3,3.5,0.6,5.2,0.9c0.4-2.4,0-4.5-1.6-6.3
				c2.8,0.8,5.8,1.6,8.5,2.8c0.4,0.3,0.8,0.5,1.3,0.6c1,0.5,1.9,1.1,2.8,1.7c-1,0.8-1.9,1.6-3,2.4c0,0,0,0-0.1,0.1
				c5.7,1,11.4,2,17,3.2c3.2,0.7,6.5,1.5,9.7,2.3c3.2-2.7,5.7-6.2,7.5-9.9C155.5,90.5,152.2,86.7,149.2,88.1z M23.6,97.8
				c-0.2,0.2-0.3,0.4-0.4,0.7c-0.7-0.1-1.5-0.1-2.2-0.1c0-0.1-0.1-0.2-0.1-0.2c-0.6-1.4-3.3-4.2-0.4-3c1.5,0.7,3.2,0.8,4.9,0.8
				C24.8,96.5,24.2,97.1,23.6,97.8z M28.6,88.7c-1.1,0.1-2.3,0.2-3.5,0.1c1.8-0.6,3.6-1.5,5.3-2.4C29.8,87.2,29.2,87.9,28.6,88.7z
				 M75.3,74.1c0.5,0.5,1,1.2,1.4,1.9c-1.1,1-2.1,2.1-3.1,3.1c-2.5-1.7-5.3-3.1-8.2-4.3C68.7,74.5,72,74.1,75.3,74.1z M58.2,84.8
				c0,0,0-0.1,0.1-0.1c0.1-0.2,0.2-0.4,0.2-0.6c0.9,0.9,1.5,1.8,1.6,2.9c-0.6-0.3-1.2-0.6-1.9-0.7c-0.5-0.1-1-0.1-1.5-0.1
				C57.4,85.9,57.9,85.4,58.2,84.8z M46.7,79.2c0.9,0.2,1.7,0.4,2.7,0.6c-0.4,1.3,0,2.9,1.5,3.8c0.3,0.2,0.6,0.3,0.9,0.4
				c0.2,0.8,0.7,1.4,1.5,1.9c0.1,0.1,0.3,0.1,0.4,0.2c-2.1,0.1-4.1,0.1-5.5-0.9c-0.4-0.4-0.7-0.7-1.1-1.1c-0.2-0.3-0.4-0.5-0.7-0.8
				c-0.4-0.4-0.8-0.9-1.1-1.4C45.8,81.2,46.3,80.2,46.7,79.2z M38.5,99.8c0.8-2.2,0.3-4.9-1.9-5.8c2.4-0.9,4.6-2.2,6.9-3.5
				c0.8,0.7,1.6,1.3,2.7,1.8c0.3,0.2,0.6,0.5,0.9,0.7c-2,1.6-4,3.3-5.9,4.9C40.2,98.6,39.3,99.2,38.5,99.8z M47.5,114.2
				c-1.7-0.8-3.3-1.8-4.8-2.9c0.4-0.1,0.9-0.2,1.3-0.3l0,0c-0.5,0.1-0.2,0.2,0.2,0.2c0.2,0.2,0.4,0.4,0.4,0.5c1.8,2.2,4.9,1,6.2-1
				c0.1,0.7,0.4,1.5,0.9,2c1.2,1.3,2.9,1.3,4.1,0.5c0.4,0.2,0.7,0.4,1.1,0.5C53.8,113.6,51.1,115.9,47.5,114.2z M70.6,113.2
				c-2.3-1-3.6-2.1-4.1-3.4c0.4-0.7,0.7-1.5,1-2.4c0.3-0.1,0.6-0.1,1-0.2c-0.6,2,0.2,4.6,2.6,5c0.3,0,0.5,0.1,0.8,0.1
				C71.4,112.7,71.1,113,70.6,113.2z M60.6,100.1c-3.3,0.7-8.4,3.4-8.4,7.4c-0.1,0.1-0.2,0.2-0.3,0.3c-0.2,0.2-0.4,0.3-0.5,0.5
				c-0.1-0.5-0.3-1-0.6-1.5c-1-1.3-2.2-2.2-3.5-2.7c4.3-3.5,10-8.2,10.5-7.3c1.3,2.1,5,3.2,6.8,0.9c2.8-3.7,4.1-7,4.2-9.9
				c0.1,0.1,0.2,0.2,0.4,0.3c0.1,0,0.1,0.1,0.2,0.1c0,0.5,0,0.9,0.1,1.4c0.8,5,4.1,6.2,8.2,5.9C72.7,98,66.9,98.8,60.6,100.1z
				 M81.6,115.7c0.6-0.6,1.2-1,1.8-1.3l0,0c-0.7,1-1.5,1.9-2.4,2.7c-0.2-0.1-0.4-0.2-0.6-0.3C80.7,116.4,81.2,116,81.6,115.7z
				 M89.9,83.7c-2.4,0.4-4.6,1.2-6.9,2c1.1-1.4,1.8-3.3,1.7-5.5c1-0.9,2-1.9,3-2.8c0.1,0.4,0.1,0.8,0.2,1.1c0.3,1.6,1.8,2.8,3.4,3.1
				c0.1,0.7,0.2,1.4,0.3,2C91,83.6,90.5,83.6,89.9,83.7z M104.8,87.7c-1.1-0.1-2.1-0.5-3-1.2c0.4-0.5,0.7-1.1,0.8-1.7
				c0.2,0.2,0.4,0.4,0.7,0.5c0.3,0.1,0.5,0.2,0.8,0.3C104.2,86.4,104.4,87.1,104.8,87.7C104.8,87.7,104.8,87.7,104.8,87.7z
				 M106.1,79.8c0,0-0.1-0.1-0.1-0.1c-0.9-0.9-2.3-0.9-3.3-0.1c-0.8,0.5-1.2,1.4-1.2,2.3c-0.2-0.2-0.4-0.5-0.8-0.7
				c-0.1-0.1-0.3-0.1-0.4-0.2c-0.1-1.2-0.2-2.4-0.2-3.8c0-0.5-0.1-0.9-0.2-1.3c0.5,0,0.9,0,1.3-0.1c0.7-0.1,1.3-0.2,1.9-0.4
				c1.2,1.2,2.6,1.9,4.3,2.2C107,78.4,106.5,79.1,106.1,79.8z M124.4,85c-0.4,0.4-0.7,0.9-1,1.4c-1-0.5-2-0.9-3-1.3
				c0.7-0.4,1.4-0.7,2.1-1.1c0.7,0.2,1.4,0.5,2,0.8C124.5,84.9,124.5,84.9,124.4,85z M121.1,75.1c0.1-1,0.2-1.9,0.3-2.9
				c0,0,0,0,0-0.1c1.1-0.1,2.3,0.2,3.4,0.8C123.5,73.6,122.3,74.3,121.1,75.1z M128.9,89c0.1-0.2,0.2-0.5,0.2-0.8
				c0.1-0.4,0.1-0.7,0.1-1.1c0.6,0.3,1.1,0.6,1.6,0.9C130.1,88,129.4,88.4,128.9,89z M135.6,98.8c0.2-1.8-0.8-3.6-2.5-4.3
				c0.3-0.3,0.5-0.6,0.6-1.1c0.4-1.3,0.2-2.8-0.4-4c3.2,1.9,6,3.6,7.6,4.3c0.3,0.1,0.6,0.2,0.9,0.3C139.8,95.5,137.6,97,135.6,98.8z
				"/>
		</g>
		<g>
			<path class="st5" d="M124.4,72.1c0.3,1.8-3.4,3.9-8.1,4.6s-8.8-0.2-9.1-2.1c-0.3-1.8,3.4-3.9,8.1-4.6
				C120,69.3,124.1,70.2,124.4,72.1z"/>
			<path class="st6" d="M107.2,74.4c1.7,0.7,4.4,0.9,7.5,0.5c4.6-0.7,8.1-2.6,8.1-4.4c-1.7-0.7-4.4-0.9-7.5-0.5
				C110.7,70.7,107.2,72.6,107.2,74.4z"/>
		</g>
		<g>
			<path class="st5" d="M66.1,72.5C66,74,62.8,75.2,58.8,75c-4-0.1-7.1-1.5-7.1-3c0.1-1.5,3.3-2.7,7.3-2.5
				C63,69.6,66.2,71,66.1,72.5z"/>
			<path class="st6" d="M51.8,71.8c1.2,0.8,3.4,1.4,6,1.5c3.8,0.1,6.9-0.9,7.2-2.3c-1.2-0.8-3.4-1.4-6-1.5
				C55.3,69.3,52.1,70.3,51.8,71.8z"/>
		</g>
		<g>
			<path class="st5" d="M61.6,109.5c-0.1,1.6-3.4,2.7-7.4,2.5c-4-0.2-7.2-1.6-7.1-3.2c0.1-1.6,3.4-2.7,7.4-2.5
				C58.4,106.5,61.6,107.9,61.6,109.5z"/>
			<path class="st6" d="M47.1,108.6c1.2,0.9,3.5,1.5,6.1,1.6c3.9,0.2,7-0.8,7.4-2.3c-1.2-0.9-3.5-1.5-6.1-1.6
				C50.6,106.1,47.4,107.2,47.1,108.6z"/>
		</g>
		<g>
			<path class="st5" d="M32.6,90.6c0,1.7-3.6,3.1-8,3.2c-4.4,0-8.1-1.3-8.1-3.1c0-1.7,3.6-3.1,8-3.2C29,87.5,32.6,88.9,32.6,90.6z"
				/>
			<path class="st6" d="M16.6,90.6c1.4,0.9,3.9,1.4,6.8,1.4c4.3,0,7.7-1.4,8-3c-1.4-0.9-3.9-1.4-6.8-1.4
				C20.3,87.6,16.9,88.9,16.6,90.6z"/>
		</g>
		<g>
			<path class="st5" d="M43,77.1c0.3,2-3.5,4.2-8.5,5.1c-5,0.8-9.4-0.1-9.7-2c-0.3-2,3.5-4.2,8.5-5.1C38.4,74.3,42.7,75.2,43,77.1z"
				/>
			<path class="st6" d="M24.8,79.9c1.8,0.7,4.7,0.9,8,0.4c4.8-0.8,8.5-2.9,8.5-4.8c-1.8-0.7-4.7-0.9-8-0.4
				C28.5,75.9,24.8,78,24.8,79.9z"/>
		</g>
		<g>
			<path class="st5" d="M61,90.3c0.1,1.6-3.2,3-7.3,3.2c-4.1,0.2-7.4-1-7.5-2.5c-0.1-1.6,3.2-3,7.3-3.2C57.5,87.5,60.9,88.7,61,90.3
				z"/>
			<path class="st6" d="M46.2,90.7c1.3,0.7,3.6,1.2,6.3,1.1c3.9-0.2,7-1.5,7.2-3c-1.3-0.7-3.6-1.2-6.3-1.1
				C49.5,87.9,46.4,89.2,46.2,90.7z"/>
		</g>
		<g>
			<path class="st5" d="M86.6,105.8c0,1.9-4,3.5-9,3.5c-5,0-9-1.6-9-3.5c0-1.9,4-3.5,9-3.5C82.6,102.3,86.6,103.9,86.6,105.8z"/>
			<path class="st6" d="M68.6,105.6c1.6,1,4.4,1.6,7.6,1.6c4.8,0,8.7-1.4,9-3.3c-1.6-1-4.4-1.6-7.6-1.6
				C72.8,102.3,68.9,103.7,68.6,105.6z"/>
		</g>
		<g>
			<path class="st5" d="M118.4,89.7c0.3,1.9-3.4,4-8.3,4.7c-4.9,0.7-9-0.3-9.3-2.1c-0.3-1.9,3.4-4,8.3-4.7
				C113.9,86.9,118.1,87.8,118.4,89.7z"/>
			<path class="st6" d="M100.8,92.1c1.7,0.7,4.5,1,7.6,0.5c4.7-0.7,8.2-2.6,8.3-4.5c-1.7-0.7-4.5-1-7.6-0.5
				C104.4,88.3,100.9,90.2,100.8,92.1z"/>
		</g>
		<g>
			<path class="st5" d="M146,81c0.2,1.5-2.8,3.1-6.7,3.5s-7.1-0.4-7.3-1.9c-0.2-1.5,2.8-3.1,6.7-3.5C142.6,78.6,145.8,79.5,146,81z"
				/>
			<path class="st6" d="M132.1,82.4c1.3,0.6,3.6,0.9,6,0.6c3.7-0.4,6.6-1.9,6.7-3.3c-1.3-0.6-3.5-0.9-6-0.6
				C135,79.5,132.1,81,132.1,82.4z"/>
		</g>
		<g>
			<path class="st5" d="M96.6,87.7c0.1,1.5-2.9,2.9-6.7,3.2c-3.8,0.3-7-0.6-7.1-2.1c-0.1-1.5,2.9-2.9,6.7-3.2
				C93.3,85.3,96.4,86.2,96.6,87.7z"/>
			<path class="st6" d="M82.8,88.7c1.3,0.6,3.5,1,5.9,0.8c3.7-0.3,6.5-1.6,6.6-3.1c-1.3-0.6-3.5-1-5.9-0.8
				C85.8,85.9,82.9,87.2,82.8,88.7z"/>
		</g>
		<g>
			<path class="st5" d="M103.3,120.5c-0.3,1.8-4.4,2.7-9.1,2c-4.8-0.8-8.4-2.9-8.1-4.7c0.3-1.8,4.4-2.7,9.1-2
				S103.6,118.6,103.3,120.5z"/>
			<path class="st6" d="M86.2,117.5c1.4,1.2,3.9,2.2,7,2.7c4.6,0.7,8.5-0.1,9-1.7c-1.4-1.2-3.9-2.2-7-2.7
				C90.7,115,86.8,115.8,86.2,117.5z"/>
		</g>
		<g>
			<path class="st5" d="M141.7,93.9c0.2,1.8-3.4,3.5-8,3.9c-4.6,0.4-8.4-0.7-8.6-2.5c-0.2-1.8,3.4-3.5,8-3.9
				C137.8,91,141.6,92.1,141.7,93.9z"/>
			<path class="st6" d="M125.2,95.1c1.5,0.8,4.2,1.1,7.1,0.9c4.4-0.4,7.8-2,8-3.7c-1.5-0.8-4.2-1.1-7.1-0.9
				C128.8,91.8,125.3,93.4,125.2,95.1z"/>
		</g>
		<g>
			<path class="st7" d="M85,70c0,2.9-3.3,5.2-7.4,5.2c-4.1,0-7.4-2.3-7.4-5.2s3.3-5.2,7.4-5.2C81.6,64.8,85,67.1,85,70z"/>
			<path class="st8" d="M78.6,67.9c-0.1-0.2-0.1-0.5-0.2-0.7c-0.1-0.5-0.3-1-0.4-1.6c-0.1,0-0.2,0-0.4,0c-1.9,0-3.7,0.6-4.8,1.6
				c0.8,0.6,1.6,1.1,2.4,1.7C76.2,68.2,77.4,67.8,78.6,67.9z"/>
			<path class="st8" d="M72.7,71.7c0.3-0.6,0.6-1.1,1-1.6c-0.6-0.6-1.3-1.2-1.9-1.8c-0.3,0.5-0.5,1.1-0.5,1.7c0,0.4,0.1,0.8,0.3,1.2
				C71.9,71.4,72.2,71.5,72.7,71.7C72.6,71.7,72.6,71.7,72.7,71.7z"/>
			<path class="st9" d="M78.2,66.3c-0.1-0.2-0.1-0.5-0.2-0.7c-0.1,0-0.2,0-0.4,0c-1.9,0-3.7,0.6-4.8,1.6c0.4,0.3,0.7,0.5,1.1,0.8
				C75,66.9,76.6,66.2,78.2,66.3z"/>
			<path class="st9" d="M71.7,71.3c0.3-0.8,0.6-1.5,1-2c0,0,0,0,0.1-0.1c-0.3-0.3-0.6-0.6-0.9-0.9c-0.3,0.5-0.5,1.1-0.5,1.7
				c0,0.4,0.1,0.8,0.3,1.2C71.6,71.2,71.6,71.3,71.7,71.3z"/>
		</g>
		<g>
			<path class="st7" d="M60.4,80.6c0,2.9-3.3,5.2-7.4,5.2c-4.1,0-7.4-2.3-7.4-5.2s3.3-5.2,7.4-5.2C57.1,75.4,60.4,77.7,60.4,80.6z"
				/>
			<path class="st8" d="M54,78.5c-0.1-0.2-0.1-0.5-0.2-0.7c-0.1-0.5-0.3-1-0.4-1.6c-0.1,0-0.2,0-0.4,0c-1.9,0-3.7,0.6-4.8,1.6
				c0.8,0.6,1.6,1.1,2.4,1.7C51.6,78.8,52.8,78.4,54,78.5z"/>
			<path class="st8" d="M48.1,82.3c0.3-0.6,0.6-1.1,1-1.6c-0.6-0.6-1.3-1.2-1.9-1.8c-0.3,0.5-0.5,1.1-0.5,1.7c0,0.4,0.1,0.8,0.3,1.2
				c0.3,0.1,0.7,0.3,1,0.4C48,82.3,48.1,82.3,48.1,82.3z"/>
			<path class="st9" d="M53.6,76.9c-0.1-0.2-0.1-0.5-0.2-0.7c-0.1,0-0.2,0-0.4,0c-1.9,0-3.7,0.6-4.8,1.6c0.4,0.3,0.7,0.5,1.1,0.8
				C50.4,77.5,52,76.8,53.6,76.9z"/>
			<path class="st9" d="M47.1,81.9c0.3-0.8,0.6-1.5,1-2c0,0,0,0,0.1-0.1c-0.3-0.3-0.6-0.6-0.9-0.9c-0.3,0.5-0.5,1.1-0.5,1.7
				c0,0.4,0.1,0.8,0.3,1.2C47,81.9,47.1,81.9,47.1,81.9z"/>
		</g>
		<g>
			<path class="st7" d="M82.8,94.7c0,2.9-3.3,5.2-7.4,5.2c-4.1,0-7.4-2.3-7.4-5.2c0-2.9,3.3-5.2,7.4-5.2
				C79.5,89.5,82.8,91.8,82.8,94.7z"/>
			<path class="st8" d="M76.4,92.5c-0.1-0.2-0.1-0.4-0.2-0.7c-0.1-0.5-0.3-1-0.4-1.6c-0.1,0-0.2,0-0.4,0c-1.9,0-3.7,0.6-4.8,1.6
				c0.8,0.6,1.6,1.1,2.4,1.7C74.1,92.9,75.2,92.5,76.4,92.5z"/>
			<path class="st8" d="M70.5,96.3c0.3-0.6,0.6-1.1,1-1.6c-0.6-0.6-1.3-1.2-1.9-1.8c-0.3,0.5-0.5,1.1-0.5,1.7c0,0.4,0.1,0.8,0.3,1.2
				c0.3,0.1,0.7,0.3,1,0.4C70.5,96.3,70.5,96.3,70.5,96.3z"/>
			<path class="st9" d="M76,91c-0.1-0.2-0.1-0.5-0.2-0.7c-0.1,0-0.2,0-0.4,0c-1.9,0-3.7,0.6-4.8,1.6c0.4,0.3,0.7,0.5,1.1,0.8
				C72.9,91.5,74.5,90.9,76,91z"/>
			<path class="st9" d="M69.6,95.9c0.3-0.8,0.6-1.5,1-2c0,0,0,0,0.1-0.1c-0.3-0.3-0.6-0.6-0.9-0.9c-0.3,0.5-0.5,1.1-0.5,1.7
				c0,0.4,0.1,0.8,0.3,1.2C69.5,95.9,69.5,95.9,69.6,95.9z"/>
		</g>
		<g>
			<path class="st7" d="M44.7,97.3c0,2.9-3.3,5.2-7.4,5.2s-7.4-2.3-7.4-5.2c0-2.9,3.3-5.2,7.4-5.2C41.4,92.1,44.7,94.4,44.7,97.3z"
				/>
			<path class="st8" d="M38.3,95.1c-0.1-0.2-0.1-0.5-0.2-0.7c-0.1-0.5-0.3-1-0.4-1.6c-0.1,0-0.2,0-0.4,0c-1.9,0-3.7,0.6-4.8,1.6
				c0.8,0.6,1.6,1.1,2.4,1.7C35.9,95.5,37.1,95.1,38.3,95.1z"/>
			<path class="st8" d="M32.4,99c0.3-0.6,0.6-1.1,1-1.6c-0.6-0.6-1.3-1.2-1.9-1.8c-0.3,0.5-0.5,1.1-0.5,1.7c0,0.4,0.1,0.8,0.3,1.2
				c0.3,0.1,0.7,0.3,1,0.4C32.4,98.9,32.4,98.9,32.4,99z"/>
			<path class="st9" d="M37.9,93.6c-0.1-0.2-0.2-0.5-0.2-0.7c-0.1,0-0.2,0-0.4,0c-1.9,0-3.7,0.6-4.8,1.6c0.4,0.3,0.7,0.5,1.1,0.8
				C34.8,94.1,36.4,93.5,37.9,93.6z"/>
			<path class="st9" d="M31.4,98.5c0.3-0.8,0.6-1.5,1-2c0,0,0,0,0.1-0.1c-0.3-0.3-0.6-0.6-0.9-0.9c-0.3,0.5-0.5,1.1-0.5,1.7
				c0,0.4,0.1,0.8,0.3,1.2C31.4,98.5,31.4,98.5,31.4,98.5z"/>
		</g>
		<g>
			<path class="st7" d="M85,118c0,2.9-3.3,5.2-7.4,5.2c-4.1,0-7.4-2.3-7.4-5.2c0-2.9,3.3-5.2,7.4-5.2C81.6,112.8,85,115.1,85,118z"
				/>
			<path class="st8" d="M78.6,115.8c-0.1-0.2-0.1-0.5-0.2-0.7c-0.1-0.5-0.3-1-0.4-1.6c-0.1,0-0.2,0-0.4,0c-1.9,0-3.7,0.6-4.8,1.6
				c0.8,0.6,1.6,1.1,2.4,1.7C76.2,116.2,77.4,115.8,78.6,115.8z"/>
			<path class="st8" d="M72.7,119.7c0.3-0.6,0.6-1.1,1-1.6c-0.6-0.6-1.3-1.2-1.9-1.8c-0.3,0.5-0.5,1.1-0.5,1.7
				c0,0.4,0.1,0.8,0.3,1.2C71.9,119.3,72.2,119.5,72.7,119.7C72.6,119.6,72.6,119.7,72.7,119.7z"/>
			<path class="st9" d="M78.2,114.3c-0.1-0.2-0.1-0.5-0.2-0.7c-0.1,0-0.2,0-0.4,0c-1.9,0-3.7,0.6-4.8,1.6c0.4,0.3,0.7,0.5,1.1,0.8
				C75,114.9,76.6,114.2,78.2,114.3z"/>
			<path class="st9" d="M71.7,119.3c0.3-0.8,0.6-1.5,1-2c0,0,0,0,0.1-0.1c-0.3-0.3-0.6-0.6-0.9-0.9c-0.3,0.5-0.5,1.1-0.5,1.7
				c0,0.4,0.1,0.8,0.3,1.2C71.6,119.2,71.6,119.2,71.7,119.3z"/>
		</g>
		<g>
			<path class="st7" d="M109.5,82.3c0,2.5-2.9,4.5-6.4,4.5c-3.5,0-6.4-2-6.4-4.5c0-2.5,2.9-4.5,6.4-4.5
				C106.7,77.8,109.5,79.8,109.5,82.3z"/>
			<path class="st8" d="M104,80.5c-0.1-0.2-0.1-0.4-0.2-0.6c-0.1-0.4-0.2-0.9-0.4-1.3c-0.1,0-0.2,0-0.3,0c-1.7,0-3.2,0.5-4.2,1.4
				c0.7,0.5,1.4,1,2.1,1.5C102,80.8,103,80.4,104,80.5z"/>
			<path class="st8" d="M98.9,83.8c0.2-0.5,0.5-1,0.9-1.4c-0.5-0.5-1.1-1.1-1.7-1.6c-0.3,0.5-0.4,0.9-0.4,1.5c0,0.4,0.1,0.7,0.2,1.1
				C98.3,83.5,98.6,83.6,98.9,83.8C98.9,83.7,98.9,83.8,98.9,83.8z"/>
			<path class="st9" d="M103.7,79.1c-0.1-0.2-0.1-0.4-0.2-0.6c-0.1,0-0.2,0-0.3,0c-1.7,0-3.2,0.5-4.2,1.4c0.3,0.2,0.6,0.4,0.9,0.6
				C101,79.6,102.3,79,103.7,79.1z"/>
			<path class="st9" d="M98.1,83.4c0.2-0.7,0.6-1.3,0.8-1.8c0,0,0,0,0-0.1c-0.3-0.3-0.5-0.5-0.8-0.8c-0.3,0.5-0.4,0.9-0.4,1.5
				c0,0.4,0.1,0.7,0.2,1.1C98,83.4,98,83.4,98.1,83.4z"/>
		</g>
		<g>
			<path class="st7" d="M131.8,77.9c0,2.9-3.3,5.2-7.4,5.2c-4.1,0-7.4-2.3-7.4-5.2c0-2.9,3.3-5.2,7.4-5.2
				C128.5,72.7,131.8,75,131.8,77.9z"/>
			<path class="st8" d="M125.4,75.7c-0.1-0.2-0.1-0.4-0.2-0.7c-0.1-0.5-0.3-1-0.4-1.6c-0.1,0-0.2,0-0.4,0c-1.9,0-3.7,0.6-4.8,1.6
				c0.8,0.6,1.6,1.1,2.4,1.7C123,76.1,124.2,75.6,125.4,75.7z"/>
			<path class="st8" d="M119.5,79.5c0.3-0.6,0.6-1.1,1-1.6c-0.6-0.6-1.3-1.2-1.9-1.8c-0.3,0.5-0.5,1.1-0.5,1.7
				c0,0.4,0.1,0.8,0.3,1.2C118.7,79.2,119.1,79.4,119.5,79.5C119.4,79.5,119.5,79.5,119.5,79.5z"/>
			<path class="st9" d="M125,74.2c-0.1-0.2-0.1-0.5-0.2-0.7c-0.1,0-0.2,0-0.4,0c-1.9,0-3.7,0.6-4.8,1.6c0.4,0.3,0.7,0.5,1.1,0.8
				C121.8,74.7,123.4,74.1,125,74.2z"/>
			<path class="st9" d="M118.5,79.1c0.3-0.8,0.6-1.5,1-2c0,0,0,0,0.1-0.1c-0.3-0.3-0.6-0.6-0.9-0.9c-0.3,0.5-0.5,1.1-0.5,1.7
				c0,0.4,0.1,0.8,0.3,1.2C118.4,79.1,118.5,79.1,118.5,79.1z"/>
		</g>
		<g>
			<path class="st5" d="M43,104c0.2,1.8-3.3,3.7-7.8,4.2c-4.5,0.6-8.4-0.4-8.6-2.1c-0.2-1.8,3.3-3.7,7.8-4.2
				C39,101.3,42.8,102.2,43,104z"/>
			<path class="st6" d="M26.7,105.9c1.6,0.7,4.2,1,7.1,0.6c4.3-0.6,7.7-2.3,7.8-4c-1.6-0.7-4.2-1-7.1-0.6
				C30.1,102.4,26.8,104.2,26.7,105.9z"/>
		</g>
		<g>
			<path class="st5" d="M73.5,123.8c-0.2,1.4-3.3,2.2-7.1,1.8c-3.7-0.5-6.6-2-6.4-3.5s3.3-2.2,7.1-1.8
				C70.8,120.8,73.7,122.4,73.5,123.8z"/>
			<path class="st6" d="M60.1,122c1.1,0.9,3.1,1.6,5.5,1.9c3.6,0.4,6.6-0.3,7-1.6c-1.1-0.9-3.1-1.6-5.5-1.9
				C63.5,119.9,60.5,120.6,60.1,122z"/>
		</g>
		<g>
			<path class="st5" d="M94.2,75.7c0.3,1.9-3.4,4-8.3,4.7c-4.8,0.7-9-0.3-9.3-2.1c-0.3-1.9,3.4-4,8.3-4.7
				C89.8,72.8,94,73.8,94.2,75.7z"/>
			<path class="st6" d="M76.7,78c1.7,0.7,4.5,1,7.6,0.5c4.7-0.7,8.2-2.6,8.2-4.4c-1.7-0.7-4.5-1-7.6-0.5
				C80.3,74.2,76.8,76.2,76.7,78z"/>
		</g>
		<g>
			<path class="st10" d="M112.4,73.2c-0.6-2.3-1.6-4.8-3.9-5.9c-1.2-0.6-2.6-0.7-3.9-0.5c-1.5,0.2-2.8,1.1-4.1,1.6
				c-0.2-0.1-0.4,0-0.5,0.2c0,0,0,0-0.1,0c-0.1-0.1-0.3-0.1-0.4-0.2c-0.2-0.1-0.4-0.1-0.5-0.2c0-0.1,0-0.1,0-0.1
				c-1-2.6-3.4-4-6.1-3.7c-2.6,0.3-6.7,4.6-6.4,4.8c1.6,1.5,4.2,1.6,6.3,1.5c2-0.1,4.2-0.7,5.8-1.9c0.2,0.1,0.4,0.1,0.5,0.2
				c0.2,0.1,0.4,0.1,0.6,0.2c0.1,0,0.2,0,0.4,0c0.2,2.1,1.5,4.1,3.7,4.4c1.5,0.2,3.1-0.1,4.6,0c1.2,0.1,2.5,0.5,3.7,0.1
				C112.3,73.5,112.4,73.4,112.4,73.2z"/>
			<path class="st11" d="M103.1,67c0.2-1.7-0.7-3.5-1.6-5c-0.1-0.2-0.1-0.4-0.1-0.6c-0.1-0.3-0.6-0.4-0.7-0.1
				c-0.7,1.3-1.5,2.5-2,3.9c-0.3,0.9-0.4,2.3,0.3,3c-0.1,0.1-0.1,0.2-0.1,0.3c0,0.1,0,0.1,0,0.1c-1.3-0.4-2.4,1-2.8,2.1
				c-0.5,1.4-0.7,3.1-0.2,4.5c0.1,0.2,0.3,0.3,0.5,0.2c1.6-0.8,3.3-2.1,4.4-3.6c0.4-0.6,0.8-1.3,0.6-2c-0.2-0.6-0.7-0.9-1.3-1.1
				c0,0,0-0.1,0.1-0.1c0,0,0-0.1,0-0.1c0,0,0-0.1,0-0.1c0.2,0,0.3,0,0.5,0C101.8,68.6,103,68.2,103.1,67z"/>
		</g>
		<g>
			<path class="st10" d="M76.1,80.4c-1.2-0.6-2.6-0.7-3.9-0.5c-1.5,0.2-2.8,1.1-4.1,1.6c-0.1,0-0.2,0-0.2,0
				c-0.1,0.2-0.1,0.4-0.2,0.6c0,0.1,0,0.1-0.1,0.1c0,0,0,0,0,0c0.2,2.1,1.5,4.1,3.7,4.4c1.5,0.2,3.1-0.1,4.6,0
				c1.2,0.1,2.5,0.5,3.7,0.1c0.2,0,0.2-0.2,0.2-0.4C79.3,84,78.3,81.5,76.1,80.4z"/>
			<path class="st11" d="M68.6,82.4c-0.6,0.1-1.2-0.1-1.6-0.6c-0.2-0.1-0.3-0.3-0.4-0.5c-0.1,0.1-0.1,0.2-0.1,0.3c0,0,0,0.1,0,0.1
				c-1.3-0.4-2.4,1-2.8,2.1c-0.5,1.4-0.7,3.1-0.2,4.5c0.1,0.2,0.3,0.3,0.5,0.2c1.6-0.8,3.3-2.1,4.4-3.6c0.4-0.6,0.8-1.3,0.6-2
				C69,82.7,68.8,82.5,68.6,82.4z"/>
		</g>
		<g>
			<path class="st10" d="M94.4,106.6c-0.9-0.5-2-0.6-3-0.4c-1.2,0.2-2.2,0.8-3.3,1.3c-0.1,0-0.1,0-0.2,0c0,0.2-0.1,0.3-0.1,0.4
				c0,0,0,0.1-0.1,0.1c0,0,0,0,0,0c0.2,1.7,1.2,3.2,3,3.5c1.2,0.1,2.4-0.1,3.7,0c1,0.1,2,0.4,3,0.1c0.1,0,0.2-0.2,0.2-0.3
				C97,109.5,96.2,107.5,94.4,106.6z"/>
			<path class="st11" d="M88.5,108.2c-0.4,0-0.9-0.1-1.3-0.4c-0.1-0.1-0.2-0.2-0.3-0.4c0,0.1-0.1,0.1-0.1,0.2c0,0,0,0.1,0,0.1
				c-1-0.3-1.9,0.8-2.2,1.7c-0.4,1.1-0.5,2.5-0.1,3.6c0.1,0.2,0.3,0.3,0.4,0.2c1.3-0.7,2.6-1.7,3.5-2.8c0.3-0.5,0.6-1,0.4-1.6
				C88.7,108.5,88.6,108.3,88.5,108.2z"/>
		</g>
		<g>
			<path class="st10" d="M44.4,115.6c-0.4-1.6-1.1-3.2-2.6-4c-0.8-0.4-1.7-0.5-2.6-0.4c-1,0.2-1.9,0.7-2.8,1.1
				c-0.1-0.1-0.3,0-0.3,0.1c0,0,0,0,0,0c-0.1-0.1-0.2-0.1-0.3-0.1c-0.1,0-0.2-0.1-0.4-0.1c0,0,0-0.1,0-0.1c-0.7-1.7-2.3-2.7-4.1-2.5
				c-1.8,0.2-4.5,3.1-4.4,3.2c1.1,1,2.8,1.1,4.2,1c1.3-0.1,2.9-0.4,3.9-1.3c0.1,0.1,0.3,0.1,0.4,0.1c0.1,0,0.3,0.1,0.4,0.1
				c0.1,0,0.2,0,0.2,0c0.2,1.4,1,2.8,2.5,3c1,0.1,2.1-0.1,3.1,0c0.8,0.1,1.7,0.3,2.5,0.1C44.4,115.8,44.5,115.7,44.4,115.6z"/>
			<path class="st11" d="M56.9,103.1c1.6-0.6,2.8-2.3,3.6-3.8c0.2-0.2,0.3-0.3,0.5-0.4c0.3-0.2,0.1-0.7-0.3-0.7
				c-1.5,0-2.9-0.1-4.4,0.1c-1,0.2-2.2,0.7-2.5,1.7c-0.1,0-0.2,0-0.3,0c-0.1,0-0.1,0-0.1,0.1c-0.3-1.3-2-1.6-3.2-1.5
				c-1.5,0.2-3.1,0.9-4.1,2c-0.2,0.2-0.1,0.4,0.1,0.6c1.5,1,3.5,1.9,5.3,2.2c0.7,0.1,1.5,0.1,2-0.5c0.4-0.4,0.4-1.1,0.3-1.6
				c0,0,0.1,0,0.1,0c0,0,0.1,0,0.1,0c0,0,0.1,0,0.1,0c0.1,0.2,0.1,0.3,0.2,0.4C54.8,102.8,55.7,103.6,56.9,103.1z"/>
		</g>
		<g>
			<path class="st10" d="M127.1,95.4c-0.4-1.6-1.1-3.2-2.6-4c-0.8-0.4-1.7-0.5-2.6-0.4c-1,0.2-1.9,0.7-2.8,1.1
				c-0.1-0.1-0.3,0-0.3,0.1c0,0,0,0,0,0c-0.1-0.1-0.2-0.1-0.3-0.1c-0.1,0-0.2-0.1-0.4-0.1c0,0,0-0.1,0-0.1c-0.7-1.7-2.3-2.7-4.1-2.5
				c-1.8,0.2-4.5,3.1-4.4,3.2c1.1,1,2.8,1.1,4.2,1c1.3-0.1,2.9-0.4,3.9-1.3c0.1,0.1,0.3,0.1,0.4,0.1c0.1,0,0.3,0.1,0.4,0.1
				c0.1,0,0.2,0,0.2,0c0.2,1.4,1,2.8,2.5,3c1,0.1,2.1-0.1,3.1,0c0.8,0.1,1.7,0.3,2.5,0.1C127.1,95.6,127.2,95.5,127.1,95.4z"/>
			<path class="st11" d="M138,88.6c1.6-0.6,2.8-2.3,3.6-3.8c0.2-0.2,0.3-0.3,0.5-0.4c0.3-0.2,0.1-0.7-0.3-0.7
				c-1.5,0-2.9-0.1-4.4,0.1c-1,0.2-2.2,0.7-2.5,1.7c-0.1,0-0.2,0-0.3,0c-0.1,0-0.1,0-0.1,0.1c-0.3-1.3-2-1.6-3.2-1.5
				c-1.5,0.2-3.1,0.9-4.1,2c-0.2,0.2-0.1,0.4,0.1,0.6c1.5,1,3.5,1.9,5.3,2.2c0.7,0.1,1.5,0.1,2-0.5c0.4-0.4,0.4-1.1,0.3-1.6
				c0,0,0.1,0,0.1,0c0,0,0.1,0,0.1,0c0,0,0.1,0,0.1,0c0.1,0.2,0.1,0.3,0.2,0.4C136,88.3,136.9,89.1,138,88.6z"/>
		</g>
		<g>
			<path class="st10" d="M47.1,82c-1.2-0.6-2.6-0.7-3.9-0.5c-1.5,0.2-2.8,1.1-4.1,1.6c-0.2-0.1-0.4,0-0.5,0.2c0,0,0,0-0.1,0
				c-0.1-0.1-0.3-0.1-0.4-0.2C38,83.1,37.9,83,37.7,83c-0.1,0.2-0.1,0.4-0.2,0.5c0.1,0,0.1,0.1,0.2,0.1c0.2,0.1,0.4,0.1,0.6,0.2
				c0.1,0,0.2,0,0.4,0.1c0.2,2.1,1.5,4.1,3.7,4.4c1.6,0.2,3.1-0.1,4.6,0c1.2,0.1,2.5,0.5,3.7,0.1c0.2-0.1,0.2-0.2,0.2-0.4
				C50.4,85.6,49.4,83.1,47.1,82z"/>
			<path class="st11" d="M41.7,81.7c0.2-1.7-0.7-3.5-1.6-5c-0.1-0.2-0.1-0.4-0.1-0.6c-0.1-0.3-0.6-0.4-0.7-0.1
				c-0.7,1.3-1.5,2.5-2,3.9c-0.3,0.9-0.4,2.3,0.3,3c-0.1,0.1-0.1,0.2-0.1,0.3c0,0.1,0,0.1,0,0.1c-1.3-0.4-2.4,1-2.8,2.1
				c-0.5,1.4-0.7,3.1-0.2,4.5c0.1,0.2,0.3,0.3,0.5,0.2c1.6-0.8,3.3-2.1,4.4-3.6c0.4-0.6,0.8-1.3,0.6-2c-0.2-0.6-0.7-0.9-1.3-1
				c0,0,0-0.1,0.1-0.1s0-0.1,0-0.1c0,0,0-0.1,0-0.1c0.2,0,0.3,0,0.5,0C40.4,83.3,41.6,83,41.7,81.7z"/>
		</g>
	</g>
	<g>
		<g>
			<path class="st1" d="M192.5,108.2C192.5,108.9,192.6,107.3,192.5,108.2L192.5,108.2z"/>
			<path class="st1" d="M192.5,108.3C192.5,108.3,192.5,108.3,192.5,108.3C192.5,108.3,192.5,108.3,192.5,108.3c0-0.1,0-0.1,0-0.1
				C192.5,108.2,192.5,108.2,192.5,108.3z"/>
			<path class="st1" d="M191.3,105.9c-0.9-0.5-2-0.5-3-0.1c-0.1,0-0.1,0-0.1,0c-1.4-0.1-2.5,0.1-3.7,0.8c-0.4,0.2-0.9,0.5-1.3,0.9
				c-6.9-1.2-13.9-2.3-20.9-2.7c-10.8-0.6-21.7,0-32.5,0c-6.2,0-15-1-21.3,1.4c6.5,10,15.6,17.7,24.4,25.7c3,2.7,5.9,5.6,8.8,8.5
				c-1.6-1.2-3.1-2.7-4.4-3.7c-3.4-2.8-7-5.2-10.5-7.9c-6.3-4.7-10.9-11.3-17.2-15.9c-0.2-0.2-0.6,0-0.5,0.3
				c3.9,8.7,12.5,15.3,19.6,21.4c5,4.4,10.8,11.8,17.8,12.9c0.2,0.1,0.3,0.3,0.5,0.4c0.1,0,0.2,0.1,0.2,0.1c0.8,0.3,1.5,0.3,2,0
				c0,0,0,0,0,0c10.1-3.7,21.6-9.7,29.3-18.1c3.2-2.9,6.1-6.2,8.6-9.8c2.2-3.2,3.7-6.7,4.8-10.2c0.1-0.2,0.3-0.4,0.3-0.6
				c0.1-0.4,0.2-0.7,0.2-1C192.6,107.3,192.2,106.5,191.3,105.9z"/>
		</g>
		<path class="st2" d="M188.1,108.4c0.1-1-0.3-2-1.4-2.3c-0.8-0.2-1.7,0.2-2.4,0.6c-0.7,0.4-1.3,0.9-1.7,1.6
			c-0.2,0.3-0.3,0.7-0.3,1.1c-0.3,0.2-0.5,0.8-0.7,1.1c-0.2,0.3-0.6,0.6-0.8,0.9c-0.3,0.4-0.6,0.8-0.9,1.2c-0.1,0.2-0.1,0.3-0.1,0.5
			c-11.8,12.1-23.2,21.4-37.5,26.6c-1.9-1.2-4.4-3.5-5-4c-3.4-2.5-6.6-5.4-9.9-8.1c-3.2-2.7-6.3-5.6-9.2-8.6
			c-3.1-3.2-7.6-6.6-8.9-10.9c-0.2-0.8-1.6-0.7-1.6,0.1c-0.3,3.6,1.6,6.1,3.9,8.7c4.2,4.7,8.7,9.2,13.4,13.4
			c4.4,3.9,8.8,7.8,13.3,11.6c2.2,1.8,4.5,3.7,7.4,3c0,0,0.1,0,0.1,0c0,0,0.1,0.1,0.1,0.1c7.7-2.7,20.6-8.4,29.4-18
			c3.2-2.9,6-6.1,8.3-9.5c2-2.9,3.4-6,4.5-9.1C188.2,108.4,188.1,108.4,188.1,108.4z"/>
		<path class="st3" d="M162.2,104.9c-10.8-0.6-21.7,0-32.5,0c-5.9,0-14.1-0.9-20.4,1.1c-0.2-0.1-0.5-0.1-0.7,0.1
			c-4.3,2.7,11.9,16.6,13.4,18.1c2.8,2.8,6,5.3,8.8,8.1c2.3,2.4,6.4,8.3,10.4,7.8c0.1,0.1,0.2,0.2,0.3,0.3c15.9-5.2,28-15.7,40-28
			c0.3-0.3,0.6-0.5,0.9-0.7c0.6-1.3,1-2.7,1.5-4C176.7,106.5,169.5,105.3,162.2,104.9z"/>
		<path class="st4" d="M166.9,105.3c-0.8,0.7-1.5,1.4-2.2,2.1c0.1-0.9-0.2-1.7-0.6-2.4c-0.6-0.1-1.2-0.1-1.8-0.1
			c-3.8-0.2-7.6-0.3-11.5-0.3c0.3,0.2,0.7,0.4,1,0.6c-0.9,0.9-1.8,1.8-2.8,2.7c-0.5,0.4-0.8,1-1,1.5c-0.7,0.6-1.3,1.3-1.9,2
			c-0.1-0.1-0.2-0.2-0.3-0.3c0,0-0.1-0.1-0.1-0.1c-0.5-1.1-1.7-1.9-2.7-2.1c-0.9-0.2-1.8,0-2.5,0.5c0.4-1.6,0.5-3.2,0.2-4.6
			c-3.7,0.1-7.4,0.1-11.1,0.1c-6.2,0-15-1-21.3,1.4c2.3,3.6,5,6.9,7.9,10c0.1,0,0.2-0.1,0.4-0.2c0.7-0.5,0.9-1,0.9-1.9
			c0.1-0.9-0.6-1.7-1.3-2.3c0.5-0.5,1-1,1.4-1.5c0.8,0.3,1.6,0.4,2.4,0.1c0.1-0.1,0.2-0.1,0.2-0.1c0.3-0.1,0.6-0.2,0.9-0.3
			c-0.2,0.2-0.4,0.3-0.5,0.5c-1.5,1.7-0.9,4.5,1.1,5.5c1.9,0.9,4.8-0.2,5.1-2.5c0.1-0.4,0.1-0.8,0.1-1.2c0.1-0.8,0-1.1-0.2-0.9
			c0-1.6-1.6-2.8-3.2-2.3c-0.4,0-0.8,0-1.2,0.2c0,0,0.1-0.1,0.1-0.1c1.3-0.8,2.5-1.9,2.8-3.5c0-0.2,0.1-0.5,0.1-0.7
			c0.8,0.5,1.6,0.9,2.5,1.3c0.1,0.1,0.1,0.2,0.2,0.3c0.1,0.1,0.2,0.2,0.4,0.2c0,0,0,0,0,0c0.2,0.2,1.1,0.8,0.4,0.3
			c0.5,0.3,0.8,0.5,1.4,0.7c0.1,0,0.1,0,0.1,0c0,0.2,0,0.3-0.1,0.5c0,0.1,0,0.3,0,0.6c0,0.3,0.1,0.6,0.2,0.8
			c0.1,0.5,0.5,0.9,0.8,1.3c-1,2.6-3.6,5.7-4.5,7.3c-1.2,2.1-0.5,3.9,0.9,5c-0.3,0.1-0.7,0.2-1,0.3c-0.8-1.2-1.3-2.8-2-4
			c-1.3-2.2-4.4-3.7-7-3.4c-0.4,0.1-0.8,0.1-1.2,0.2c5.1,5.5,10.8,10.4,16.4,15.4c1.5,1.4,3,2.8,4.5,4.2c0,0,0,0,0,0
			c0.1-0.1,0.4-0.3,0.5-0.5c0.2-0.1,0.4-0.3,0.6-0.4c0.2,0,0.4,0,0.9-0.2c-1.3,0.3,0.1,0,0.5-0.1c2.5-0.8,2.8-4.2,1-5.7
			c0.6-0.8,1.1-1.5,1.6-2.4c0.8-0.2,1.6-0.5,2.3-0.8c-1.1,3.6,3,6,6.1,4.4c6.1-3.1,10.8-8,15.4-13c1.4-0.5,2.8-1.1,4.2-1.8
			c3.7-2,6.8-5.1,9.2-8.6C175.4,106.3,171.2,105.7,166.9,105.3z"/>
		<g>
			<path class="st5" d="M137.8,118.7c-0.2,1.9-4.2,3-9,2.6c-4.8-0.4-8.5-2.3-8.4-4.1c0.2-1.9,4.2-3,9-2.6
				C134.2,115,138,116.8,137.8,118.7z"/>
			<path class="st6" d="M120.5,117c1.5,1.1,4.1,1.9,7.2,2.2c4.6,0.4,8.4-0.7,8.9-2.4c-1.5-1.1-4.1-1.9-7.2-2.2
				C124.8,114.2,121,115.2,120.5,117z"/>
		</g>
		<g>
			<path class="st5" d="M160.9,109c0.1,1.5-3,2.9-6.8,3.1c-3.9,0.2-7.1-0.8-7.1-2.3c-0.1-1.5,3-2.9,6.8-3.1
				C157.6,106.5,160.8,107.5,160.9,109z"/>
			<path class="st6" d="M146.9,109.7c1.3,0.7,3.5,1,6,0.9c3.7-0.2,6.6-1.5,6.8-3c-1.3-0.7-3.5-1.1-6-0.9
				C150,106.9,147.1,108.3,146.9,109.7z"/>
		</g>
		<g>
			<path class="st5" d="M164.4,122.6c0.3,1.8-3.2,3.8-7.7,4.5c-4.5,0.7-8.4-0.1-8.7-1.9c-0.3-1.8,3.2-3.8,7.7-4.5
				S164.2,120.8,164.4,122.6z"/>
			<path class="st6" d="M148,125c1.6,0.7,4.2,0.8,7.1,0.4c4.4-0.7,7.7-2.6,7.7-4.3c-1.6-0.7-4.2-0.9-7.1-0.4
				C151.4,121.4,148,123.3,148,125z"/>
		</g>
		<g>
			<path class="st7" d="M152.8,114.7c0.2,2.9-2.9,5.4-7,5.7c-4.1,0.3-7.5-1.8-7.7-4.6c-0.2-2.9,2.9-5.4,7-5.7
				C149.1,109.8,152.6,111.9,152.8,114.7z"/>
			<path class="st8" d="M146.3,113c-0.1-0.2-0.2-0.4-0.2-0.7c-0.1-0.5-0.4-1-0.6-1.5c-0.1,0-0.2,0-0.4,0c-1.9,0.1-3.6,0.9-4.7,1.9
				c0.8,0.5,1.7,1,2.5,1.5C143.9,113.6,145.1,113.1,146.3,113z"/>
			<path class="st8" d="M140.7,117.3c0.2-0.6,0.5-1.2,0.9-1.6c-0.7-0.6-1.4-1.1-2.1-1.7c-0.3,0.5-0.4,1.1-0.4,1.7
				c0,0.4,0.2,0.8,0.4,1.2c0.3,0.1,0.7,0.2,1,0.3C140.6,117.3,140.6,117.3,140.7,117.3z"/>
			<path class="st9" d="M145.7,111.5c-0.1-0.2-0.2-0.4-0.3-0.7c-0.1,0-0.2,0-0.4,0c-1.9,0.1-3.6,0.9-4.7,1.9
				c0.4,0.2,0.8,0.4,1.1,0.7C142.6,112.3,144.2,111.5,145.7,111.5z"/>
			<path class="st9" d="M139.6,117c0.2-0.8,0.5-1.6,0.8-2.1c0,0,0,0,0-0.1c-0.3-0.3-0.7-0.5-1-0.8c-0.3,0.5-0.4,1.1-0.4,1.7
				c0,0.4,0.2,0.8,0.4,1.2C139.6,116.9,139.6,116.9,139.6,117z"/>
		</g>
		<g>
			<path class="st7" d="M175.8,113.2c0.2,2.9-2.9,5.4-7,5.7c-4.1,0.3-7.5-1.8-7.7-4.6c-0.2-2.9,2.9-5.4,7-5.7
				C172.1,108.3,175.6,110.4,175.8,113.2z"/>
			<path class="st8" d="M169.3,111.6c-0.1-0.2-0.2-0.4-0.2-0.7c-0.1-0.5-0.4-1-0.6-1.5c-0.1,0-0.2,0-0.4,0c-1.9,0.1-3.6,0.9-4.7,1.9
				c0.8,0.5,1.7,1,2.5,1.5C166.9,112.1,168.1,111.6,169.3,111.6z"/>
			<path class="st8" d="M163.7,115.8c0.2-0.6,0.5-1.2,0.9-1.6c-0.7-0.6-1.4-1.1-2.1-1.7c-0.3,0.5-0.4,1.1-0.4,1.7
				c0,0.4,0.2,0.8,0.4,1.2c0.3,0.1,0.7,0.2,1,0.3C163.6,115.8,163.7,115.8,163.7,115.8z"/>
			<path class="st9" d="M168.8,110.1c-0.1-0.2-0.2-0.4-0.3-0.7c-0.1,0-0.2,0-0.4,0c-1.9,0.1-3.6,0.9-4.7,1.9
				c0.4,0.2,0.7,0.4,1.1,0.7C165.7,110.8,167.2,110.1,168.8,110.1z"/>
			<path class="st9" d="M162.7,115.5c0.2-0.8,0.5-1.6,0.8-2.1c0,0,0,0,0-0.1c-0.3-0.3-0.7-0.5-1-0.8c-0.3,0.5-0.4,1.1-0.4,1.7
				c0,0.4,0.2,0.8,0.4,1.2C162.6,115.5,162.6,115.5,162.7,115.5z"/>
		</g>
		<g>
			<path class="st10" d="M127,103.6c-1.2-0.5-2.6-0.5-3.9-0.2c-1.5,0.3-2.7,1.2-4,1.9c-0.1,0-0.2,0-0.2,0c0,0.2-0.1,0.4-0.1,0.6
				c0,0.1,0,0.1-0.1,0.1c0,0,0,0,0,0c0.4,2.1,1.8,4,4.1,4.1c1.6,0.1,3.1-0.3,4.6-0.3c1.2,0,2.6,0.3,3.7-0.2c0.2-0.1,0.2-0.2,0.2-0.4
				C130.6,107,129.4,104.6,127,103.6z"/>
			<path class="st11" d="M119.8,106.1c-0.6,0.1-1.2,0-1.7-0.4c-0.2-0.1-0.3-0.3-0.4-0.4c0,0.1-0.1,0.2-0.1,0.3c0,0.1,0,0.1,0,0.2
				c-1.3-0.3-2.3,1.2-2.7,2.3c-0.4,1.4-0.5,3.1,0.2,4.5c0.1,0.2,0.3,0.3,0.6,0.2c1.6-0.9,3.2-2.4,4.1-3.9c0.4-0.6,0.7-1.3,0.4-2
				C120.1,106.5,119.9,106.3,119.8,106.1z"/>
		</g>
		<g>
			<path class="st10" d="M147.1,127.7c-0.8-1.1-1.9-1.9-3.1-2.3c-1.4-0.5-2.9-0.4-4.4-0.5c-0.1-0.2-0.4-0.2-0.5-0.1c0,0,0,0-0.1,0
				c-0.1-0.1-0.2-0.2-0.3-0.4c-0.1-0.1-0.2-0.2-0.3-0.3c-0.1,0.1-0.3,0.3-0.4,0.4c0,0,0.1,0.1,0.1,0.1c0.2,0.1,0.3,0.3,0.5,0.4
				c0.1,0.1,0.2,0.1,0.3,0.2c-0.8,2-0.7,4.3,1.2,5.6c1.3,0.9,2.8,1.4,4.1,2.2c1,0.7,2,1.6,3.2,1.9c0.2,0,0.3-0.1,0.4-0.2
				C148.3,132.5,148.6,129.8,147.1,127.7z"/>
			<path class="st11" d="M142.5,124.9c1-1.4,1.1-3.5,0.9-5.1c0.1-0.2,0.1-0.4,0.2-0.6c0.1-0.3-0.3-0.6-0.6-0.4
				c-1.2,0.8-2.5,1.5-3.6,2.5c-0.7,0.7-1.4,1.8-1.1,2.8c-0.1,0.1-0.2,0.1-0.2,0.2c0,0-0.1,0.1-0.1,0.1c-1-0.9-2.6-0.2-3.5,0.5
				c-1.1,1-2.1,2.4-2.3,3.9c0,0.2,0.1,0.4,0.4,0.4c1.8,0,4-0.3,5.6-1.1c0.6-0.3,1.3-0.8,1.5-1.5c0.1-0.6-0.2-1.1-0.6-1.5
				c0,0,0.1,0,0.1-0.1c0,0,0.1-0.1,0.1-0.1c0,0,0-0.1,0.1-0.1c0.2,0.1,0.3,0.2,0.4,0.2C140.6,125.7,141.8,126,142.5,124.9z"/>
		</g>
	</g>
</g>
</svg>
