<?xml version="1.0" encoding="utf-8"?>
<!-- Generator: Adobe Illustrator 25.0.0, SVG Export Plug-In . SVG Version: 6.00 Build 0)  -->
<svg version="1.1" id="Layer_1" xmlns="http://www.w3.org/2000/svg" xmlns:xlink="http://www.w3.org/1999/xlink" x="0px" y="0px"
	 viewBox="0 0 200 200" style="enable-background:new 0 0 200 200;" xml:space="preserve">
<style type="text/css">
	.st0{opacity:0.3;fill:#ABB4B9;}
	.st1{fill:#F29F2A;}
	.st2{fill:#FFE084;}
	.st3{fill:#E25F10;}
	.st4{fill:#B72B18;}
	.st5{fill:#DABF70;}
	.st6{fill:#FDF4DC;}
	.st7{fill:#402D1C;}
	.st8{opacity:0.5;fill:#F2DDC7;}
	.st9{fill:#F2DDC7;}
	.st10{fill:#4C712B;}
	.st11{fill:#7EB029;}
</style>
<g>
	<g>
		<path class="st0" d="M166.73,114.4c9.55-9.51,7.13-27.43-5.41-40.03c-12.55-12.59-30.46-15.09-40.01-5.58
			c-9.55,9.51-7.13,27.43,5.42,40.03C139.27,121.41,157.19,123.91,166.73,114.4z"/>
		<path class="st0" d="M198.68,122.4c5.05-9.58-15.04-12.62-40.84-16.65c-6.95-1.09-33.62,5.66-35.05,16.4
			c-0.29,2.22-0.86,14.59,22.93,25.38C158.47,153.3,196.45,126.66,198.68,122.4z"/>
		<path class="st0" d="M127.14,138.67c4.27-1.53-29.14-36.42-50.75-51.07c-5.82-3.94-16.66,8.56-22.53,17.66
			c-1.21,1.88-7.01,12.83,9.91,32.73C72.83,148.66,122.61,140.29,127.14,138.67z"/>
	</g>
	<g>
		<path class="st1" d="M153.61,68.66c-10.26-11.07-28.03-14.17-42.3-15.61C80.78,49.96-11.72,47.32,1.89,100.01
			c7.21,27.89,44.48,37.4,69.05,40.21c13.44,1.54,26.96,1.63,40.18-1.47c2.24-0.53,4.63-1.19,7.06-1.95
			c1.27,0.01,2.14-0.86,2.79-1.93c0.94-1.57,0.9-3.2,0.08-4.79c-1.87-3.66-6.12-3.47-9.09-1.55c-1.67-2.08-3.33-4.17-4.93-6.31
			c-4.59-6.14-8.91-12.95-14.49-18.25c-2.58-2.45-5.12-4.72-6.94-7.64c0.86,0.12,1.72,0.21,2.48,0c3.87,1.04,8.14,1.01,12,2.48
			c2.8,1.07,6.21,0.97,9.12,1.14c5.39,0.31,10.82,2.12,16.09,3.15c8.18,1.6,16.03,4.78,24.26,6.35c3.6,0.69,6.47,1.13,8.6-1.87
			C165.06,94.89,163.87,79.72,153.61,68.66z M156.04,105.47c-3.12,3.94-17.8-1.61-21.81-2.86c-6.61-2.06-13.38-3.39-20.18-4.61
			c-6.07-1.09-12.16-1.3-18.17-2.82c-2.8-0.71-6.18-1.19-9.18-0.79c-0.11-0.03-0.23-0.06-0.34-0.1c-0.68-0.23-1.37-0.4-2.06-0.58
			c-0.01-0.06-0.04-0.12-0.03-0.18c-0.35-0.31-0.18-0.91,0.35-0.98c6.25-0.85,14.17,2.42,20.36,3.49c9.92,1.7,19.89,3.21,29.73,5.39
			c4.98,1.11,10.03,2.34,15.06,3.71c0.93-1.19,2.7-2.04,3.91-2.09c1.13-0.05,2.48,0.64,3.15,1.57c0.14,0.19,0.24,0.37,0.35,0.55
			C156.77,105.03,156.35,105.07,156.04,105.47z"/>
		<path class="st2" d="M156.05,102.84c-0.01,0-0.02-0.01-0.03-0.01c5.45-11.79,3.65-24.97-5.38-34.72
			c-9.89-10.67-27.22-13.66-41.21-15.07c-5.11-0.52-15.61-1.38-28.56-1.38c-22.01,0-61.04,2.7-75.04,20.79
			c-5.25,6.79-6.6,15.34-3.99,25.42c7.5,29.01,49.76,36.9,67.59,38.94c6.06,0.69,11.59,1.03,16.89,1.03h0
			c8.19,0,15.62-0.81,22.7-2.47c1.72-0.4,4.14-1.03,6.96-1.92c-0.01-0.02-0.03-0.04-0.04-0.05c0.74-0.2,1.46-0.57,2.33-0.94
			c1.46-0.63,2.71-1.78,2.19-3.5c-0.56-1.82-2.78-2.04-4.37-1.93c-1.82,0.12-3.36,0.4-4.72,1.36c-4.29,1.36-8.79,2.35-13.6,2.88
			c-3.78,0.42-7.72,0.62-11.72,0.62c-11.09,0-23.07-1.6-35.61-4.75c-20.11-5.06-33.26-13.03-40.18-24.38
			C3.44,91.6,5.91,78.6,16.27,71.16c16.85-12.1,41.18-13.65,60.5-13.65c5.75,0,11.2,0.15,16.48,0.29c10,0.27,23.15,1.06,36.16,4.83
			c10.06,2.91,17.33,7.92,21.6,14.89c4.49,7.31,4.36,16.4-0.33,25.63c-4.96,0.44-12.27-2.93-16.62-4.12
			c-6.72-1.84-13.46-3.17-20.36-4.12c-6.78-0.93-13.53-1.82-20.29-2.89c-3.32-0.53-6.18-1.86-9.58-1.38
			c-2.96,0.41-1.69,4.89,1.24,4.48c4.41-0.61,11.21,2.09,15.54,2.91c6.99,1.32,14.14,1.64,21.16,2.9c6.4,1.15,12.67,3.13,18.92,4.87
			c2.51,0.7,5.1,1.57,7.68,1.82c0.17,0.12,0.36,0.23,0.59,0.3c0.18,0.06,6.39,3.25,8.56-2.02
			C157.89,105,157.26,103.02,156.05,102.84z"/>
		<path class="st3" d="M146.43,99.52c-1.06,0.85-11.78-2.6-13.23-2.82c-5.2-0.78-10.33-1.82-15.55-2.41
			c-6.73-0.75-13.24-2.22-19.91-3.3c-4.66-0.75-9.3-2.14-13.91-0.78c-1.43,0.42-1.36,2.38,0,2.82c10.72,3.52,22.6,5.41,33.82,6.47
			c7.39,0.7,15.36,2.36,22.61,4.05c2.99,0.7,5.97,2.04,8.97,0.8C153.57,102.55,150.06,96.6,146.43,99.52z"/>
		<path class="st3" d="M151.29,80.12c-4.6-7.5-12.34-11.74-20.62-14.14c-11.66-3.38-23.65-4.44-35.73-4.76
			c-23.75-0.64-55.68-1.51-75.93,13.04c-9.69,6.97-11.86,19-5.56,29.32c8.17,13.38,24.58,19.95,39.14,23.61
			c15.08,3.79,31.19,5.79,46.73,4.08c4.5-0.49,8.73-1.39,12.75-2.63c-1.7-2.12-3.38-4.26-5.01-6.43
			c-4.59-6.14-8.91-12.95-14.49-18.25c-3.25-3.1-6.46-5.88-8.22-10.06c-0.05-0.12-0.06-0.24-0.05-0.36
			c-0.35-0.31-0.18-0.91,0.35-0.98c6.25-0.85,14.17,2.42,20.36,3.49c9.92,1.7,19.89,3.21,29.73,5.39c4.93,1.09,9.92,2.3,14.91,3.64
			c0.05-0.05,0.11-0.09,0.16-0.14c0.3-0.27,0.63-0.45,0.97-0.58C154.69,96.76,156.05,87.88,151.29,80.12z"/>
		<g>
			<path class="st4" d="M146.94,88.3c-0.01-1.35-0.39-2.82-0.67-3.85c-0.48-1.78-1.24-3.53-2.12-5.14c-1.53-2.8-4.93-6.01-8.29-3.95
				c-0.2,0.12-0.36,0.28-0.51,0.43c-0.24-0.64-0.41-1.31-0.48-2.04c-0.31-3.12-3.21-5.12-6.15-3.7c-1.64-1.3-3.64-2.24-5.19-2.59
				c-1.84-0.42-3.83-0.23-5.37,0.9c-0.29,0.21-0.51,0.44-0.71,0.66c-0.99-0.64-2.19-0.92-3.29-0.48c-1,0.41-6.19,2.97-6.74,0.64
				c-0.78-3.36-4.81-3.84-7.13-1.88c-0.21,0.18-0.45,0.32-0.71,0.44c-0.08-0.07-0.14-0.13-0.17-0.16c-0.33-0.3-0.49-0.44-0.57-0.5
				c-0.04-0.07-0.11-0.23-0.18-0.49c-0.14-0.55-0.21-1.12-0.32-1.68c-0.49-2.42-3.6-2.86-5.22-1.38c-1.02,0.93-2.11,1.99-2.45,3.35
				c-6.35-5.69-17.02-4.56-25.84-2.98c-1.88,0.01-3.75,0.35-5.55,1.06c-0.05,0.01-0.09,0.02-0.14,0.03c0,0.01,0.01,0.01,0.01,0.02
				c-0.25,0.1-0.51,0.18-0.76,0.29c-1.02,0.48-1.5,1.23-1.6,2.04c-4.04-0.71-7.57-0.43-11.57,0.45c-0.85-1.01-2.37-1.46-3.92-0.76
				c-1.07,0.36-2.02,0.93-2.85,1.71c-1.26,0.94-1.6,2.25-1.33,3.38c-0.61,0.51-1.26,0.95-1.95,1.31c-0.24,0.08-0.47,0.19-0.69,0.31
				c-2.07,0.9-4.43,1.29-7,1.4c-0.53,0.02-1.07,0.21-1.55,0.5c-0.77-0.22-1.62-0.16-2.41,0.31c-3.22,1.9-5.64,3.98-8.03,6.85
				c-1.54,1.85-1.39,3.99-0.15,5.42c-4.58,3.01-2.02,10.71-0.39,14.93c0.73,1.89,2.32,2.91,4.36,2.48c1.3-0.27,2.56-0.27,3.79-0.05
				c0.7,1.42,1.75,2.64,3,3.35c1.6,0.9,3.32,1.38,5.08,1.56c-0.74,0.34-1.42,0.81-1.99,1.39c-1.43,1.45-0.46,4.3,1.73,4.17
				c0.16-0.01,0.32-0.02,0.49-0.01h0.12c0.05,0.01,0.1,0.02,0.19,0.04c0.71,0.12,1.36,0.14,2.07,0.09c0.8-0.06,1.76-0.2,2.48-0.61
				c0.31-0.18,0.57-0.44,0.8-0.73c3.28,2.91,6.56,5.64,10.02,6.72c2.07,0.65,4.52,0.03,6.57-0.36c3.74-0.7,5.23,1.55,8.64,2.98
				c4.35,1.82,12.63-3.08,15.18-0.12c1.03,1.19,3.11,1.34,4.41,0.46c0.14,0.21,0.33,0.39,0.6,0.5c2.6,1,4.74,3.03,7.5,3.64
				c2.02,0.45,3.64-1.34,3.6-3.03c0.36-0.15,0.69-0.38,0.95-0.7c0.22-0.27,1.11-1.24,0.41-0.49c0.09-0.1,0.15-0.19,0.22-0.28
				c0.34-0.22,0.62-0.48,0.73-0.95c0.03-0.13,0.06-0.25,0.09-0.38c0.15,0.05,0.3,0.1,0.45,0.14c1.68,0.46,3.3,0.46,4.82,0.14
				c0.09,0.58,0.29,1.14,0.63,1.62c0.56,0.81,1.4,0.99,2.28,0.59c0.18-0.07,0.36-0.16,0.53-0.26c0.11-0.06,0.42-0.29,0.57-0.41
				c0.19-0.13,0.38-0.25,0.57-0.37c0.21,0,0.39,0,0.86-0.08c-1.3,0.23,0.09,0.01,0.52-0.09c0.38-0.09,0.7-0.25,0.99-0.44
				c-0.38-0.5-0.77-1-1.15-1.5c-3.75-5.02-7.33-10.47-11.56-15.19c-1.2,1.91-0.68,3.71,0.6,4.88c-0.34,0.08-0.68,0.17-1.02,0.25
				c-0.69-1.25-1.1-2.8-1.72-4.05c-1.11-2.24-4.11-3.97-6.59-3.87c-2.01,0.08-3.85,0.37-5.6,0.94c-0.19-0.6-0.55-1.1-1.02-1.49
				c0.21-0.11,0.4-0.23,0.61-0.35c0.32,0.4,0.74,0.74,1.32,0.94c0.95,0.32,1.79,0.18,2.76,0.02c0.19-0.04,0.37-0.13,0.55-0.21
				c0.08-0.03,0.21-0.09,0.45-0.19c0.69-0.46,0.96-0.96,1.06-1.77c0.12-0.91-0.45-1.73-1.13-2.31c0.49-0.43,0.96-0.87,1.42-1.33
				c-1.13-1.37-2.12-2.86-2.85-4.59c-0.05-0.12-0.06-0.24-0.05-0.36c-0.35-0.31-0.18-0.91,0.35-0.98
				c6.25-0.85,14.17,2.42,20.36,3.49c1.72,0.29,3.44,0.58,5.16,0.87c0.35-2.32,0.01-4.48-1.53-6.16c2.78,0.83,5.7,1.57,8.35,2.71
				c0.36,0.31,0.82,0.49,1.29,0.6c0.96,0.49,1.88,1.05,2.71,1.72c-0.96,0.79-1.9,1.61-2.92,2.4c-0.02,0.02-0.04,0.04-0.06,0.06
				c5.59,0.95,11.18,1.97,16.73,3.2c3.18,0.7,6.38,1.47,9.59,2.27c3.13-2.68,5.65-6.12,7.34-9.78
				C153.14,90.71,149.86,86.99,146.94,88.3z M23.28,97.89c-0.16,0.22-0.31,0.44-0.44,0.68c-0.71-0.08-1.44-0.11-2.2-0.09
				c-0.03-0.07-0.06-0.15-0.09-0.22c-0.57-1.41-3.28-4.17-0.43-2.92c1.51,0.67,3.18,0.8,4.84,0.76
				C24.39,96.61,23.82,97.18,23.28,97.89z M28.21,88.93c-1.13,0.12-2.29,0.19-3.42,0.1c1.81-0.61,3.54-1.46,5.25-2.35
				C29.39,87.4,28.77,88.15,28.21,88.93z M74.13,74.54c0.48,0.48,0.95,1.14,1.35,1.9c-1.05,1-2.08,2.03-3.01,3.1
				c-2.42-1.71-5.2-3.08-8.03-4.27C67.68,74.89,70.92,74.57,74.13,74.54z M57.34,85.03c0.02-0.04,0.04-0.09,0.06-0.13
				c0.1-0.19,0.17-0.39,0.23-0.59c0.88,0.84,1.47,1.79,1.61,2.89c-0.55-0.33-1.16-0.57-1.83-0.68c-0.47-0.08-0.98-0.1-1.52-0.11
				C56.51,86.12,57.03,85.66,57.34,85.03z M46.03,79.58c0.84,0.18,1.72,0.39,2.62,0.63c-0.39,1.31,0.01,2.84,1.44,3.78
				c0.29,0.19,0.6,0.33,0.92,0.43c0.24,0.75,0.73,1.42,1.51,1.88c0.13,0.08,0.28,0.13,0.42,0.19c-2.02,0.08-4.05,0.05-5.46-0.9
				c-0.37-0.35-0.73-0.72-1.08-1.1c-0.19-0.28-0.42-0.52-0.66-0.74c-0.38-0.43-0.75-0.88-1.12-1.34
				C45.14,81.51,45.64,80.59,46.03,79.58z M37.87,99.86c0.77-2.14,0.25-4.79-1.91-5.7c2.32-0.92,4.55-2.12,6.76-3.41
				c0.76,0.68,1.59,1.24,2.63,1.75c0.28,0.22,0.55,0.45,0.84,0.66c-2,1.54-3.91,3.23-5.81,4.8C39.56,98.64,38.72,99.26,37.87,99.86z
				 M46.74,114.01c-1.69-0.78-3.23-1.78-4.69-2.88c0.43-0.1,0.86-0.2,1.3-0.28c0,0,0,0,0,0c-0.52,0.09-0.17,0.15,0.15,0.16
				c0.18,0.19,0.35,0.38,0.41,0.45c1.8,2.12,4.86,1.02,6.12-0.95c0.09,0.72,0.39,1.43,0.89,1.98c1.18,1.31,2.82,1.24,4.06,0.45
				c0.36,0.2,0.73,0.4,1.13,0.54C53,113.4,50.35,115.67,46.74,114.01z M69.54,113.07c-2.22-1-3.54-2.11-4.01-3.31
				c0.4-0.73,0.73-1.52,0.96-2.35c0.32-0.05,0.64-0.11,0.95-0.16c-0.6,1.98,0.24,4.54,2.52,4.92c0.26,0.04,0.52,0.08,0.78,0.13
				C70.36,112.56,69.97,112.83,69.54,113.07z M59.67,100.15c-3.29,0.69-8.28,3.37-8.25,7.29c-0.12,0.09-0.24,0.18-0.34,0.28
				c-0.2,0.17-0.37,0.34-0.51,0.54c-0.08-0.49-0.27-0.98-0.63-1.45c-0.98-1.27-2.14-2.14-3.45-2.65c4.24-3.49,9.84-8.05,10.38-7.18
				c1.3,2.09,4.94,3.12,6.69,0.86c2.8-3.63,4.06-6.85,4.18-9.71c0.12,0.08,0.23,0.19,0.37,0.25c0.06,0.03,0.13,0.05,0.2,0.07
				c0,0.45,0.02,0.9,0.09,1.36c0.75,4.95,4.07,6.15,8.05,5.85C71.59,98.09,65.89,98.84,59.67,100.15z M80.35,115.48
				c0.63-0.56,1.2-0.98,1.73-1.3c0,0-0.01,0.01-0.01,0.01c-0.69,0.99-1.52,1.84-2.37,2.68c-0.2-0.12-0.4-0.22-0.6-0.32
				C79.51,116.2,79.93,115.84,80.35,115.48z M88.51,83.98c-2.34,0.44-4.54,1.22-6.79,2.01c1.13-1.4,1.76-3.23,1.67-5.46
				c0.99-0.92,1.97-1.84,2.94-2.77c0.06,0.4,0.14,0.78,0.21,1.13c0.33,1.58,1.74,2.74,3.3,3.09c0.09,0.66,0.2,1.34,0.32,1.97
				C89.64,83.88,89.09,83.87,88.51,83.98z M103.22,87.96c-1.09-0.13-2.06-0.53-2.93-1.17c0.44-0.45,0.71-1.05,0.78-1.69
				c0.2,0.19,0.42,0.35,0.66,0.47c0.25,0.13,0.53,0.21,0.81,0.25c0.03,0.79,0.27,1.52,0.7,2.14
				C103.24,87.96,103.23,87.96,103.22,87.96z M104.48,80.18c-0.03-0.03-0.08-0.05-0.11-0.07c-0.93-0.89-2.3-0.92-3.25-0.05
				c-0.79,0.52-1.16,1.33-1.19,2.22c-0.21-0.24-0.43-0.45-0.76-0.65c-0.13-0.08-0.27-0.12-0.41-0.17c-0.14-1.19-0.23-2.38-0.24-3.73
				c-0.01-0.46-0.07-0.87-0.15-1.25c0.45,0,0.9-0.01,1.32-0.05c0.68-0.06,1.32-0.18,1.92-0.36c1.16,1.17,2.6,1.86,4.2,2.18
				C105.33,78.81,104.9,79.47,104.48,80.18z M122.51,85.26c-0.36,0.43-0.69,0.88-0.97,1.36c-0.97-0.46-1.95-0.88-2.97-1.27
				c0.7-0.35,1.41-0.68,2.09-1.05c0.66,0.24,1.33,0.51,2.01,0.8C122.61,85.17,122.55,85.2,122.51,85.26z M119.2,75.48
				c0.11-0.95,0.22-1.91,0.28-2.87c0-0.02-0.01-0.04-0.01-0.06c1.13-0.13,2.24,0.17,3.38,0.79
				C121.63,74.05,120.42,74.77,119.2,75.48z M126.91,89.19c0.1-0.24,0.19-0.5,0.22-0.78c0.06-0.42,0.09-0.71,0.09-1.08
				c0.55,0.29,1.09,0.59,1.62,0.89C128.1,88.26,127.38,88.59,126.91,89.19z M133.55,98.84c0.24-1.78-0.83-3.5-2.5-4.23
				c0.26-0.29,0.49-0.63,0.63-1.06c0.44-1.3,0.21-2.71-0.39-3.91c3.14,1.84,5.89,3.55,7.51,4.26c0.3,0.13,0.6,0.22,0.92,0.28
				C137.63,95.64,135.51,97.05,133.55,98.84z"/>
		</g>
		<g>
			<path class="st5" d="M122.49,72.52c0.27,1.82-3.31,3.86-8,4.55c-4.69,0.69-8.71-0.22-8.97-2.04c-0.27-1.82,3.31-3.86,8-4.55
				C118.2,69.78,122.22,70.7,122.49,72.52z"/>
			<path class="st6" d="M105.54,74.8c1.64,0.7,4.36,0.92,7.37,0.47c4.5-0.66,7.94-2.57,7.97-4.33c-1.64-0.7-4.36-0.92-7.37-0.48
				C109.02,71.14,105.57,73.04,105.54,74.8z"/>
		</g>
		<g>
			<path class="st5" d="M65.1,72.97c-0.06,1.51-3.26,2.62-7.16,2.47c-3.9-0.14-7.01-1.49-6.95-3c0.06-1.52,3.26-2.63,7.16-2.48
				C62.04,70.11,65.16,71.45,65.1,72.97z"/>
			<path class="st6" d="M51.04,72.26c1.22,0.81,3.39,1.4,5.89,1.5c3.74,0.14,6.82-0.88,7.1-2.3c-1.22-0.81-3.39-1.4-5.89-1.49
				C54.41,69.82,51.34,70.84,51.04,72.26z"/>
		</g>
		<g>
			<path class="st5" d="M60.62,109.4c-0.08,1.54-3.34,2.63-7.29,2.43c-3.96-0.19-7.1-1.59-7.02-3.13c0.08-1.54,3.34-2.63,7.29-2.43
				C57.55,106.46,60.69,107.86,60.62,109.4z"/>
			<path class="st6" d="M46.36,108.52c1.23,0.84,3.42,1.46,5.96,1.59c3.8,0.18,6.93-0.82,7.24-2.26c-1.23-0.84-3.42-1.46-5.96-1.59
				C49.8,106.08,46.67,107.08,46.36,108.52z"/>
		</g>
		<g>
			<path class="st5" d="M32.15,90.83c0.01,1.7-3.52,3.1-7.9,3.13c-4.37,0.03-7.93-1.32-7.94-3.02c-0.02-1.7,3.52-3.1,7.89-3.13
				C28.58,87.78,32.14,89.13,32.15,90.83z"/>
			<path class="st6" d="M16.37,90.74c1.41,0.85,3.86,1.4,6.67,1.38c4.2-0.03,7.59-1.33,7.85-2.93c-1.41-0.85-3.87-1.4-6.68-1.38
				C20.01,87.84,16.62,89.13,16.37,90.74z"/>
		</g>
		<g>
			<path class="st5" d="M42.39,77.52c0.32,1.93-3.44,4.16-8.41,4.99c-4.97,0.82-9.25-0.07-9.57-2c-0.32-1.93,3.44-4.16,8.41-4.99
				C37.79,74.7,42.07,75.59,42.39,77.52z"/>
			<path class="st6" d="M24.43,80.27c1.76,0.71,4.65,0.89,7.84,0.37c4.77-0.79,8.39-2.88,8.39-4.75c-1.76-0.71-4.65-0.9-7.84-0.37
				C28.06,76.31,24.43,78.4,24.43,80.27z"/>
		</g>
		<g>
			<path class="st5" d="M60.03,90.44c0.07,1.56-3.13,2.96-7.14,3.13c-4.01,0.17-7.31-0.95-7.38-2.51c-0.07-1.56,3.13-2.96,7.14-3.13
				C56.66,87.75,59.96,88.88,60.03,90.44z"/>
			<path class="st6" d="M45.54,90.88c1.32,0.73,3.59,1.16,6.17,1.05c3.85-0.17,6.92-1.47,7.1-2.95c-1.32-0.73-3.59-1.16-6.17-1.05
				C48.79,88.09,45.72,89.39,45.54,90.88z"/>
		</g>
		<g>
			<path class="st5" d="M85.27,105.76c0,1.91-3.98,3.45-8.89,3.44c-4.91-0.01-8.88-1.56-8.87-3.47c0-1.91,3.98-3.45,8.89-3.44
				C81.3,102.3,85.27,103.85,85.27,105.76z"/>
			<path class="st6" d="M67.56,105.51c1.58,0.96,4.33,1.61,7.48,1.61c4.71,0.01,8.53-1.42,8.83-3.21c-1.57-0.97-4.32-1.61-7.47-1.61
				C71.68,102.29,67.87,103.71,67.56,105.51z"/>
		</g>
		<g>
			<path class="st5" d="M116.56,89.93c0.27,1.85-3.39,3.92-8.16,4.62c-4.78,0.69-8.87-0.25-9.14-2.11s3.38-3.92,8.16-4.62
				C112.2,87.13,116.29,88.07,116.56,89.93z"/>
			<path class="st6" d="M99.28,92.22c1.67,0.71,4.44,0.95,7.51,0.5c4.59-0.66,8.1-2.59,8.14-4.39c-1.67-0.72-4.44-0.95-7.51-0.51
				C102.83,88.49,99.32,90.42,99.28,92.22z"/>
		</g>
		<g>
			<path class="st5" d="M143.78,81.32c0.17,1.48-2.77,3.03-6.57,3.47c-3.8,0.44-7.02-0.4-7.19-1.88c-0.17-1.48,2.77-3.03,6.57-3.47
				C140.39,79.01,143.61,79.84,143.78,81.32z"/>
			<path class="st6" d="M130.04,82.74c1.31,0.6,3.5,0.85,5.94,0.57c3.65-0.43,6.48-1.87,6.55-3.29c-1.31-0.6-3.49-0.85-5.93-0.57
				C132.94,79.87,130.11,81.31,130.04,82.74z"/>
		</g>
		<g>
			<path class="st5" d="M95.09,87.94c0.12,1.46-2.82,2.88-6.57,3.18c-3.75,0.3-6.88-0.63-6.99-2.08c-0.12-1.46,2.82-2.88,6.57-3.18
				C91.84,85.55,94.97,86.49,95.09,87.94z"/>
			<path class="st6" d="M81.55,88.87c1.26,0.64,3.4,0.96,5.81,0.76c3.6-0.29,6.42-1.62,6.54-3.01c-1.26-0.64-3.4-0.96-5.81-0.76
				C84.5,86.15,81.67,87.47,81.55,88.87z"/>
		</g>
		<g>
			<path class="st5" d="M101.75,120.19c-0.29,1.81-4.32,2.68-9,1.93c-4.68-0.75-8.23-2.83-7.94-4.65c0.3-1.82,4.32-2.68,9-1.93
				C98.49,116.29,102.04,118.37,101.75,120.19z"/>
			<path class="st6" d="M84.9,117.26c1.36,1.16,3.88,2.19,6.88,2.67c4.49,0.72,8.34-0.06,8.91-1.72c-1.36-1.16-3.88-2.19-6.88-2.68
				C89.32,114.82,85.46,115.59,84.9,117.26z"/>
		</g>
		<g>
			<path class="st5" d="M139.58,94.06c0.15,1.75-3.38,3.48-7.89,3.86c-4.51,0.38-8.28-0.73-8.43-2.48
				c-0.15-1.75,3.38-3.48,7.89-3.86C135.66,91.2,139.43,92.3,139.58,94.06z"/>
			<path class="st6" d="M123.29,95.23c1.52,0.76,4.1,1.13,6.99,0.89c4.33-0.37,7.72-1.98,7.85-3.66c-1.52-0.76-4.1-1.13-6.99-0.89
				C126.82,91.94,123.43,93.55,123.29,95.23z"/>
		</g>
		<g>
			<path class="st7" d="M83.66,70.51c0,2.82-3.26,5.1-7.27,5.1c-4.02,0-7.28-2.28-7.28-5.1c0-2.82,3.26-5.1,7.28-5.1
				C80.4,65.4,83.66,67.69,83.66,70.51z"/>
			<path class="st8" d="M77.37,68.4c-0.06-0.23-0.13-0.45-0.18-0.69c-0.09-0.48-0.28-1.01-0.44-1.53c-0.12,0-0.24-0.02-0.36-0.02
				c-1.92,0-3.63,0.61-4.77,1.58c0.79,0.56,1.57,1.12,2.37,1.66C75.02,68.74,76.2,68.33,77.37,68.4z"/>
			<path class="st8" d="M71.57,72.17c0.27-0.57,0.61-1.1,1-1.55c-0.63-0.59-1.26-1.2-1.89-1.79c-0.3,0.52-0.47,1.08-0.47,1.67
				c0,0.42,0.1,0.83,0.26,1.21c0.34,0.14,0.67,0.27,1.01,0.41C71.5,72.14,71.54,72.16,71.57,72.17z"/>
			<path class="st9" d="M76.96,66.87c-0.07-0.23-0.14-0.46-0.21-0.68c-0.12,0-0.24-0.02-0.36-0.02c-1.92,0-3.63,0.61-4.77,1.58
				c0.35,0.25,0.7,0.49,1.06,0.74C73.86,67.43,75.43,66.77,76.96,66.87z"/>
			<path class="st9" d="M70.59,71.77c0.28-0.8,0.64-1.52,0.96-2.01c0.02-0.02,0.03-0.04,0.05-0.06c-0.3-0.29-0.61-0.58-0.92-0.87
				c-0.3,0.52-0.47,1.08-0.47,1.67c0,0.42,0.1,0.83,0.26,1.21C70.51,71.73,70.55,71.75,70.59,71.77z"/>
		</g>
		<g>
			<path class="st7" d="M59.45,80.94c0,2.82-3.26,5.1-7.27,5.1c-4.02,0-7.28-2.28-7.28-5.1c0-2.82,3.26-5.1,7.28-5.1
				C56.2,75.84,59.45,78.13,59.45,80.94z"/>
			<path class="st8" d="M53.16,78.85c-0.06-0.23-0.13-0.45-0.18-0.69c-0.1-0.48-0.28-1.01-0.44-1.53c-0.12,0-0.24-0.02-0.36-0.02
				c-1.92,0-3.63,0.61-4.77,1.58c0.79,0.56,1.57,1.12,2.37,1.66C50.82,79.18,51.99,78.77,53.16,78.85z"/>
			<path class="st8" d="M47.36,82.61c0.27-0.57,0.61-1.1,1-1.55c-0.63-0.59-1.26-1.2-1.89-1.79c-0.3,0.52-0.47,1.08-0.47,1.67
				c0,0.42,0.1,0.83,0.26,1.21c0.33,0.14,0.67,0.27,1,0.41C47.29,82.58,47.33,82.6,47.36,82.61z"/>
			<path class="st9" d="M52.75,77.31c-0.07-0.23-0.14-0.45-0.21-0.68c-0.12,0-0.24-0.02-0.36-0.02c-1.92,0-3.63,0.61-4.77,1.58
				c0.35,0.25,0.7,0.49,1.06,0.74C49.65,77.87,51.22,77.21,52.75,77.31z"/>
			<path class="st9" d="M46.38,82.21c0.28-0.8,0.64-1.52,0.96-2.01c0.01-0.02,0.03-0.04,0.05-0.06c-0.31-0.29-0.61-0.58-0.92-0.87
				c-0.3,0.52-0.47,1.08-0.47,1.67c0,0.42,0.1,0.83,0.26,1.21C46.3,82.17,46.34,82.19,46.38,82.21z"/>
		</g>
		<g>
			<path class="st7" d="M81.57,94.78c0,2.81-3.26,5.1-7.27,5.1c-4.02,0-7.27-2.28-7.27-5.1c0-2.82,3.26-5.1,7.27-5.1
				C78.31,89.67,81.57,91.96,81.57,94.78z"/>
			<path class="st8" d="M75.27,92.67c-0.06-0.23-0.13-0.44-0.18-0.69c-0.1-0.48-0.28-1-0.44-1.53c-0.12,0-0.24-0.02-0.36-0.02
				c-1.92,0-3.63,0.61-4.77,1.57c0.79,0.56,1.57,1.12,2.37,1.66C72.93,93.01,74.1,92.61,75.27,92.67z"/>
			<path class="st8" d="M69.47,96.44c0.27-0.57,0.61-1.1,1.01-1.55c-0.63-0.59-1.26-1.2-1.9-1.79c-0.3,0.52-0.48,1.08-0.48,1.67
				c0,0.42,0.1,0.83,0.26,1.21c0.33,0.14,0.67,0.27,1,0.41C69.41,96.41,69.44,96.43,69.47,96.44z"/>
			<path class="st9" d="M74.87,91.14c-0.07-0.22-0.14-0.45-0.21-0.68c-0.12,0-0.24-0.02-0.36-0.02c-1.92,0-3.63,0.61-4.77,1.57
				c0.35,0.25,0.7,0.49,1.05,0.74C71.76,91.7,73.33,91.04,74.87,91.14z"/>
			<path class="st9" d="M68.49,96.04c0.28-0.8,0.64-1.52,0.96-2.01c0.02-0.02,0.03-0.04,0.05-0.06c-0.3-0.29-0.61-0.58-0.92-0.86
				c-0.3,0.52-0.48,1.08-0.48,1.67c0,0.42,0.1,0.83,0.26,1.21C68.41,96,68.45,96.02,68.49,96.04z"/>
		</g>
		<g>
			<path class="st7" d="M44.03,97.34c0,2.82-3.26,5.1-7.28,5.1c-4.02,0-7.27-2.28-7.27-5.1c0-2.82,3.26-5.1,7.27-5.1
				C40.78,92.24,44.03,94.52,44.03,97.34z"/>
			<path class="st8" d="M37.74,95.24c-0.06-0.23-0.13-0.45-0.18-0.69c-0.09-0.48-0.28-1-0.44-1.53C37,93.02,36.88,93,36.76,93
				c-1.92,0-3.63,0.61-4.76,1.58c0.78,0.56,1.57,1.12,2.37,1.66C35.39,95.57,36.57,95.17,37.74,95.24z"/>
			<path class="st8" d="M31.94,99.01c0.27-0.57,0.61-1.1,1-1.55c-0.63-0.59-1.26-1.2-1.89-1.79c-0.31,0.51-0.48,1.08-0.48,1.67
				c0,0.42,0.1,0.83,0.26,1.21c0.33,0.14,0.67,0.27,1,0.41C31.88,98.97,31.91,98.99,31.94,99.01z"/>
			<path class="st9" d="M37.34,93.7c-0.07-0.23-0.15-0.45-0.22-0.68C37,93.02,36.88,93,36.76,93c-1.92,0-3.63,0.61-4.76,1.58
				c0.35,0.25,0.7,0.49,1.05,0.74C34.23,94.26,35.8,93.61,37.34,93.7z"/>
			<path class="st9" d="M30.96,98.6c0.28-0.8,0.64-1.52,0.96-2.01c0.02-0.02,0.03-0.04,0.05-0.06c-0.3-0.29-0.61-0.58-0.91-0.86
				c-0.31,0.51-0.48,1.08-0.48,1.67c0,0.42,0.1,0.83,0.26,1.21C30.88,98.56,30.92,98.58,30.96,98.6z"/>
		</g>
		<g>
			<path class="st7" d="M83.66,117.74c0,2.81-3.26,5.1-7.27,5.1c-4.02,0-7.28-2.28-7.28-5.1c0-2.82,3.26-5.1,7.28-5.1
				C80.4,112.64,83.66,114.92,83.66,117.74z"/>
			<path class="st8" d="M77.37,115.64c-0.06-0.23-0.13-0.45-0.18-0.69c-0.09-0.48-0.28-1-0.44-1.53c-0.12,0-0.24-0.02-0.36-0.02
				c-1.92,0-3.63,0.61-4.77,1.57c0.79,0.56,1.57,1.12,2.37,1.66C75.02,115.97,76.2,115.57,77.37,115.64z"/>
			<path class="st8" d="M71.57,119.41c0.27-0.57,0.61-1.1,1-1.55c-0.63-0.59-1.26-1.2-1.89-1.79c-0.3,0.52-0.47,1.08-0.47,1.67
				c0,0.42,0.1,0.83,0.26,1.21c0.34,0.14,0.67,0.27,1.01,0.41C71.5,119.37,71.54,119.39,71.57,119.41z"/>
			<path class="st9" d="M76.96,114.1c-0.07-0.22-0.14-0.45-0.21-0.68c-0.12,0-0.24-0.02-0.36-0.02c-1.92,0-3.63,0.61-4.77,1.57
				c0.35,0.25,0.7,0.49,1.06,0.74C73.86,114.67,75.43,114.01,76.96,114.1z"/>
			<path class="st9" d="M70.59,119c0.28-0.8,0.64-1.52,0.96-2.01c0.02-0.02,0.03-0.04,0.05-0.06c-0.3-0.29-0.61-0.58-0.92-0.86
				c-0.3,0.52-0.47,1.08-0.47,1.67c0,0.42,0.1,0.83,0.26,1.21C70.51,118.97,70.55,118.98,70.59,119z"/>
		</g>
		<g>
			<path class="st7" d="M107.87,82.61c0,2.43-2.81,4.4-6.28,4.4c-3.47,0-6.28-1.97-6.28-4.4c0-2.43,2.81-4.4,6.28-4.4
				C105.06,78.21,107.87,80.18,107.87,82.61z"/>
			<path class="st8" d="M102.43,80.8c-0.05-0.2-0.11-0.39-0.15-0.59c-0.08-0.42-0.24-0.86-0.38-1.32c-0.1,0-0.2-0.02-0.31-0.02
				c-1.66,0-3.14,0.53-4.12,1.36c0.68,0.48,1.35,0.97,2.04,1.43C100.41,81.09,101.42,80.74,102.43,80.8z"/>
			<path class="st8" d="M97.43,84.05c0.23-0.49,0.53-0.95,0.87-1.34c-0.54-0.51-1.08-1.04-1.63-1.55c-0.26,0.45-0.41,0.93-0.41,1.44
				c0,0.36,0.08,0.71,0.22,1.05c0.29,0.12,0.58,0.23,0.87,0.35C97.37,84.03,97.4,84.04,97.43,84.05z"/>
			<path class="st9" d="M102.08,79.48c-0.06-0.19-0.12-0.39-0.19-0.59c-0.1,0-0.2-0.02-0.31-0.02c-1.66,0-3.14,0.53-4.12,1.36
				c0.3,0.21,0.61,0.42,0.91,0.64C99.41,79.96,100.76,79.39,102.08,79.48z"/>
			<path class="st9" d="M96.58,83.71c0.24-0.69,0.55-1.32,0.83-1.74c0.01-0.02,0.03-0.03,0.04-0.05c-0.26-0.25-0.52-0.5-0.79-0.75
				c-0.26,0.45-0.41,0.93-0.41,1.44c0,0.36,0.08,0.71,0.22,1.05C96.51,83.67,96.55,83.69,96.58,83.71z"/>
		</g>
		<g>
			<path class="st7" d="M129.78,78.23c0,2.81-3.26,5.1-7.27,5.1c-4.02,0-7.28-2.28-7.28-5.1c0-2.82,3.26-5.1,7.28-5.1
				C126.52,73.13,129.78,75.41,129.78,78.23z"/>
			<path class="st8" d="M123.48,76.13c-0.06-0.23-0.13-0.44-0.18-0.69c-0.09-0.48-0.28-1-0.44-1.53c-0.12,0-0.24-0.02-0.36-0.02
				c-1.92,0-3.64,0.61-4.77,1.57c0.79,0.56,1.57,1.12,2.37,1.66C121.14,76.46,122.32,76.06,123.48,76.13z"/>
			<path class="st8" d="M117.68,79.9c0.27-0.57,0.61-1.1,1.01-1.55c-0.63-0.59-1.26-1.2-1.89-1.79c-0.31,0.51-0.48,1.08-0.48,1.67
				c0,0.42,0.09,0.83,0.26,1.21c0.34,0.14,0.67,0.27,1.01,0.41C117.62,79.86,117.65,79.88,117.68,79.9z"/>
			<path class="st9" d="M123.08,74.59c-0.07-0.23-0.14-0.45-0.21-0.68c-0.12,0-0.24-0.02-0.36-0.02c-1.92,0-3.64,0.61-4.77,1.57
				c0.35,0.25,0.7,0.49,1.05,0.74C119.98,75.16,121.54,74.5,123.08,74.59z"/>
			<path class="st9" d="M116.7,79.49c0.28-0.8,0.64-1.52,0.96-2.01c0.02-0.02,0.03-0.04,0.05-0.06c-0.3-0.29-0.61-0.58-0.91-0.86
				c-0.31,0.51-0.48,1.08-0.48,1.67c0,0.42,0.09,0.83,0.26,1.21C116.62,79.46,116.66,79.47,116.7,79.49z"/>
		</g>
		<g>
			<path class="st5" d="M42.39,103.97c0.22,1.73-3.21,3.6-7.66,4.17c-4.46,0.57-8.25-0.37-8.47-2.1c-0.22-1.73,3.21-3.6,7.66-4.17
				C38.38,101.3,42.17,102.24,42.39,103.97z"/>
			<path class="st6" d="M26.29,105.83c1.54,0.69,4.12,0.95,6.98,0.58c4.28-0.55,7.57-2.29,7.64-3.96c-1.54-0.69-4.12-0.95-6.98-0.58
				C29.65,102.42,26.35,104.17,26.29,105.83z"/>
		</g>
		<g>
			<path class="st5" d="M72.39,123.48c-0.18,1.42-3.29,2.2-6.95,1.75c-3.66-0.46-6.48-1.98-6.3-3.4c0.18-1.42,3.29-2.2,6.95-1.75
				C69.75,120.54,72.57,122.06,72.39,123.48z"/>
			<path class="st6" d="M59.21,121.67c1.09,0.86,3.08,1.6,5.43,1.89c3.51,0.44,6.49-0.27,6.88-1.59c-1.09-0.86-3.08-1.6-5.43-1.89
				C62.57,119.64,59.6,120.35,59.21,121.67z"/>
		</g>
		<g>
			<path class="st5" d="M92.79,76.09c0.27,1.85-3.38,3.91-8.14,4.6c-4.76,0.69-8.84-0.25-9.11-2.1c-0.27-1.85,3.37-3.91,8.14-4.6
				C88.45,73.29,92.53,74.23,92.79,76.09z"/>
			<path class="st6" d="M75.57,78.36c1.66,0.71,4.43,0.95,7.49,0.51c4.58-0.66,8.08-2.58,8.12-4.38c-1.67-0.71-4.43-0.95-7.49-0.5
				C79.11,74.65,75.6,76.57,75.57,78.36z"/>
		</g>
		<g>
			<path class="st10" d="M110.67,73.66c-0.6-2.3-1.59-4.72-3.84-5.83c-1.15-0.57-2.55-0.71-3.8-0.52c-1.44,0.23-2.72,1.04-4.07,1.58
				c-0.17-0.09-0.42-0.04-0.46,0.18c-0.02,0-0.03,0.01-0.05,0.02c-0.12-0.07-0.26-0.13-0.42-0.18c-0.18-0.06-0.35-0.11-0.52-0.18
				c0.02-0.05,0.03-0.09,0.01-0.13c-1.01-2.54-3.32-3.93-6.04-3.62c-2.56,0.29-6.55,4.49-6.34,4.68c1.59,1.44,4.14,1.58,6.17,1.44
				c1.95-0.14,4.17-0.66,5.74-1.92c0.16,0.1,0.38,0.14,0.54,0.19c0.2,0.05,0.4,0.1,0.6,0.15c0.1,0.03,0.23,0.03,0.35,0.04
				c0.24,2.07,1.44,4.05,3.69,4.32c1.52,0.18,3.04-0.1,4.56,0.03c1.19,0.1,2.51,0.46,3.69,0.11
				C110.62,73.97,110.71,73.82,110.67,73.66z"/>
			<path class="st11" d="M101.56,67.51c0.18-1.64-0.69-3.48-1.59-4.9c-0.06-0.23-0.1-0.43-0.13-0.6c-0.07-0.34-0.56-0.35-0.71-0.08
				c-0.69,1.27-1.49,2.47-1.95,3.85c-0.31,0.93-0.38,2.22,0.32,2.96c-0.05,0.08-0.09,0.19-0.11,0.27c-0.02,0.05-0.01,0.1,0,0.14
				c-1.28-0.35-2.37,1.01-2.77,2.06c-0.51,1.36-0.68,3.06-0.17,4.45c0.09,0.23,0.32,0.32,0.54,0.21c1.6-0.82,3.29-2.09,4.35-3.54
				c0.41-0.57,0.78-1.26,0.56-1.98c-0.18-0.57-0.71-0.87-1.29-1.04c0.02-0.03,0.04-0.07,0.05-0.1c0.01-0.04,0.02-0.08,0.04-0.11
				c0.01-0.03,0.01-0.06,0.01-0.09c0.18,0.02,0.34,0.02,0.5,0.01C100.28,69.11,101.43,68.77,101.56,67.51z"/>
		</g>
		<g>
			<path class="st10" d="M74.9,80.73c-1.15-0.57-2.55-0.71-3.8-0.52c-1.45,0.23-2.73,1.04-4.07,1.58c-0.07-0.04-0.15-0.03-0.22-0.02
				c-0.05,0.18-0.11,0.36-0.16,0.55c-0.02,0.05-0.04,0.09-0.06,0.14c0.01,0,0.01,0,0.02,0c0.24,2.07,1.44,4.05,3.69,4.32
				c1.52,0.18,3.05-0.1,4.56,0.03c1.19,0.1,2.5,0.46,3.68,0.11c0.15-0.04,0.24-0.2,0.2-0.36C78.13,84.27,77.15,81.84,74.9,80.73z"/>
			<path class="st11" d="M67.57,82.69c-0.56,0.06-1.14-0.1-1.62-0.56c-0.15-0.14-0.26-0.31-0.39-0.47
				c-0.05,0.08-0.08,0.18-0.11,0.26c-0.02,0.04-0.01,0.1,0,0.14c-1.28-0.35-2.36,1.01-2.76,2.06c-0.52,1.36-0.68,3.06-0.17,4.45
				c0.09,0.23,0.32,0.32,0.54,0.21c1.59-0.82,3.29-2.08,4.35-3.54c0.41-0.57,0.78-1.26,0.55-1.98
				C67.9,83.02,67.75,82.84,67.57,82.69z"/>
		</g>
		<g>
			<path class="st10" d="M92.92,106.56c-0.91-0.45-2.01-0.57-3-0.41c-1.14,0.18-2.15,0.82-3.21,1.25c-0.06-0.03-0.12-0.03-0.18-0.02
				c-0.04,0.15-0.08,0.29-0.13,0.43c-0.01,0.04-0.04,0.07-0.05,0.11c0.01,0,0.01,0,0.01,0c0.19,1.64,1.14,3.2,2.92,3.41
				c1.2,0.14,2.4-0.08,3.6,0.02c0.94,0.08,1.98,0.36,2.91,0.09c0.12-0.04,0.19-0.16,0.16-0.28
				C95.47,109.35,94.7,107.44,92.92,106.56z"/>
			<path class="st11" d="M87.14,108.11c-0.44,0.04-0.91-0.08-1.28-0.44c-0.12-0.11-0.21-0.24-0.31-0.37
				c-0.04,0.07-0.07,0.14-0.09,0.21c-0.01,0.04-0.01,0.08,0,0.11c-1.01-0.28-1.87,0.8-2.18,1.63c-0.41,1.08-0.54,2.42-0.13,3.51
				c0.07,0.18,0.25,0.25,0.43,0.16c1.26-0.65,2.6-1.65,3.43-2.8c0.33-0.45,0.62-1,0.44-1.56C87.39,108.37,87.27,108.22,87.14,108.11
				z"/>
		</g>
		<g>
			<path class="st10" d="M43.76,115.41c-0.41-1.56-1.07-3.19-2.59-3.94c-0.78-0.38-1.72-0.48-2.57-0.35
				c-0.98,0.16-1.84,0.7-2.75,1.07c-0.12-0.06-0.28-0.02-0.31,0.12c-0.01,0-0.03,0.01-0.04,0.01c-0.08-0.05-0.17-0.09-0.28-0.12
				c-0.13-0.04-0.24-0.08-0.36-0.12c0.02-0.03,0.02-0.06,0.01-0.09c-0.68-1.71-2.24-2.65-4.08-2.44c-1.73,0.2-4.43,3.04-4.29,3.16
				c1.07,0.98,2.8,1.07,4.17,0.97c1.32-0.09,2.81-0.44,3.87-1.3c0.11,0.06,0.25,0.1,0.37,0.13c0.13,0.03,0.27,0.06,0.4,0.1
				c0.07,0.02,0.16,0.02,0.24,0.03c0.16,1.4,0.97,2.74,2.49,2.92c1.03,0.12,2.05-0.07,3.08,0.02c0.81,0.07,1.69,0.31,2.49,0.08
				C43.73,115.62,43.79,115.52,43.76,115.41z"/>
			<path class="st11" d="M56.01,103.14c1.53-0.62,2.74-2.27,3.56-3.73c0.18-0.16,0.33-0.29,0.46-0.4c0.27-0.22,0.05-0.66-0.27-0.67
				c-1.44-0.01-2.88-0.13-4.32,0.12c-0.96,0.17-2.13,0.72-2.45,1.69c-0.1-0.01-0.21,0.01-0.3,0.03c-0.05,0.01-0.09,0.04-0.13,0.07
				c-0.3-1.29-2.01-1.6-3.12-1.45c-1.44,0.19-3.02,0.85-4,1.97c-0.16,0.18-0.13,0.43,0.07,0.57c1.48,1.02,3.4,1.91,5.19,2.14
				c0.69,0.09,1.48,0.08,2-0.45c0.42-0.43,0.42-1.04,0.3-1.62c0.04,0.01,0.08,0,0.12,0c0.04-0.01,0.08-0.01,0.11-0.02
				c0.03-0.01,0.06-0.02,0.08-0.03c0.07,0.17,0.14,0.32,0.23,0.44C53.99,102.76,54.84,103.61,56.01,103.14z"/>
		</g>
		<g>
			<path class="st10" d="M125.2,95.53c-0.41-1.55-1.07-3.19-2.6-3.94c-0.78-0.38-1.72-0.48-2.57-0.35c-0.97,0.16-1.84,0.7-2.74,1.07
				c-0.12-0.06-0.29-0.02-0.31,0.12c-0.02,0-0.03,0.01-0.04,0.01c-0.08-0.05-0.17-0.09-0.28-0.12c-0.12-0.04-0.24-0.08-0.35-0.12
				c0.01-0.03,0.01-0.06,0-0.09c-0.68-1.71-2.24-2.65-4.08-2.44c-1.73,0.2-4.43,3.04-4.29,3.16c1.08,0.97,2.8,1.06,4.17,0.97
				c1.32-0.09,2.81-0.44,3.87-1.3c0.11,0.07,0.26,0.1,0.37,0.13c0.13,0.04,0.27,0.06,0.4,0.1c0.07,0.02,0.16,0.02,0.24,0.03
				c0.16,1.4,0.97,2.74,2.49,2.92c1.03,0.12,2.06-0.07,3.08,0.01c0.81,0.07,1.69,0.31,2.49,0.08
				C125.16,95.74,125.22,95.64,125.2,95.53z"/>
			<path class="st11" d="M135.93,88.86c1.53-0.62,2.73-2.27,3.56-3.73c0.17-0.16,0.33-0.29,0.46-0.4c0.27-0.22,0.05-0.66-0.27-0.67
				c-1.44-0.01-2.88-0.13-4.31,0.12c-0.96,0.17-2.13,0.72-2.45,1.69c-0.1-0.01-0.2,0.01-0.29,0.03c-0.05,0.01-0.09,0.04-0.12,0.07
				c-0.3-1.29-2.01-1.6-3.12-1.45c-1.44,0.19-3.02,0.85-4,1.97c-0.16,0.19-0.13,0.44,0.08,0.57c1.48,1.02,3.4,1.91,5.19,2.14
				c0.69,0.09,1.48,0.08,2-0.45c0.42-0.43,0.42-1.04,0.3-1.62c0.04,0.01,0.08,0.01,0.12,0c0.04-0.01,0.08-0.01,0.12-0.02
				c0.03-0.01,0.06-0.02,0.08-0.03c0.07,0.17,0.14,0.32,0.23,0.44C133.91,88.49,134.76,89.34,135.93,88.86z"/>
		</g>
		<g>
			<path class="st10" d="M46.38,82.33c-1.15-0.57-2.55-0.72-3.8-0.52c-1.45,0.23-2.72,1.04-4.07,1.58
				c-0.17-0.09-0.42-0.04-0.46,0.18c-0.02,0.01-0.04,0.01-0.05,0.02c-0.12-0.08-0.26-0.13-0.42-0.18c-0.15-0.05-0.28-0.1-0.42-0.15
				c-0.06,0.18-0.13,0.36-0.19,0.54c0.06,0.02,0.12,0.05,0.17,0.06c0.2,0.05,0.4,0.09,0.59,0.15c0.1,0.03,0.24,0.03,0.35,0.05
				c0.24,2.07,1.44,4.05,3.69,4.32c1.53,0.18,3.05-0.1,4.56,0.03c1.19,0.1,2.51,0.46,3.69,0.12c0.15-0.05,0.24-0.2,0.2-0.36
				C49.62,85.86,48.63,83.44,46.38,82.33z"/>
			<path class="st11" d="M41.11,82.01c0.18-1.64-0.69-3.49-1.59-4.9c-0.06-0.23-0.1-0.43-0.13-0.6c-0.07-0.34-0.56-0.35-0.71-0.08
				c-0.69,1.27-1.49,2.47-1.95,3.85c-0.32,0.93-0.38,2.22,0.32,2.96c-0.05,0.08-0.08,0.19-0.11,0.27c-0.01,0.05-0.01,0.1,0,0.14
				c-1.28-0.35-2.36,1.01-2.76,2.06c-0.52,1.36-0.69,3.06-0.17,4.45c0.09,0.23,0.32,0.32,0.54,0.21c1.59-0.82,3.29-2.08,4.35-3.54
				c0.41-0.57,0.78-1.26,0.56-1.98c-0.18-0.57-0.72-0.87-1.29-1.03c0.02-0.03,0.04-0.07,0.05-0.11c0.01-0.04,0.02-0.07,0.03-0.11
				c0.01-0.03,0.02-0.06,0.02-0.09c0.18,0.02,0.34,0.02,0.49,0.01C39.82,83.61,40.98,83.26,41.11,82.01z"/>
		</g>
	</g>
	<g>
		<g>
			<path class="st1" d="M189.52,108.15C189.52,108.82,189.64,107.25,189.52,108.15L189.52,108.15z"/>
			<path class="st1" d="M189.51,108.19c0,0.01,0.01,0.01,0.01,0.02c0-0.03,0.01-0.03,0.01-0.06c0-0.03,0-0.03,0-0.06
				C189.52,108.13,189.51,108.15,189.51,108.19z"/>
			<path class="st1" d="M188.35,105.88c-0.89-0.54-1.98-0.5-2.99-0.11c-0.05-0.01-0.09-0.02-0.14-0.03
				c-1.36-0.09-2.5,0.14-3.69,0.81c-0.37,0.21-0.88,0.53-1.25,0.93c-6.84-1.14-13.69-2.26-20.58-2.63
				c-10.68-0.56-21.33,0-32.01-0.02c-6.06-0.01-14.77-1-20.96,1.35c6.39,9.87,15.32,17.47,24.06,25.26c2.96,2.64,5.79,5.5,8.62,8.39
				c-1.59-1.21-3.05-2.61-4.37-3.69c-3.33-2.74-6.9-5.16-10.34-7.75c-6.18-4.66-10.78-11.08-16.98-15.66
				c-0.22-0.16-0.61,0.03-0.48,0.33c3.83,8.61,12.34,15.08,19.3,21.11c4.95,4.29,10.68,11.57,17.56,12.67
				c0.16,0.14,0.33,0.28,0.53,0.36c0.07,0.03,0.15,0.06,0.22,0.09c0.74,0.31,1.43,0.27,2.01-0.02c0.01,0.01,0.02,0.02,0.02,0.03
				c9.95-3.63,21.31-9.59,28.88-17.8c3.16-2.86,6.02-6.06,8.45-9.69c2.13-3.19,3.69-6.57,4.74-10.03c0.13-0.19,0.25-0.37,0.33-0.59
				c0.13-0.37,0.17-0.66,0.19-1.03C189.64,107.18,189.22,106.4,188.35,105.88z"/>
		</g>
		<path class="st2" d="M185.21,108.31c0.07-1-0.29-1.97-1.38-2.24c-0.83-0.21-1.65,0.19-2.36,0.58c-0.66,0.36-1.27,0.92-1.63,1.58
			c-0.15,0.26-0.27,0.7-0.3,1.11c-0.29,0.22-0.52,0.76-0.71,1.05c-0.21,0.31-0.58,0.6-0.82,0.9c-0.31,0.4-0.63,0.75-0.85,1.21
			c-0.08,0.16-0.09,0.3-0.09,0.45c-11.66,11.92-22.89,21.11-36.88,26.2c-1.84-1.23-4.29-3.44-4.93-3.92c-3.35-2.51-6.51-5.31-9.71-8
			c-3.17-2.67-6.16-5.52-9.06-8.47c-3.08-3.12-7.44-6.47-8.72-10.74c-0.23-0.76-1.56-0.72-1.62,0.12c-0.26,3.52,1.53,6.01,3.84,8.61
			c4.12,4.66,8.58,9.04,13.24,13.17c4.34,3.85,8.62,7.72,13.1,11.41c2.17,1.79,4.41,3.69,7.32,2.98c0.04-0.01,0.07-0.03,0.11-0.04
			c0.03,0.03,0.06,0.06,0.09,0.09c7.55-2.7,20.27-8.28,28.94-17.68c3.2-2.9,5.95-6.05,8.17-9.37c1.94-2.89,3.38-5.91,4.39-8.97
			C185.31,108.33,185.26,108.31,185.21,108.31z"/>
		<path class="st3" d="M159.71,104.86c-10.68-0.56-21.33,0-32.01-0.02c-5.77-0.01-13.93-0.88-20.04,1.08
			c-0.23-0.07-0.49-0.05-0.7,0.08c-4.22,2.61,11.72,16.33,13.22,17.82c2.8,2.77,5.92,5.22,8.68,8.02c2.28,2.32,6.28,8.15,10.21,7.65
			c0.11,0.11,0.23,0.23,0.34,0.34c15.69-5.16,27.61-15.41,39.38-27.59c0.28-0.29,0.59-0.5,0.92-0.65c0.56-1.29,1.03-2.61,1.43-3.95
			C174.02,106.44,166.89,105.24,159.71,104.86z"/>
		<path class="st4" d="M164.36,105.23c-0.75,0.66-1.5,1.34-2.21,2.1c0.05-0.84-0.2-1.65-0.64-2.33c-0.6-0.05-1.2-0.1-1.8-0.13
			c-3.77-0.2-7.53-0.25-11.29-0.25c0.33,0.19,0.65,0.37,0.96,0.58c-0.9,0.86-1.79,1.75-2.74,2.61c-0.48,0.43-0.78,0.94-0.94,1.48
			c-0.7,0.62-1.32,1.28-1.9,1.96c-0.08-0.12-0.18-0.23-0.29-0.33c-0.03-0.03-0.05-0.07-0.07-0.1c-0.51-1.05-1.63-1.85-2.68-2.1
			c-0.85-0.19-1.73,0.04-2.42,0.54c0.35-1.59,0.48-3.13,0.24-4.52c-3.63,0.06-7.25,0.12-10.89,0.11c-6.06-0.01-14.77-1-20.96,1.35
			c2.29,3.54,4.92,6.78,7.74,9.85c0.08-0.04,0.2-0.1,0.44-0.22c0.65-0.51,0.89-1.03,0.93-1.84c0.05-0.91-0.58-1.69-1.29-2.22
			c0.48-0.49,0.95-0.99,1.39-1.51c0.75,0.3,1.6,0.35,2.37,0.05c0.12-0.05,0.16-0.06,0.16-0.07c0.3-0.07,0.58-0.18,0.85-0.32
			c-0.18,0.16-0.37,0.31-0.53,0.51c-1.48,1.71-0.92,4.44,1.11,5.44c1.9,0.93,4.73-0.18,4.98-2.46c0.05-0.38,0.08-0.77,0.09-1.15
			c0.08-0.77,0.01-1.04-0.21-0.87c-0.02-1.58-1.53-2.76-3.11-2.28c-0.39-0.01-0.78,0.03-1.16,0.15c0.04-0.02,0.08-0.06,0.13-0.08
			c1.32-0.76,2.5-1.88,2.78-3.44c0.04-0.24,0.05-0.46,0.05-0.69c0.77,0.48,1.57,0.88,2.42,1.24c0.08,0.1,0.14,0.2,0.24,0.29
			c0.12,0.08,0.24,0.16,0.36,0.24c0.02,0.01,0.01,0.01,0.04,0.03c0.22,0.19,1.09,0.79,0.39,0.29c0.47,0.33,0.79,0.52,1.35,0.69
			c0.05,0.01,0.09,0.01,0.13,0.02c-0.03,0.16-0.04,0.31-0.05,0.47c-0.01,0.11-0.02,0.28-0.03,0.55c0,0.28,0.05,0.55,0.15,0.81
			c0.13,0.53,0.45,0.9,0.82,1.26c-1,2.54-3.54,5.59-4.44,7.19c-1.16,2.04-0.49,3.85,0.89,4.94c-0.34,0.1-0.66,0.22-1,0.33
			c-0.78-1.2-1.3-2.71-2.01-3.92c-1.27-2.15-4.38-3.66-6.85-3.38c-0.41,0.05-0.81,0.11-1.2,0.17c5,5.4,10.6,10.26,16.14,15.2
			c1.5,1.34,2.97,2.74,4.42,4.17c0.01-0.01,0.02-0.01,0.03-0.01c0.1-0.07,0.39-0.32,0.53-0.45c0.18-0.14,0.36-0.28,0.55-0.41
			c0.21-0.01,0.39-0.03,0.85-0.15c-1.28,0.32,0.09,0.01,0.52-0.13c2.5-0.76,2.8-4.14,0.96-5.65c0.58-0.74,1.11-1.52,1.6-2.33
			c0.78-0.24,1.54-0.51,2.3-0.78c-1.09,3.52,2.95,5.89,6.05,4.3c5.97-3.07,10.63-7.87,15.13-12.78c1.4-0.5,2.77-1.07,4.12-1.8
			c3.67-1.97,6.71-5.01,9.01-8.5C172.71,106.25,168.54,105.63,164.36,105.23z"/>
		<g>
			<path class="st5" d="M135.68,118.43c-0.16,1.83-4.11,2.99-8.83,2.58c-4.72-0.41-8.41-2.23-8.25-4.06
				c0.16-1.83,4.11-2.99,8.83-2.57C132.15,114.78,135.84,116.6,135.68,118.43z"/>
			<path class="st6" d="M118.67,116.74c1.43,1.06,4.03,1.91,7.06,2.17c4.53,0.39,8.32-0.66,8.75-2.36
				c-1.43-1.06-4.03-1.91-7.06-2.17C122.9,113.98,119.11,115.03,118.67,116.74z"/>
		</g>
		<g>
			<path class="st5" d="M158.4,108.9c0.09,1.48-2.92,2.87-6.72,3.1c-3.8,0.24-6.95-0.77-7.04-2.24c-0.09-1.48,2.91-2.86,6.71-3.1
				C155.15,106.43,158.3,107.43,158.4,108.9z"/>
			<path class="st6" d="M144.67,109.58c1.27,0.67,3.43,1.03,5.87,0.88c3.65-0.23,6.53-1.52,6.68-2.92
				c-1.27-0.67-3.43-1.04-5.87-0.88C147.71,106.88,144.82,108.17,144.67,109.58z"/>
		</g>
		<g>
			<path class="st5" d="M161.92,122.29c0.28,1.74-3.12,3.71-7.59,4.43c-4.47,0.71-8.32-0.12-8.59-1.86
				c-0.28-1.74,3.12-3.72,7.59-4.43C157.8,119.72,161.65,120.55,161.92,122.29z"/>
			<path class="st6" d="M145.76,124.64c1.57,0.65,4.17,0.83,7.04,0.38c4.29-0.68,7.56-2.53,7.57-4.21
				c-1.57-0.65-4.17-0.84-7.04-0.38C149.04,121.11,145.78,122.96,145.76,124.64z"/>
		</g>
		<g>
			<path class="st7" d="M150.46,114.52c0.2,2.81-2.88,5.32-6.89,5.61c-4.01,0.29-7.42-1.75-7.62-4.56c-0.2-2.81,2.88-5.32,6.88-5.61
				C146.84,109.67,150.25,111.71,150.46,114.52z"/>
			<path class="st8" d="M144.02,112.88c-0.07-0.23-0.16-0.43-0.23-0.67c-0.13-0.48-0.36-0.98-0.55-1.49c-0.12,0.01-0.24,0-0.37,0.01
				c-1.91,0.14-3.58,0.87-4.63,1.92c0.82,0.5,1.65,1,2.48,1.48C141.71,113.39,142.86,112.9,144.02,112.88z"/>
			<path class="st8" d="M138.52,117.06c0.23-0.59,0.53-1.14,0.89-1.62c-0.67-0.55-1.34-1.1-2.02-1.65c-0.27,0.54-0.4,1.11-0.35,1.7
				c0.03,0.42,0.16,0.82,0.35,1.19c0.34,0.11,0.69,0.22,1.03,0.34C138.45,117.03,138.48,117.05,138.52,117.06z"/>
			<path class="st9" d="M143.51,111.38c-0.09-0.22-0.18-0.44-0.26-0.66c-0.12,0.01-0.24,0-0.37,0.01c-1.91,0.14-3.58,0.87-4.63,1.92
				c0.36,0.22,0.74,0.44,1.1,0.66C140.46,112.17,141.97,111.4,143.51,111.38z"/>
			<path class="st9" d="M137.51,116.73c0.22-0.81,0.52-1.56,0.81-2.07c0.01-0.02,0.03-0.04,0.04-0.07c-0.32-0.27-0.65-0.53-0.98-0.8
				c-0.27,0.54-0.4,1.11-0.35,1.7c0.03,0.42,0.16,0.82,0.35,1.19C137.42,116.7,137.47,116.72,137.51,116.73z"/>
		</g>
		<g>
			<path class="st7" d="M173.12,113.08c0.21,2.81-2.88,5.32-6.88,5.61c-4.01,0.29-7.42-1.75-7.62-4.56
				c-0.21-2.81,2.87-5.32,6.88-5.61C169.5,108.22,172.92,110.27,173.12,113.08z"/>
			<path class="st8" d="M166.69,111.44c-0.08-0.22-0.17-0.44-0.23-0.67c-0.13-0.48-0.35-0.98-0.55-1.49c-0.12,0.01-0.24,0-0.36,0.01
				c-1.91,0.14-3.58,0.87-4.64,1.92c0.82,0.5,1.64,1,2.48,1.48C164.38,111.94,165.52,111.45,166.69,111.44z"/>
			<path class="st8" d="M161.19,115.62c0.22-0.58,0.53-1.14,0.89-1.62c-0.67-0.55-1.34-1.1-2.02-1.64c-0.27,0.53-0.4,1.11-0.35,1.7
				c0.03,0.42,0.16,0.82,0.35,1.19c0.34,0.11,0.69,0.22,1.03,0.33C161.12,115.59,161.15,115.61,161.19,115.62z"/>
			<path class="st9" d="M166.18,109.94c-0.09-0.22-0.18-0.44-0.26-0.66c-0.12,0.01-0.24,0-0.36,0.01c-1.91,0.14-3.58,0.87-4.64,1.92
				c0.37,0.22,0.73,0.44,1.1,0.66C163.13,110.72,164.64,109.95,166.18,109.94z"/>
			<path class="st9" d="M160.18,115.29c0.22-0.82,0.53-1.57,0.81-2.08c0.02-0.02,0.03-0.04,0.04-0.06c-0.32-0.27-0.65-0.53-0.97-0.8
				c-0.27,0.53-0.4,1.11-0.35,1.7c0.03,0.42,0.16,0.82,0.35,1.19C160.09,115.26,160.14,115.27,160.18,115.29z"/>
		</g>
		<g>
			<path class="st10" d="M125.08,103.61c-1.2-0.48-2.59-0.53-3.83-0.24c-1.43,0.33-2.64,1.23-3.94,1.87
				c-0.07-0.03-0.15-0.02-0.23-0.01c-0.04,0.19-0.08,0.37-0.12,0.56c-0.02,0.05-0.04,0.09-0.06,0.14c0.01,0,0.01,0,0.02,0
				c0.39,2.05,1.73,3.94,4,4.04c1.54,0.06,3.03-0.32,4.55-0.3c1.2,0.01,2.53,0.27,3.68-0.15c0.15-0.05,0.23-0.22,0.18-0.37
				C128.56,106.9,127.41,104.56,125.08,103.61z"/>
			<path class="st11" d="M117.92,106.09c-0.55,0.1-1.15-0.02-1.66-0.44c-0.16-0.13-0.28-0.29-0.42-0.44
				c-0.04,0.09-0.06,0.19-0.09,0.27c-0.01,0.05-0.01,0.1,0.01,0.15c-1.31-0.26-2.29,1.17-2.61,2.25c-0.42,1.39-0.46,3.1,0.16,4.45
				c0.1,0.23,0.34,0.29,0.55,0.17c1.53-0.93,3.14-2.32,4.08-3.85c0.37-0.6,0.69-1.32,0.41-2.01
				C118.26,106.4,118.1,106.23,117.92,106.09z"/>
		</g>
		<g>
			<path class="st10" d="M144.83,127.35c-0.75-1.05-1.9-1.84-3.1-2.26c-1.38-0.48-2.89-0.38-4.33-0.53
				c-0.11-0.16-0.35-0.23-0.49-0.07c-0.02-0.01-0.04-0.01-0.06-0.01c-0.07-0.12-0.16-0.23-0.28-0.36c-0.11-0.11-0.21-0.22-0.3-0.33
				c-0.14,0.13-0.28,0.26-0.42,0.39c0.04,0.04,0.09,0.1,0.12,0.13c0.15,0.14,0.31,0.27,0.45,0.42c0.08,0.07,0.19,0.13,0.29,0.2
				c-0.77,1.94-0.65,4.25,1.2,5.56c1.25,0.88,2.72,1.36,4,2.19c1.01,0.65,1.99,1.59,3.19,1.85c0.15,0.03,0.31-0.06,0.35-0.22
				C146.01,132,146.29,129.4,144.83,127.35z"/>
			<path class="st11" d="M140.35,124.57c0.94-1.36,1.05-3.4,0.93-5.07c0.05-0.23,0.12-0.43,0.16-0.59c0.1-0.33-0.32-0.58-0.59-0.41
				c-1.21,0.79-2.48,1.47-3.54,2.46c-0.71,0.67-1.39,1.77-1.12,2.76c-0.09,0.05-0.17,0.13-0.23,0.19c-0.04,0.04-0.05,0.08-0.07,0.13
				c-0.96-0.92-2.56-0.24-3.41,0.5c-1.1,0.95-2.05,2.37-2.26,3.84c-0.03,0.24,0.14,0.43,0.38,0.44c1.79,0.04,3.89-0.27,5.51-1.05
				c0.63-0.31,1.29-0.74,1.43-1.48c0.12-0.59-0.22-1.11-0.64-1.52c0.04-0.02,0.07-0.04,0.1-0.07c0.02-0.03,0.05-0.05,0.08-0.08
				c0.02-0.02,0.04-0.05,0.05-0.07c0.15,0.1,0.29,0.19,0.44,0.24C138.46,125.37,139.64,125.61,140.35,124.57z"/>
		</g>
	</g>
</g>
</svg>
