<?xml version="1.0" encoding="utf-8"?>
<!-- Generator: Adobe Illustrator 25.0.0, SVG Export Plug-In . SVG Version: 6.00 Build 0)  -->
<svg version="1.1" id="Layer_1" xmlns="http://www.w3.org/2000/svg" xmlns:xlink="http://www.w3.org/1999/xlink" x="0px" y="0px"
	 viewBox="0 0 200 200" style="enable-background:new 0 0 200 200;" xml:space="preserve">
<style type="text/css">
	.st0{opacity:0.3;fill:#ABB4B9;enable-background:new    ;}
	.st1{fill:#DD8509;}
	.st2{fill:#E73C20;}
	.st3{fill:#EA533D;}
	.st4{fill:#CE3236;}
	.st5{opacity:0.57;fill:#FFFFFF;enable-background:new    ;}
	.st6{fill:#66210B;}
	.st7{fill:#88A333;}
	.st8{fill:#148336;}
	.st9{fill:#FBC161;}
	.st10{fill:#F8AA37;}
	.st11{opacity:0.6;fill:#F8AA37;enable-background:new    ;}
	.st12{opacity:0.4;fill:#F8AA37;enable-background:new    ;}
	.st13{fill:#F09219;}
</style>
<g>
	<path class="st0" d="M156.9,143.9c-0.1-5.7-27.8-10.1-61.8-9.6c-34.1,0.4-61.6,5.4-61.6,11.2c0.1,5.7,27.7,10.1,61.8,9.6
		C129.4,154.7,157,149.7,156.9,143.9z"/>
	<g>
		<path class="st1" d="M41.6,86.9c7.1-8,9.9-18.1,18-25.8c18.7-17.9,49.2-20,70.8-7c10.4,6.2,22.5,20.7,20.6,34.6
			c-1.8,12.5-21.9,11.2-30.7,10.9c-7.6-0.3-13.2,0.9-20.6,2.6c-8.3,1.9-17.2,1.2-25.5,3.6c-10.4,3-21,10.8-30.2,16.7
			c-2.8,1.8-6.1,6.9-9.5,7.5c-5.4,0.9-2.5-6.1-2-10.5C33.7,108.5,33.9,95.5,41.6,86.9z"/>
		<g>
			<path class="st2" d="M111.7,76.2c0.2-0.1,0.3-0.3,0.4-0.5c2.4,1.2,6.8,0.4,9.4,0.1c3.9-0.5,7.8-0.9,11.6-2
				c5.4-1.5,10.1-4.2,14.3-8.2c2-1.9,4.2-8,7.2-7.8c2.4,0.2,1.3,2.6,2.8,3.6c1.6,1.1,3.4-1.6,4.9,0.8c1.9,3.2-1.6,8.1-3.5,10.4
				c-2.8,3.5-6.2,5.5-10.1,6.9c-7.7,2.8-15.4,3.8-23.3,2.5c-2.6-0.5-5.4,0.2-8.1-0.3c-2.4-0.4-4.8-1-6.9-2c-1.3-0.6-4.2-2.4-3-4.4
				c1.7-2.9,4.3,1.5,6,1.3L111.7,76.2z"/>
			<path class="st3" d="M157.2,62.4c0.3-1-0.9-2.8-1.9-3.7c-1.6-1.5-2.8-1.3-4.8,0c-3.3,2.2-4.5,6.3-7.5,8.8
				c-6.2,5.3-13,7.2-20.3,7.1c-2.6,0-5,0.5-7.5,1c-2.9,0.6-5.1-1.8-7.8-1.1c0.1,4.1,7.9,3.4,10.4,3.1c2.2-0.2,4-0.2,6-0.2
				c1.6,0,1-0.8,2.5,0.1c1,0.6,1.4,1.5,2.7,1.7c1.4-5.7,4.6-1,7.9-3.6c1.4-1.1,2.2-3.1,3.9-3.8c1.6-0.7,3.4,0.1,5-0.1
				c4.3-0.7,1-5.6,4.6-8c5-3.4,1,6,4.4,5.3c2.7-0.5,3.1-5.8,2.3-7.9L157.2,62.4z"/>
			<path class="st4" d="M153.5,58c2.1-0.6,0.9,2.8,1.3,3.7c0.7,1.8,2.2,0.3,3.2,1.8c1.4,2.1-2.5,8.6-4.4,5.8
				c-1.3,0.7-0.2,3.2-2.3,3.4c-1.1,0.1-3.1-2.8-4-0.2c-0.7,1.9,2.4,2.2,0.3,4.4c-0.9,0.9-3.2,1.3-4.3,1.6c-1.5,0.3-3.1,0.4-4.5,0.4
				c-1.8,0-3.5,0.6-5.3,0.9c-1.2,0.2-3.1,0.9-4.2,0.3c-1.9-0.9-0.7-1.9-3.3-1.3c-6.2,1.6-15.5,3.7-17.8-4.5c-0.5,0-1,0.1-1.4,0.5
				c0.5,6.3,12,7.7,16.3,7.4c6.3-0.4,11.9,1.6,18.2-0.5c6.7-2.2,13.1-3.8,17.7-10.3c1.3-1.9,4.5-6.7,3.1-9.1
				c-1.2-1.9-3.1-0.3-4.6-1.3c-1.2-0.8-1.3-2.1-2.8-2.9c-0.6-0.3-1.2-0.6-1.9-0.7c0,0.3,0.2,0.1,0.3,0.3L153.5,58z"/>
			<path class="st5" d="M154.8,59.3c-2.4-4.5-10.5,8.2-12.1,9.8c-3.1,3.2-10.3,7.5-14.6,5.8c3.8,1.6,9.8-1.4,13-3.7
				c1.7-1.2,3.6-3,5.1-4.5c1-1.1,2.8-4.8,3.9-1.8c1-4.1,1.9-1.2,4.7-1.2c0.5-1.4,0.9-4.2-0.7-4.9L154.8,59.3z"/>
		</g>
		<path class="st6" d="M136.8,71c2.8-5.6-11.9-15.1-16.4-11.5c-3.3-9.9-10-2.7-17.3-6.4c0.3-3.2-1.8-3.9-4.3-4
			c-3.8-0.1-4.3,2.3-6.7,4.6c0.7-0.7-4.2,2.2-3.3,1.9c-0.5,0.2-2.8,0.8-3.1,0.9c-1.6,0.5-4.2-2.3-5,2.8c-2,0-6.1-2-7.5-1.6
			c-1.5,0.4-2.3,2.4-3.5,2.9c0.8-0.3-3.8,2-3,1.3c-1.7,1.4-3.3,3.6-5.2,5.2c-1.4,1.1-3.8,0.9-5.4,2.3c-1.4,1.3-1,3-2,4.3
			c-7,8.4-17.9,19.6-19.3,31.7C48.1,87.2,63.9,69.1,86,63.7c4.3-1.1,8.6,0.2,12.6-1.1c1.9-0.6,2.4-2.3,4.5-2.6
			c1.6-0.3,4.9,1,6.6,1.4c6.9,1.7,18.7,2.7,24.1,7.1c1.5,1.2,3.3,4.5,4,6.2c-0.5-0.2-0.7-0.6-0.6-1.3L136.8,71z"/>
		<path class="st4" d="M75.4,62.1c-4-2.3-4.3,2.7-5.9,4.9c-1.4,1.9-4.1,2.8-4.6,5.3c2.5,0.4,7-3.2,9.6-4.2c2.4-1,6.9-1.6,8.3-3.8
			c-2.5-1.4-5.1-3.3-8.2-2.1L75.4,62.1z"/>
		<path class="st7" d="M92.2,49.9c-0.2,0.5-1.3,1.9-1.7,2.8c-1.2-1.1-0.8-3.5-2.8-4c0,0-6,0.8-5.9,0.8c-7.2,4,2.8,7-1.2,11.2
			c0.3,0.2,0.7,0.5,1,0.7c3.7-3.4,11.3-5.9,16-4.1c3.3-3.3-2.5-7.9-5.3-6.1L92.2,49.9z"/>
		<path class="st7" d="M114.2,54.3c-0.4-3,7.6-9.8,10.7-9.4c-0.6,4.2-4.5,6.2-6,9.8c1.3,0.7,3,0.8,4.4,1c-0.4,0.8-0.3,2.2-0.8,3
			c3.2,1.5,11.3,0,9.1,6.9c-4-1.6-10.5-8.4-15.4-6.1c-0.6-2.4,0.6-5.4-3.2-5.3c-2.6,0.1-3.9,3.5-7,2.2C106.4,52,112,52.4,114.2,54.3
			L114.2,54.3z"/>
		<g>
			<path class="st2" d="M97.2,75.6c-0.2,0-0.4,0.1-0.6,0.1c-1.1-2.5-5-4.7-7.2-6.1c-3.3-2.1-6.6-4.3-10.2-5.8
				c-5-2.2-10.3-3.1-15.9-2.5c-2.7,0.3-8,3.7-10.2,1.6c-1.8-1.7,0.5-3,0-4.7c-0.6-1.9-3.6-0.9-3.3-3.8c0.4-3.8,6-5.5,8.9-6.1
				c4.2-1,8.1-0.5,12,0.9C78.3,52,84.8,56,90.1,62.1c1.8,2,4.3,3.3,6.1,5.4c1.6,1.9,3.1,3.9,4.1,6c0.7,1.3,1.8,4.6-0.3,5.5
				c-3,1.2-2.5-4-3.9-4.9L97.2,75.6z"/>
			<path class="st3" d="M53.8,57.7c-0.9,0.6-0.9,2.8-0.7,4.1c0.4,2.3,1.4,2.9,3.7,3.1c3.8,0.4,7.2-2.2,11-2.3
				c8-0.3,14.3,2.6,19.9,7.3c2,1.7,4.1,2.8,6.4,4c2.6,1.4,2.9,4.7,5.4,5.9c2.3-3.3-4.1-7.8-6.2-9.2c-1.8-1.2-3.2-2.4-4.8-3.7
				c-1.2-1-1.2,0-1.9-1.7c-0.4-1.2-0.2-2.1-1.1-3.1C81,65.8,81.4,60,77.3,60c-1.8,0-3.5,1-5.3,0.5c-1.7-0.5-2.6-2.3-3.9-3.1
				c-3.7-2.2-4.1,3.8-8.3,3.5c-5.9-0.5,2.8-5.4-0.3-7.1c-2.5-1.3-5.8,2.7-6.4,4.9L53.8,57.7z"/>
			<path class="st4" d="M54,63.5c-2-0.8,0.9-2.9,1.2-3.8c0.5-1.9-1.5-1.6-1.4-3.5c0.1-2.6,7.1-5.3,6.8-1.9c1.5,0.2,2-2.4,3.7-1.2
				c0.9,0.6,0.7,4.2,3,2.8c1.7-1.1-0.6-3.3,2.4-3.7c1.2-0.2,3.2,1,4.3,1.5c1.4,0.7,2.6,1.6,3.8,2.5c1.4,1.1,3.1,1.8,4.6,2.7
				c1.1,0.6,2.9,1.2,3.5,2.4c0.9,1.9-0.6,2,1.8,3.1c5.7,2.7,14.2,6.9,11.1,14.9c0.3,0.3,0.9,0.5,1.4,0.5c3.3-5.4-4.7-13.8-8.2-16.3
				c-5.1-3.7-8.3-8.8-14.3-11.2c-6.5-2.5-12.4-5.3-19.8-3c-2.1,0.6-7.4,2.5-7.8,5.3c-0.3,2.3,2.2,2.2,2.8,4c0.5,1.4-0.3,2.5,0.4,4.1
				c0.3,0.7,0.5,1.2,1,1.8c0.2-0.3-0.1-0.2-0.1-0.4L54,63.5z"/>
			<path class="st5" d="M53.8,61.6c-0.9,5.1,13,0.1,15.2-0.2c4.3-0.6,12.4,0.6,14.7,4.6c-2-3.7-8.4-5.1-12.3-5.3
				c-2-0.1-4.6,0.1-6.6,0.4c-1.4,0.2-5,2.1-4-1c-3.2,2.6-2.1-0.2-4.3-2c-1.2,0.9-3.2,2.8-2.4,4.3L53.8,61.6z"/>
			<path class="st8" d="M52.9,59.9c0.5,1-0.4,3.3-1.8,3.7c0.1-1.8,0.6-2.1-1-3c-0.8-0.4-2.1-0.5-3.1-0.5c-2.7,0.1-5.2,0.9-8,0.5
				c-2.7-0.4-5.4-2.1-6.1-4.9c-0.5-1.9,1-7.6,3.4-7.3c-0.4,2-1.9,2.8-1.7,5.3c0.2,2.2,1.3,4.6,3.3,5.4c2.9,1.2,10.9,0.2,12.1-3.2
				c1.7,0.8,3.5,2.3,2.9,4.5L52.9,59.9z"/>
		</g>
		<g>
			<g>
				<path class="st9" d="M42,136.9c10.4-2.8,19.8-7.8,30.7-9.8c13-2.4,24.7-3.9,37.8-2.8c14.9,1.2,33.1,8.2,43.9,18.9
					c7.6-6.3,9.3-19.3,9-28.7c-0.5-14.2-9.4-26.1-18.8-35.5c-5-4.9-10.8-9.9-17-13c-5.3-2.6-9.7-2-15.1-3.3
					c-2.5-0.6-4.4-2.1-6.8-2.6c-4.8-0.9-4.5,1.3-8.4,3.1c-5.5,2.6-12.2,0.8-18.3,2.9c-21.3,7.4-37,25.8-44.5,47.4
					c-3,8.6-4.5,18.9-1.9,27.8c3.2,10.9,6.5-4.3,12.1-4.8L42,136.9z"/>
				<path class="st10" d="M80.1,71c-16.5-3.2-32.4,21.9-37,34.9c-3.4,9.5-5.7,18.3-6.7,28.2c-0.6,6.2-1.5,8.2,3.6,4.4
					c4.6-3.3,6.5-3.8,11.5-5c4.2-0.9,10.7-2.8,14.3-5.2c-4.3-1.1-8.4-2.5-7.9-7.6c0.7-7.2,5.6-4.4,9.5-6.7c5.8-3.3,0.7-6.2-0.3-10
					c-1.3-4.8,2.4-12.3,5.3-15.9c4.3-5.4,9.5-6.7,16-7.3c4.6-0.4,12.6,1,9.4-4.7c-2.8-5.1-16-7.3-20.9-5.5L80.1,71z"/>
				<path class="st11" d="M134.3,74.2c3.2,5.2,3.9,20.8-3.6,23.1c-2.7,0.8-6.9-1.9-9.6-2.3c-6.9-0.9-14.8-0.2-21.5,0.8
					c-11.9,1.8-23.1,5.8-33.5,12.4c-6.7,4.3-19.9,17.1-21,25.6c4.3,0.4,11.4-4.1,16.3-5.2c6.4-1.4,13-3.1,19.4-4.2
					c11.8-2,23.5-2.1,35.3-0.9c9.4,0.9,18.1,3.1,25.7,8.5c2.5,1.8,7.8,8.1,11.2,7.4c3.4-0.7,5.3-7.8,6-11.2c2.2-11.1,0.4-25-6.1-34
					c-4.7-6.5-10.9-17.7-17.7-21L134.3,74.2z"/>
			</g>
			<path class="st12" d="M147.4,88.4c-0.9,3.2-1.3,5.9-3.9,8c-2.9,2.3-3.8,1.9-5.8,4.7c-4.2,6-9.3,7.4-16.1,9.6
				c-9,2.9-18.6,3.2-27.7,4.8c-5.3,0.9-14.8,3.6-17.5,8.9c8-1.2,15.8-4.2,24-4.5c7.7-0.3,15.4,1,22.9,2.9c6.6,1.7,13.2,3.7,18.7,7.5
				c2.3,1.6,4.9,3.4,6.8,5.5c1.8,2,2.4,4.4,5.3,4.9c7-6.1,6.5-22,4.5-29.9c-1.5-6.3-6.1-20-13.4-21.2L147.4,88.4z"/>
			<path class="st12" d="M140.8,91.9c-4.2,0.4,0.2,6.2-0.5,8.2c-0.5,1.4-2.8,1.7-3.4,3.5c-0.8,2.5,1.1,3.6,1.1,6
				c-0.2,8.7-12.1-0.3-11.5,7.3c-3.3-1.2-4.7-0.1-7.8,0.7c-2.6,0.6-7.1-0.6-8.6,2c3.5,1.6,8.4,0.3,12.1,1.1c3.9,0.8,7.6,2.3,11.2,4
				c6.4,3.2,10,10.5,16,13.6c2.2-3.5-2-5.2-3.2-7.9c2.4-1-0.9-3.2-1.7-4.8c6.7-1.3-3.6-4.8-3-6.7c0.7-2,3.5-0.7,4.9-1.6
				c1.7-1.1,2.5-3.4,3.1-5.2c-5.7-3.9-1.1-6.2-1.1-11.3c0-1.9-2.3-6.8-3.5-8.2c-1.9-2.2-5.5-1.4-4.4,0L140.8,91.9z"/>
		</g>
		<path class="st12" d="M58.2,85.5c-3.2-2.7-5.6,5.8-6.5,7.6c-0.8,1.6-2.4,2.8-3.4,4.4c-1.4,2.4-1.8,5.3-2.7,7.9
			c-2.9,8.3-5.8,15.6-5.6,24.3c0,1.8-4.8,13.2-4.4,13.4c1.1,1,4.2-4.5,5-5.4c1.9-2,3.5-2.4,6-3.1c6.9-1.9,14.9-4.3,21.6-7.3
			c-3.1-1.2-6.8,1.3-10,1.5c-3.5,0.2-6.3-1.5-8-4.6c-1.8-3.4-0.9-4.8-0.3-8.2c0.5-3-0.8-5.1,0.7-8.2c0.8-1.5,1.9-2.8,2.3-4.4
			c0.5-1.9,0.1-3.6,0.3-5.5c0.2-2.5,1.2-6,3.2-7.6c1.6-1.3,5.6-1.6,5.4-4.5c-0.2-2.9-3.4-1.6-4.9-0.6L58.2,85.5z"/>
		<path class="st10" d="M95.8,95.8c-0.2,0.6-0.8,1-1.4,0.8c-0.6-0.2-0.9-0.8-0.7-1.4c0.2-0.6,0.8-0.9,1.4-0.8
			C95.6,94.6,95.9,95.2,95.8,95.8z"/>
		<path class="st10" d="M110.4,86.6c-0.5,1.8-2.3,2.8-4,2.3c-1.7-0.5-2.6-2.4-2.1-4.1c0.5-1.8,2.3-2.8,4-2.3
			C110,82.9,110.9,84.8,110.4,86.6z"/>
		<path class="st10" d="M108.1,95.2c-0.2,0.6-0.7,0.9-1.3,0.7c-0.5-0.2-0.8-0.8-0.7-1.3c0.2-0.6,0.7-0.9,1.3-0.7
			C108,94.1,108.3,94.7,108.1,95.2z"/>
		<path class="st10" d="M113,93.9c-0.1,0.3-0.2,0.6-0.2,0.6S112.9,94.3,113,93.9c0.1-0.3,0.2-0.6,0.2-0.6S113.1,93.6,113,93.9z"/>
		<path class="st10" d="M88.8,85.2c-0.2,0.8-1,1.3-1.8,1c-0.8-0.2-1.2-1-1-1.8c0.2-0.8,1-1.3,1.8-1C88.6,83.6,89,84.4,88.8,85.2z"/>
		<path class="st10" d="M83.6,89c-0.3,1.1-1.4,1.7-2.4,1.4c-1-0.3-1.6-1.4-1.3-2.5c0.3-1.1,1.4-1.7,2.4-1.4
			C83.3,86.8,83.9,87.9,83.6,89z"/>
		<path class="st10" d="M76.5,96c-0.2,0.8-1.1,1.3-1.9,1.1c-0.8-0.2-1.2-1.1-1-1.9c0.2-0.8,1.1-1.3,1.9-1.1
			C76.3,94.3,76.7,95.1,76.5,96z"/>
		<path class="st10" d="M73.4,104.1c-0.6,2.1-2.7,3.3-4.7,2.7c-2-0.6-3.1-2.7-2.5-4.8c0.6-2.1,2.7-3.3,4.7-2.7
			C72.9,99.9,74,102,73.4,104.1z"/>
		<path class="st13" d="M85.6,106.8c-0.5,1.6-2.1,2.6-3.7,2.1c-1.6-0.5-2.4-2.2-2-3.8c0.5-1.6,2.1-2.6,3.7-2.1
			C85.2,103.5,86.1,105.2,85.6,106.8z"/>
		<path class="st13" d="M92.4,90.5c-0.2,0.5-0.7,0.8-1.2,0.7c-0.5-0.1-0.8-0.7-0.6-1.2c0.2-0.5,0.7-0.8,1.2-0.7
			C92.3,89.4,92.6,90,92.4,90.5z"/>
		<path class="st13" d="M96,91.1c-0.1,0.3-0.4,0.5-0.6,0.4c-0.3-0.1-0.4-0.4-0.3-0.7c0.1-0.3,0.4-0.5,0.6-0.4
			C95.9,90.5,96.1,90.8,96,91.1z"/>
		<path class="st13" d="M108,102.4c-0.2,0.6-0.8,1-1.4,0.8c-0.6-0.2-0.9-0.8-0.7-1.4c0.2-0.6,0.8-1,1.4-0.8
			C107.9,101.2,108.2,101.8,108,102.4z"/>
		<path class="st13" d="M113.1,102.4c0,0.2-0.2,0.2-0.3,0.2c-0.1,0-0.2-0.2-0.2-0.4c0-0.2,0.2-0.2,0.3-0.2
			C113.1,102.1,113.2,102.3,113.1,102.4z"/>
		<path class="st13" d="M120.1,90.8c-0.3,1.1-1.4,1.7-2.5,1.4s-1.6-1.4-1.3-2.5c0.3-1.1,1.4-1.7,2.5-1.4
			C119.8,88.5,120.4,89.7,120.1,90.8z"/>
		<path class="st13" d="M121,98.8c-0.1,0.5-0.6,0.7-1,0.6c-0.4-0.1-0.7-0.6-0.6-1.1c0.1-0.5,0.6-0.7,1-0.6
			C120.9,97.9,121.1,98.3,121,98.8z"/>
		<path class="st13" d="M125.3,87.3c-0.1,0.2-0.2,0.3-0.4,0.2c-0.2,0-0.3-0.2-0.2-0.4c0.1-0.2,0.2-0.3,0.4-0.2
			C125.2,86.9,125.3,87.1,125.3,87.3z"/>
		<path class="st12" d="M103,64.9c-2.3,0.4-3.3,2.9-5.6,3.5c-2.7,0.6-5.1-0.9-7.8,0.1c-2.5,1-3.6,2.9-6.5,3.3
			c-3.7,0.5-5.1,2.4-8.2,3.7c-2.9,1.2-5.7,0.5-8.5,2.8c-2.4,2-2.2,3.5-5.2,4.7c-5.7,2.3-9.8,10.3-12.5,15.6
			c-4.1,8-5.9,16.2-6.6,25.1c-0.5,6.1-1.3,11.3-3.5,17.1c2.6-2.5,4-4.1,7.5-5.6c1.8-0.8,8.1-3,8.8-4.7c-2.7,0.6-7.4,3.9-9.2,0.3
			c-0.9-1.9-0.5-7.1-0.2-9.3c0.9-7.1,2.2-14.1,4.9-20.8c2.6-6.7,6.5-12.8,12.8-16.2c1.4-0.7,1.8,0.2,3-1.6c0.6-1,0.3-2.8,1-3.6
			c1-1.2,5.1-2.6,6.7-2.7c3.3-0.3,3.7-0.9,6.4-2.9c2.3-1.7,5.3-2,7.8-2.7c1.3-0.4,2.5-1,3.9-1.5c1.4-0.4,1.8,0,3.2-0.1
			c2.5-0.1,6-1.6,7.5-3.7c-0.3-0.1-0.4,0.1-0.7,0.1L103,64.9z"/>
	</g>
	<path class="st8" d="M168.7,51.3V50c-0.5,0.2-1,0.4-1.5,0.7c-2.4,1.5-4,3.7-6.1,5.5c-0.7,0.6-1.9,1.4-2.8,1.6
		c-1.8,0.3-1.6-0.3-2.5-1.7c-0.8,1.1-0.4,3.1,0.5,3.8c0.9,1.9,3.2,1.9,4.9,1.5C160.2,58.1,165.7,52.5,168.7,51.3z"/>
</g>
</svg>
