<?xml version="1.0" encoding="utf-8"?>
<!-- Generator: Adobe Illustrator 25.0.0, SVG Export Plug-In . SVG Version: 6.00 Build 0)  -->
<svg version="1.1" id="Layer_1" xmlns="http://www.w3.org/2000/svg" xmlns:xlink="http://www.w3.org/1999/xlink" x="0px" y="0px"
	 viewBox="0 0 200 200" style="enable-background:new 0 0 200 200;" xml:space="preserve">
<style type="text/css">
	.st0{opacity:0.3;fill:#ABB4B9;}
	.st1{fill:#DD8509;}
	.st2{fill:#E73C20;}
	.st3{fill:#EA533D;}
	.st4{fill:#CE3236;}
	.st5{opacity:0.57;fill:#FFFFFF;}
	.st6{fill:#66210B;}
	.st7{fill:#88A333;}
	.st8{fill:#148336;}
	.st9{fill:#FBC161;}
	.st10{fill:#F8AA37;}
	.st11{opacity:0.6;fill:#F8AA37;}
	.st12{opacity:0.4;fill:#F8AA37;}
	.st13{fill:#F09219;}
</style>
<path class="st0" d="M183.32,165.35c-0.1-8.14-39.29-14.25-87.54-13.66c-48.25,0.6-87.28,7.68-87.17,15.82
	c0.1,8.14,39.29,14.25,87.54,13.65C144.39,180.57,183.42,173.49,183.32,165.35z"/>
<g>
	<path class="st1" d="M20.03,84.62c10.09-11.33,14.08-25.65,25.51-36.56c26.53-25.3,69.62-28.31,100.27-9.98
		c14.7,8.79,31.89,29.31,29.12,48.95c-2.49,17.68-31,15.88-43.43,15.46c-10.78-0.38-18.67,1.23-29.11,3.67
		c-11.75,2.75-24.39,1.75-36.14,5.12c-14.78,4.24-29.75,15.3-42.73,23.62c-4.02,2.58-8.68,9.75-13.39,10.55
		c-7.69,1.31-3.47-8.63-2.86-14.81C8.8,115.19,9.12,96.87,20.03,84.62z"/>
	<g>
		<path class="st2" d="M119.22,69.48c0.22-0.18,0.4-0.46,0.57-0.7c3.34,1.76,9.6,0.61,13.35,0.15c5.56-0.7,11.05-1.25,16.48-2.8
			c7.58-2.17,14.26-5.93,20.22-11.68c2.81-2.71,6.01-11.26,10.23-10.98c3.45,0.23,1.89,3.71,3.95,5.12c2.2,1.51,4.85-2.21,6.89,1.17
			c2.72,4.49-2.25,11.44-4.98,14.77c-4.01,4.9-8.8,7.82-14.37,9.82c-10.97,3.93-21.75,5.44-32.94,3.52
			c-3.72-0.64-7.7,0.32-11.43-0.38c-3.35-0.62-6.73-1.46-9.78-2.89c-1.87-0.88-5.88-3.42-4.23-6.24c2.38-4.08,6.15,2.16,8.56,1.86
			L119.22,69.48z"/>
		<path class="st3" d="M183.64,49.87c0.48-1.48-1.27-3.91-2.65-5.2c-2.31-2.15-4-1.86-6.83-0.01c-4.61,3.05-6.36,8.88-10.62,12.52
			c-8.83,7.54-18.43,10.14-28.79,10.05c-3.72-0.03-7.05,0.64-10.67,1.42c-4.15,0.9-7.17-2.51-11.1-1.62
			c0.12,5.76,11.24,4.8,14.78,4.39c3.08-0.35,5.7-0.24,8.51-0.3c2.22-0.05,1.42-1.08,3.59,0.21c1.47,0.87,1.92,2.11,3.89,2.35
			c2.03-8.08,6.51-1.45,11.19-5.04c2.02-1.56,3.14-4.33,5.58-5.35c2.28-0.97,4.84,0.16,7.03-0.17c6.03-0.93,1.48-7.96,6.48-11.33
			c7.09-4.79,1.4,8.47,6.28,7.52c3.89-0.77,4.37-8.16,3.21-11.12L183.64,49.87z"/>
		<path class="st4" d="M178.48,43.69c2.91-0.88,1.34,3.99,1.8,5.2c0.97,2.53,3.05,0.46,4.5,2.56c2.03,2.93-3.57,12.21-6.16,8.22
			c-1.87,1.06-0.24,4.48-3.22,4.75c-1.61,0.15-4.35-3.92-5.69-0.35c-0.99,2.66,3.41,3.12,0.41,6.19c-1.26,1.29-4.51,1.83-6.13,2.21
			c-2.13,0.48-4.34,0.54-6.41,0.6c-2.56,0.07-4.98,0.86-7.52,1.25c-1.75,0.28-4.35,1.26-5.99,0.49c-2.7-1.27-1-2.74-4.7-1.8
			c-8.74,2.22-21.88,5.28-25.18-6.31c-0.66-0.06-1.46,0.21-1.99,0.7c0.77,8.86,17,10.88,23.07,10.47c8.91-0.6,16.82,2.23,25.72-0.65
			c9.47-3.07,18.5-5.43,25.03-14.6c1.88-2.64,6.36-9.46,4.35-12.86c-1.63-2.74-4.37-0.41-6.47-1.82c-1.73-1.17-1.77-3.01-3.93-4.16
			c-0.89-0.47-1.65-0.88-2.71-1.05c-0.07,0.49,0.31,0.11,0.47,0.39L178.48,43.69z"/>
		<path class="st5" d="M180.35,45.57c-3.33-6.4-14.91,11.64-17.09,13.93c-4.33,4.56-14.63,10.57-20.65,8.23
			c5.38,2.25,13.84-2.05,18.41-5.3c2.41-1.7,5.15-4.2,7.2-6.37c1.4-1.49,3.95-6.75,5.46-2.5c1.45-5.74,2.62-1.7,6.6-1.73
			c0.65-2.05,1.26-5.88-0.96-6.89L180.35,45.57z"/>
	</g>
	<path class="st6" d="M154.8,62.1c3.95-7.92-16.91-21.43-23.2-16.24c-4.63-14.05-14.14-3.84-24.48-9.02
		c0.49-4.59-2.57-5.51-6.04-5.62c-5.33-0.18-6.07,3.3-9.46,6.58c0.97-0.94-5.9,3.14-4.62,2.71c-0.76,0.25-3.93,1.15-4.39,1.29
		c-2.31,0.69-5.99-3.28-7.11,3.9c-2.79,0.05-8.61-2.8-10.61-2.28c-2.09,0.55-3.32,3.42-5,4.12c1.07-0.45-5.44,2.84-4.3,1.88
		c-2.35,1.97-4.61,5.14-7.41,7.31c-1.98,1.53-5.44,1.22-7.67,3.29c-1.92,1.79-1.37,4.27-2.87,6.09
		c-9.9,11.96-25.32,27.71-27.31,44.88C29.15,85.11,51.6,59.43,82.89,51.76c6.12-1.51,12.2,0.31,17.9-1.59
		c2.65-0.88,3.37-3.24,6.36-3.73c2.28-0.38,6.98,1.41,9.28,1.97c9.78,2.35,26.41,3.82,34.15,10.06c2.09,1.69,4.71,6.33,5.64,8.76
		c-0.69-0.3-0.99-0.9-0.9-1.81L154.8,62.1z"/>
	<path class="st4" d="M67.86,49.49c-5.64-3.21-6.06,3.76-8.4,6.9c-2.02,2.71-5.77,3.9-6.58,7.57c3.52,0.6,9.92-4.46,13.6-5.99
		c3.43-1.42,9.83-2.25,11.72-5.32c-3.61-2.03-7.29-4.64-11.55-2.93L67.86,49.49z"/>
	<path class="st7" d="M91.69,32.19c-0.3,0.77-1.83,2.69-2.4,3.96c-1.71-1.62-1.17-4.89-3.9-5.7c-0.01,0-8.45,1.16-8.3,1.08
		c-10.23,5.66,3.98,9.94-1.75,15.88c0.44,0.34,0.93,0.73,1.35,1.05c5.26-4.84,15.99-8.41,22.6-5.82c4.74-4.7-3.59-11.18-7.56-8.65
		L91.69,32.19z"/>
	<path class="st7" d="M122.79,38.41c-0.55-4.22,10.81-13.84,15.18-13.24c-0.84,5.97-6.36,8.81-8.5,13.94
		c1.91,0.96,4.26,1.19,6.24,1.42c-0.63,1.16-0.47,3.09-1.08,4.25c4.49,2.17,16.01,0.06,12.86,9.73
		c-5.69-2.21-14.88-11.83-21.78-8.63c-0.84-3.43,0.84-7.69-4.6-7.55c-3.73,0.1-5.51,4.99-9.9,3.1
		C111.77,35.18,119.72,35.76,122.79,38.41L122.79,38.41z"/>
	<g>
		<path class="st2" d="M98.72,68.61c-0.27,0-0.58,0.11-0.85,0.2c-1.54-3.56-7.06-6.62-10.24-8.63c-4.72-2.99-9.29-6.05-14.41-8.27
			c-7.15-3.1-14.55-4.33-22.57-3.52c-3.78,0.38-11.33,5.21-14.42,2.29c-2.54-2.39,0.73-4.18-0.03-6.63
			c-0.81-2.62-5.06-1.32-4.64-5.33c0.56-5.36,8.51-7.75,12.61-8.69c6-1.38,11.45-0.67,16.94,1.28c10.83,3.84,20.06,9.52,27.59,18.2
			c2.5,2.88,6.15,4.66,8.63,7.6c2.22,2.64,4.35,5.46,5.86,8.56c0.93,1.9,2.52,6.51-0.42,7.72c-4.27,1.76-3.48-5.66-5.53-6.96
			L98.72,68.61z"/>
		<path class="st3" d="M37.23,43.24c-1.25,0.89-1.34,3.96-1.03,5.86c0.52,3.2,1.99,4.05,5.28,4.36c5.38,0.5,10.19-3.08,15.64-3.28
			c11.31-0.42,20.27,3.62,28.24,10.3c2.86,2.39,5.83,3.99,9.1,5.67c3.74,1.92,4.07,6.59,7.63,8.38c3.32-4.7-5.86-11.03-8.84-12.96
			c-2.59-1.67-4.56-3.44-6.77-5.18c-1.75-1.37-1.74-0.03-2.65-2.45c-0.62-1.65-0.24-2.93-1.62-4.37c-6.36,5.2-5.9-2.99-11.65-3.09
			c-2.49-0.04-5,1.46-7.49,0.74c-2.34-0.68-3.65-3.23-5.55-4.35c-5.22-3.11-5.87,5.44-11.73,4.97c-8.32-0.68,3.94-7.7-0.4-10.05
			c-3.47-1.87-8.23,3.77-9.08,6.89L37.23,43.24z"/>
		<path class="st4" d="M37.56,51.51c-2.78-1.15,1.33-4.06,1.69-5.32c0.75-2.66-2.08-2.32-1.96-4.93c0.16-3.65,10-7.54,9.64-2.68
			c2.07,0.35,2.84-3.44,5.3-1.76c1.33,0.9,1.04,5.92,4.19,3.91c2.35-1.5-0.79-4.67,3.35-5.23c1.74-0.24,4.58,1.4,6.05,2.14
			c1.94,0.97,3.68,2.33,5.32,3.6c2.03,1.58,4.36,2.49,6.57,3.8c1.51,0.89,4.11,1.76,4.93,3.42c1.33,2.74-0.85,2.84,2.57,4.45
			c8.08,3.79,20.06,9.71,15.76,21.14c0.48,0.47,1.25,0.75,1.95,0.7c4.66-7.61-6.71-19.59-11.65-23.13
			c-7.26-5.2-11.69-12.53-20.29-15.9c-9.15-3.58-17.54-7.44-28.02-4.24c-3.03,0.92-10.53,3.53-10.99,7.55
			c-0.37,3.24,3.14,3.12,3.93,5.6c0.64,2.04-0.42,3.55,0.58,5.84c0.4,0.95,0.75,1.76,1.46,2.58c0.35-0.36-0.16-0.29-0.12-0.62
			L37.56,51.51z"/>
		<path class="st5" d="M37.23,48.8c-1.22,7.26,18.44,0.16,21.48-0.28c6.05-0.9,17.58,0.85,20.86,6.56
			c-2.84-5.24-11.93-7.18-17.39-7.5c-2.88-0.17-6.48,0.08-9.36,0.53c-1.97,0.3-7.05,2.91-5.7-1.48c-4.52,3.68-3.04-0.31-6.14-2.82
			c-1.72,1.23-4.46,3.92-3.34,6.15L37.23,48.8z"/>
		<path class="st8" d="M35.97,46.41c0.75,1.47-0.51,4.7-2.49,5.2c0.2-2.51,0.87-3.04-1.35-4.26c-1.13-0.62-3.01-0.76-4.37-0.71
			c-3.76,0.16-7.41,1.25-11.31,0.71c-3.87-0.53-7.61-3.04-8.61-6.89c-0.71-2.71,1.47-10.75,4.88-10.31
			c-0.51,2.77-2.76,4.01-2.45,7.46c0.27,3.12,1.83,6.5,4.63,7.63c4.06,1.64,15.43,0.23,17.07-4.58c2.37,1.12,4.93,3.24,4.08,6.41
			L35.97,46.41z"/>
	</g>
	<g>
		<g>
			<path class="st9" d="M20.51,155.37c14.7-3.92,28.02-11.04,43.5-13.84c18.43-3.33,35-5.53,53.57-3.97
				c21.13,1.76,46.8,11.66,62.14,26.7c10.7-8.95,13.23-27.38,12.77-40.61c-0.7-20.15-13.27-37.01-26.65-50.22
				c-7.02-6.92-15.31-14.06-24.11-18.36c-7.51-3.69-13.67-2.84-21.32-4.72c-3.5-0.86-6.18-2.98-9.69-3.65
				c-6.78-1.29-6.41,1.83-11.91,4.45c-7.76,3.7-17.21,1.15-25.87,4.15C42.77,65.76,20.55,91.76,9.98,122.39
				c-4.21,12.18-6.41,26.82-2.7,39.36c4.57,15.43,9.22-6.04,17.15-6.8L20.51,155.37z"/>
			<path class="st10" d="M74.53,62.14c-23.38-4.58-45.81,31.03-52.42,49.42c-4.82,13.42-8.13,25.95-9.53,39.89
				c-0.89,8.84-2.15,11.55,5.15,6.27c6.49-4.7,9.16-5.41,16.32-7.01c5.98-1.33,15.2-3.91,20.23-7.36
				c-6.12-1.62-11.84-3.57-11.14-10.75c1-10.13,7.87-6.29,13.41-9.49c8.15-4.69,0.96-8.76-0.42-14.13
				c-1.77-6.83,3.36-17.48,7.46-22.58c6.14-7.65,13.43-9.46,22.71-10.31c6.45-0.59,17.82,1.48,13.37-6.72
				c-3.95-7.28-22.71-10.27-29.53-7.74L74.53,62.14z"/>
			<path class="st11" d="M151.2,66.58c4.55,7.37,5.49,29.51-5.12,32.72c-3.78,1.14-9.76-2.74-13.57-3.27
				c-9.7-1.34-20.89-0.34-30.51,1.16c-16.81,2.61-32.73,8.24-47.4,17.62c-9.53,6.09-28.17,24.15-29.68,36.2
				c6.15,0.56,16.11-5.78,23.03-7.34c9.05-2.04,18.34-4.34,27.51-5.91c16.75-2.85,33.28-2.91,49.98-1.27
				c13.28,1.32,25.58,4.36,36.37,12.1c3.53,2.54,11.04,11.4,15.86,10.46c4.75-0.93,7.45-10.98,8.45-15.89
				c3.17-15.65,0.62-35.39-8.69-48.08c-6.71-9.14-15.39-25.09-25.12-29.76L151.2,66.58z"/>
		</g>
		<path class="st12" d="M169.86,86.71c-1.33,4.47-1.85,8.29-5.57,11.28c-4.07,3.27-5.4,2.64-8.22,6.61
			c-5.98,8.43-13.17,10.45-22.86,13.56c-12.73,4.08-26.3,4.6-39.25,6.81c-7.49,1.27-21.01,5.09-24.78,12.66
			c11.34-1.65,22.4-5.94,34.05-6.38c10.97-0.41,21.85,1.42,32.4,4.11c9.33,2.37,18.66,5.24,26.42,10.62
			c3.22,2.23,6.99,4.82,9.63,7.72c2.55,2.79,3.46,6.16,7.53,6.88c9.94-8.64,9.15-31.1,6.38-42.39c-2.19-8.88-8.6-28.28-18.97-30.05
			L169.86,86.71z"/>
		<path class="st12" d="M160.46,91.65c-5.88,0.63,0.25,8.77-0.68,11.65c-0.65,2.01-3.99,2.47-4.8,4.98
			c-1.14,3.52,1.57,5.11,1.51,8.47c-0.23,12.34-17.16-0.36-16.22,10.37c-4.68-1.69-6.66-0.08-10.98,1.01
			c-3.64,0.91-10.09-0.85-12.16,2.84c4.91,2.23,11.87,0.48,17.2,1.62c5.51,1.17,10.82,3.21,15.79,5.71
			c9.09,4.57,14.15,14.83,22.62,19.2c3.13-4.98-2.86-7.31-4.48-11.21c3.35-1.43-1.31-4.53-2.44-6.8c9.53-1.89-5.13-6.82-4.18-9.54
			c1-2.82,4.94-0.97,6.91-2.22c2.37-1.51,3.56-4.85,4.37-7.39c-8.02-5.54-1.56-8.78-1.53-15.98c0.01-2.62-3.29-9.64-5.01-11.58
			c-2.75-3.09-7.83-1.97-6.23-0.05L160.46,91.65z"/>
	</g>
	<path class="st12" d="M43.49,82.64c-4.5-3.81-7.89,8.16-9.24,10.81c-1.18,2.33-3.45,3.94-4.8,6.3c-1.98,3.45-2.51,7.52-3.8,11.25
		c-4.05,11.7-8.17,22.13-7.89,34.43c0.06,2.48-6.74,18.63-6.3,19.04c1.51,1.37,5.96-6.43,7.09-7.62c2.66-2.8,4.93-3.36,8.47-4.32
		c9.8-2.66,21.06-6.02,30.55-10.29c-4.37-1.75-9.69,1.89-14.13,2.1c-4.9,0.23-8.95-2.08-11.33-6.52c-2.6-4.88-1.25-6.82-0.44-11.61
		c0.73-4.28-1.2-7.24,0.95-11.57c1.07-2.16,2.63-3.9,3.26-6.26c0.72-2.67,0.15-5.11,0.41-7.81c0.34-3.5,1.74-8.47,4.6-10.82
		c2.24-1.83,7.99-2.2,7.7-6.41c-0.28-4.13-4.87-2.33-6.95-0.87L43.49,82.64z"/>
	<path class="st10" d="M96.7,97.28c-0.25,0.85-1.12,1.35-1.93,1.11c-0.81-0.24-1.27-1.13-1.02-1.98c0.25-0.85,1.11-1.34,1.93-1.1
		C96.49,95.55,96.95,96.43,96.7,97.28z"/>
	<path class="st10" d="M117.41,84.13c-0.74,2.51-3.29,3.98-5.69,3.27c-2.41-0.71-3.75-3.33-3.01-5.84c0.74-2.51,3.29-3.98,5.7-3.27
		C116.81,79.01,118.15,81.62,117.41,84.13z"/>
	<path class="st10" d="M114.21,96.4c-0.24,0.8-1.05,1.27-1.82,1.05c-0.77-0.23-1.19-1.07-0.96-1.87c0.24-0.8,1.05-1.27,1.82-1.04
		C114.02,94.76,114.45,95.6,114.21,96.4z"/>
	<path class="st10" d="M121.05,94.58c-0.14,0.46-0.25,0.84-0.25,0.84S120.91,95.04,121.05,94.58c0.14-0.46,0.25-0.83,0.25-0.83
		S121.18,94.12,121.05,94.58z"/>
	<path class="st10" d="M86.83,82.27c-0.33,1.12-1.47,1.77-2.55,1.46c-1.08-0.32-1.68-1.48-1.35-2.61c0.33-1.13,1.47-1.78,2.55-1.46
		C86.56,79.97,87.16,81.14,86.83,82.27z"/>
	<path class="st10" d="M79.43,87.53c-0.45,1.51-1.99,2.39-3.43,1.97c-1.45-0.43-2.26-2.01-1.81-3.52c0.45-1.51,1.98-2.39,3.43-1.97
		C79.06,84.44,79.87,86.02,79.43,87.53z"/>
	<path class="st10" d="M69.4,97.45c-0.35,1.18-1.54,1.86-2.66,1.53c-1.12-0.33-1.76-1.55-1.41-2.73c0.35-1.17,1.54-1.85,2.66-1.52
		C69.12,95.06,69.75,96.28,69.4,97.45z"/>
	<path class="st10" d="M65.08,108.99c-0.86,2.93-3.83,4.62-6.63,3.8c-2.8-0.83-4.37-3.86-3.5-6.79c0.86-2.93,3.83-4.63,6.63-3.8
		C64.37,103.02,65.94,106.06,65.08,108.99z"/>
	<path class="st13" d="M82.3,112.87c-0.68,2.32-3.04,3.67-5.26,3.01c-2.22-0.65-3.46-3.06-2.77-5.38c0.68-2.32,3.03-3.67,5.25-3.01
		C81.74,108.14,82.98,110.56,82.3,112.87z"/>
	<path class="st13" d="M91.97,89.74c-0.22,0.75-1,1.2-1.72,0.98c-0.72-0.21-1.13-1-0.9-1.76c0.22-0.76,0.99-1.2,1.71-0.98
		C91.79,88.2,92.2,88.98,91.97,89.74z"/>
	<path class="st13" d="M96.99,90.53c-0.12,0.4-0.52,0.64-0.91,0.52c-0.39-0.11-0.6-0.53-0.48-0.93c0.12-0.4,0.52-0.64,0.91-0.52
		C96.9,89.71,97.11,90.13,96.99,90.53z"/>
	<path class="st13" d="M114.02,106.62c-0.25,0.86-1.13,1.37-1.95,1.12c-0.82-0.24-1.29-1.15-1.04-2c0.25-0.86,1.13-1.36,1.96-1.12
		C113.82,104.86,114.28,105.75,114.02,106.62z"/>
	<path class="st13" d="M121.26,106.63c-0.06,0.22-0.28,0.34-0.49,0.28c-0.2-0.06-0.32-0.28-0.26-0.5c0.07-0.22,0.29-0.34,0.49-0.28
		C121.21,106.19,121.33,106.41,121.26,106.63z"/>
	<path class="st13" d="M131.14,90.1c-0.45,1.54-2.02,2.44-3.49,2.01c-1.47-0.43-2.3-2.04-1.85-3.58c0.45-1.54,2.02-2.44,3.5-2.01
		C130.77,86.95,131.59,88.55,131.14,90.1z"/>
	<path class="st13" d="M132.39,101.46c-0.19,0.65-0.86,1.04-1.48,0.85c-0.62-0.18-0.97-0.87-0.78-1.52
		c0.19-0.65,0.85-1.03,1.48-0.84C132.23,100.13,132.58,100.81,132.39,101.46z"/>
	<path class="st13" d="M138.45,85.12c-0.08,0.26-0.34,0.41-0.58,0.34c-0.25-0.07-0.39-0.34-0.31-0.6c0.08-0.26,0.34-0.41,0.59-0.34
		C138.39,84.59,138.53,84.86,138.45,85.12z"/>
	<path class="st12" d="M106.98,53.52c-3.25,0.5-4.61,4.12-7.88,4.9c-3.79,0.91-7.28-1.31-11.05,0.18c-3.6,1.42-5.09,4.1-9.21,4.71
		c-5.2,0.77-7.22,3.46-11.6,5.3c-4.17,1.75-8.14,0.67-12.08,4.03c-3.36,2.87-3.12,4.89-7.35,6.62
		c-8.01,3.28-13.82,14.53-17.69,22.07c-5.79,11.3-8.4,22.94-9.34,35.54c-0.64,8.61-1.8,16.06-4.89,24.23
		c3.71-3.51,5.63-5.8,10.65-7.89c2.6-1.08,11.45-4.3,12.42-6.61c-3.88,0.82-10.53,5.58-13.07,0.47c-1.32-2.65-0.68-10.1-0.28-13.14
		c1.31-10.03,3.11-19.96,6.91-29.5c3.75-9.45,9.18-18.08,18.09-22.87c1.94-1.04,2.58,0.35,4.19-2.29c0.9-1.47,0.37-3.91,1.4-5.15
		c1.42-1.72,7.25-3.62,9.49-3.82c4.69-0.41,5.27-1.21,9.06-4.13c3.19-2.45,7.45-2.84,11.08-3.84c1.91-0.53,3.56-1.48,5.46-2.07
		c2.02-0.63,2.51,0.02,4.56-0.1c3.53-0.2,8.46-2.23,10.58-5.25c-0.45-0.17-0.62,0.13-1.03,0.13L106.98,53.52z"/>
</g>
<path class="st8" d="M200,34.21v-1.78c-0.73,0.27-1.43,0.61-2.1,1.01c-3.45,2.07-5.73,5.25-8.66,7.77c-1.06,0.91-2.66,2-3.94,2.24
	c-2.51,0.48-2.28-0.36-3.61-2.43c-1.19,1.52-0.51,4.42,0.74,5.4c1.28,2.73,4.47,2.73,6.96,2.1C187.9,43.88,195.67,35.89,200,34.21z"
	/>
</svg>
