<?xml version="1.0" encoding="utf-8"?>
<!-- Generator: Adobe Illustrator 25.0.0, SVG Export Plug-In . SVG Version: 6.00 Build 0)  -->
<svg version="1.1" id="Layer_1" xmlns="http://www.w3.org/2000/svg" xmlns:xlink="http://www.w3.org/1999/xlink" x="0px" y="0px"
	 viewBox="0 0 200 200" style="enable-background:new 0 0 200 200;" xml:space="preserve">
<style type="text/css">
	.st0{fill:#D9BA98;}
	.st1{fill:#F2DDC7;}
	.st2{fill:#FEEDDA;}
	.st3{fill:#FDF4DC;}
	.st4{fill:#E7D3BD;}
	.st5{fill:#D14216;}
	.st6{opacity:0.6;fill:url(#SVGID_1_);}
	.st7{fill:#FFFFFF;}
	.st8{opacity:0.3;fill:#ABB4B9;}
	.st9{opacity:0.5;fill:#8EB2B1;}
	.st10{fill:#8EB2B1;}
	.st11{fill:#E7F4F5;}
	.st12{fill:#B12D18;}
	.st13{fill:#CD3017;}
	.st14{opacity:0.6;fill:#CD3017;}
	.st15{fill:#E63116;}
	.st16{opacity:0.7;fill:#B12D18;}
	.st17{opacity:0.1;fill:#E63116;}
	.st18{opacity:0.5;fill:#B12D18;}
	.st19{fill:#98B221;}
	.st20{fill:#80B5B4;}
	.st21{fill:#357D79;}
	.st22{fill:#9CCDCB;}
	.st23{fill:#F3BB8D;}
	.st24{fill:#DD9D6C;}
	.st25{opacity:0.3;fill:#DD9D6C;}
	.st26{opacity:0.6;fill:#974A16;}
	.st27{fill:#E8C018;}
	.st28{fill:#942625;}
	.st29{fill:#681410;}
	.st30{fill:#E41313;}
	.st31{fill:#D11317;}
	.st32{fill:#FFDB72;}
	.st33{fill:#EBC96C;}
	.st34{fill:#8CB026;}
	.st35{fill:#78942A;}
	.st36{fill:#CC1517;}
	.st37{fill:#C9A306;}
	.st38{fill:#A92E2E;}
	.st39{fill:#C03D3D;}
	.st40{opacity:0.3;fill:#681410;}
</style>
<path class="st0" d="M-49.26,84.95c0-9.29-20.33-16.82-45.41-16.82s-45.41,7.53-45.41,16.82c0,9.29,20.33,44.43,45.41,44.43
	S-49.26,94.24-49.26,84.95z"/>
<path class="st1" d="M-49.26,84.47c0-9.03-20.33-16.34-45.41-16.34s-45.41,7.32-45.41,16.34s20.33,43.16,45.41,43.16
	S-49.26,93.5-49.26,84.47z"/>
<path class="st2" d="M-134.98,78.1c-2.83,3.71-4.02,7.72-3.01,11.45c2.43,8.97,23.88,39.57,39,35.47
	c15.12-4.1,18.2-41.34,15.77-50.3c-0.46-1.71-1.36-3.24-2.61-4.56c-3.2-0.26-6.51-0.41-9.92-0.41
	C-112.49,69.75-127.1,73.1-134.98,78.1z"/>
<ellipse class="st3" cx="-94.67" cy="84.95" rx="45.41" ry="16.82"/>
<path class="st4" d="M-94.67,99.08c-23.09,0-42.6-6.72-42.6-14.67c0-7.95,19.51-14.67,42.6-14.67c23.09,0,42.6,6.72,42.6,14.67
	C-52.08,92.36-71.58,99.08-94.67,99.08z"/>
<path class="st5" d="M-94.67,99.08c16.94,0,31.93-3.62,38.73-8.68c-1.42-6.84-18.57-12.46-38.73-12.46s-37.31,5.62-38.73,12.46
	C-126.61,95.46-111.61,99.08-94.67,99.08z"/>
<linearGradient id="SVGID_1_" gradientUnits="userSpaceOnUse" x1="-105.7147" y1="77.9831" x2="-73.3803" y2="114.0596">
	<stop  offset="0" style="stop-color:#FFFFFF"/>
	<stop  offset="1" style="stop-color:#020203"/>
</linearGradient>
<path class="st6" d="M-127.1,93.79c7.88,3.21,19.6,5.29,32.43,5.29c15.47,0,29.3-3.02,36.77-7.4c-4.99-6.1-18.5-10.61-33.92-10.61
	C-108.99,81.07-123.78,86.65-127.1,93.79z"/>
<path class="st7" d="M-133.37,92.11c-0.35,1.12,4.12,3.51,9.98,5.34c5.86,1.83,10.89,2.4,11.24,1.29c0.35-1.12-4.75-1.48-10.61-3.31
	C-128.62,93.59-133.02,90.99-133.37,92.11z"/>
<path class="st7" d="M-122.19,105.12c-1.55-2.3-3.34-3.8-4.01-3.35c-0.67,0.45,0.04,2.68,1.59,4.98c1.55,2.3,3.34,3.8,4.01,3.35
	C-119.94,109.66-120.65,107.43-122.19,105.12z"/>
<path class="st7" d="M-117.24,112.75c-0.92-0.75-1.93-1.03-2.26-0.62c-0.33,0.41,0.14,1.35,1.05,2.1c0.92,0.75,1.93,1.02,2.26,0.61
	C-115.86,114.43-116.33,113.49-117.24,112.75z"/>
<g>
	<path class="st8" d="M143.62,167.58c0.63-6.56-24.57-14.38-56.31-17.46c-31.74-3.08-57.98-0.26-58.62,6.31
		c-0.63,6.56,24.57,14.38,56.31,17.45C116.75,176.97,142.99,174.14,143.62,167.58z"/>
	<path class="st8" d="M189.13,117.86c0.15-13.22-25.56-24.25-57.44-24.63c-31.88-0.38-57.86,10.04-58.02,23.26
		c-0.15,13.22,25.56,24.25,57.45,24.62C163,141.49,188.97,131.08,189.13,117.86z"/>
	<g>
		<g>
			<g>
				<g>
					<g>
						<path class="st9" d="M160.33,100.52c0,10.64-19.86,19.25-44.37,19.25c-24.5,0-44.36-8.62-44.36-19.25
							c0-10.63,19.86-19.25,44.36-19.25C140.46,81.27,160.33,89.89,160.33,100.52z"/>
						<path class="st10" d="M180.15,84.22c0,17.7-28.6,32.05-63.89,32.05c-35.29,0-63.89-14.34-63.89-32.05
							c0-17.7,28.6-32.05,63.89-32.05C151.54,52.17,180.15,66.52,180.15,84.22z"/>
						<path class="st11" d="M180.15,82.56c0,17.7-28.6,32.06-63.89,32.06c-35.29,0-63.89-14.35-63.89-32.06
							c0-17.7,28.6-32.05,63.89-32.05C151.54,50.51,180.15,64.86,180.15,82.56z"/>
						<path class="st9" d="M154.1,80.68c0,9.26-17.07,16.76-38.14,16.76c-21.06,0-38.14-7.5-38.14-16.76
							c0-9.26,17.07-16.76,38.14-16.76C137.03,63.92,154.1,71.43,154.1,80.68z"/>
					</g>
					<path class="st12" d="M164.39,80.68c0,11.52-21.68,20.85-48.43,20.85c-26.75,0-48.43-9.34-48.43-20.85
						c0-11.52,21.68-20.85,48.43-20.85C142.71,59.83,164.39,69.17,164.39,80.68z"/>
				</g>
				<path class="st13" d="M118.53,63.25c-3.38-2.17-6.75,0.85-9.93,1.35c-5.06,0.8-10.27-0.87-15.18,0.81
					c-4.67,1.59-26.59,7.52-18.83,16.46c4.39,5.06,16.89,4.82,22.37,2.71c3.93-1.52,7.11-3.18,11.36-3.52
					c4.03-0.33,8.11,0.09,12.15-0.18c7.06-0.49,14.18-1.11,21.25-1.65c2.64-0.2,7.13-1.48,6.43-5.15
					c-0.76-3.98-10.85-8.94-14.39-10.22c-4.99-1.8-14.98-3.79-19.64-1.15L118.53,63.25z"/>
				<path class="st14" d="M110.51,64.07c0.93-1.75,5.94,1.58,7.79,2.11c2.33,0.67,4.18-0.23,6.33,1.36
					c1.46,1.08,0.75,1.51,3.02,1.95c2.33,0.46,4.87-0.08,7.22,0.54c2.76,0.73,1.98,0.6,2.21,2.7c0.21,1.94-1.26,1.65,1.37,2.92
					c1.52,0.73,5.5,0.48,6.31,2.29c2.25,5.04-10.72,3.98-12.38,5.08c-2.27,1.52,0.16,1.43-0.34,2.98c-0.6,1.85-2.07,1.79-4.16,1.9
					c-5.85,0.3-11.61,0.23-17.43,0.8c-2.96,0.29-15.26-0.81-16.83,2.17c-0.17,0.32-0.38,0.5-0.52,0.82
					c3.4,2.89,11.28,3.31,15.68,3.99c5.81,0.89,12.23,1.12,18.06,0.01c8.65-1.65,23.02-2.52,29.05-9.69
					c3.8-4.52,3.48-9.93-0.35-14.07c-4.11-4.44-10.37-5.26-16-6.23c-5.25-0.9-10.38-1.86-15.74-2.11
					c-3.65-0.17-10.41-1.11-13.57,0.21L110.51,64.07z"/>
				<path class="st15" d="M94.46,65.69c-1.46-1.02-4.44-0.84-5.83,0.26c-1.4,1.11-0.92,2.7-2.24,3.61c-1.36,0.93-4.88,0.4-6.59,0.94
					c-2.43,0.77-4.34,2-6.09,3.86c-2.17,2.32-3.96,5.9-1.12,8.66c1.42,1.38,11.71,4.4,12.97,2.73c2.24-2.99-6.45-5.81,0.31-7.07
					c2.63-0.49,5.58,0.27,8.26,0.01c2.75-0.26,2.06-0.68,3.89-2.22c4.36-3.69,12.44-1.3,17.74-1.29c1.2,0,7.1,0.49,7.69-1.08
					c0.76-2-3.44-3.18-4.67-3.47c-0.71-0.17-1.64-0.11-2.37-0.06c4.48,0.3,8.9,0.84,13.45,0.49c1.93-0.15,5.95-0.52,3.53-2.72
					c-1.8-1.64-7.82-0.91-10.12-1.01c-3.72-0.18-7.46-0.04-11.13,0.48c-2,0.28-5.26,1.43-7.2,1.16c-1.07-0.15-2.74-1.27-3.93-1.62
					c-3.06-0.9-5.78-1.1-9.07-1.1L94.46,65.69z"/>
			</g>
			<path class="st7" d="M116.04,68.4c1.07,0.07,4-0.03,4.74,0.87c1.48,1.8-0.89,2.64-1.22,4.29c-0.28,1.35,0.99,2.27,0.85,3.24
				c-0.26,1.82-2.43,1.89-4.09,2.44c-2.81,0.92-9.51,3.3-10.3,6.5c-1,4.04,5.55,4.09,8.36,3.74c2.84-0.36,5.4-1.46,8.31-1.57
				c2.51-0.09,4.89,0.44,7.38,0.54c5.35,0.22,11.94-1.07,16.69-3.52c7.1-3.66,2.2-8.64-3.34-10.49c-2.69-0.9-5.57-1.6-8.31-2.3
				c-1.39-0.35-2.5-0.42-3.32-1.29c-0.02-0.02,0.52-1.28,0.25-1.63c-0.41-0.54-1.06-0.53-1.55-0.87c-3.06-2.07-11.91-2.98-14.72-0.2
				L116.04,68.4z"/>
			<path class="st16" d="M115.76,67.72c-0.03,0.13-0.36,0.03-0.18,0.37c1.44,0.26,3.35-0.88,4.38,0.59
				c0.59,0.84-0.46,3.26-0.93,4.27c-0.28,0.6-1.02,0.97-1.2,1.66c-0.28,1.07,0.54,1.64-0.19,2.45c-0.84,0.93-4.36,1.49-5.6,2.08
				c-3.22,1.51-8.88,3.64-9.29,7.62c-0.54,5.22,9.78,4.25,12.98,3.45c2.93-0.74,4.73-1.13,7.67-0.2c3.37,1.06,6.77,1.04,10.23,0.46
				c3.48-0.59,6.93-1.1,10.1-2.65c1.66-0.81,5.53-2.22,6.26-4.02c-1.94-0.35-4.97,1.76-6.83,2.46c-2.02,0.76-3.86,1.29-6.01,1.57
				c-4.39,0.57-8.01-0.2-12.24-0.61c-3.42-0.34-18.78,6.16-18.67-1c0.04-2.67,3.74-5.06,6.02-5.89c2.13-0.78,6.66-1.62,8.09-3.45
				c1.23-1.57-0.39-0.94-0.64-2.43c-0.3-1.86,1.79-2.02,2.05-3.46c0.67-3.79-4.2-3.07-6.18-3.25H115.76z"/>
			<path class="st17" d="M116.38,67.11c1.19-1.02,4.57,0.31,5.34,1.68c0.66,1.18-0.34,2.84-0.21,4.05c0.56,5.08-1.87,6.29-6.53,8.49
				c-1.13,0.53-5.44,2.04-4.01,4.01c1.75,2.4,6.82-1.68,8.57-2.15c3.43-0.92,4.98,0.68,7.84,1.74c2.21,0.82,5.47,0.66,7.84,0.46
				c2.76-0.23,5.83-0.9,8.34-1.98c1.61-0.7,3.12-2.83,4.56-3.31c1.79-0.6,2.49,1.12,1.42,2.59c-0.85,1.16-3.09,1.58-4.31,2.09
				c-4.22,1.73-7.75,3.87-12.4,4.27c-3.97,0.35-7.25-1.51-10.84-0.41c-3.39,1.04-7.87,2.76-11.42,1.63
				c-4.11-1.31-5.14-5.63-2.06-8.29c1.78-1.54,3.41-2,5.6-2.48c1.92-0.42,3.7-0.85,4.56-2.65c0.3-0.63,0.19-1.37,0.43-2.01
				c0.34-0.91,0.99-1.51,1.4-2.45c0.68-1.57,0.09-2.71-1.61-3.49c-0.97-0.44-1.93-0.22-2.87-0.59c-0.09-1.03,1.76-2.4,2.25-2.6
				L116.38,67.11z"/>
		</g>
		<path class="st18" d="M100.41,75.24c-2.07-2.81-2.75,3.52-3.76,4.27c-1.06,0.78-2.6,0.19-3.51,1.2c-0.6,0.66,0.49,1.3-0.86,2.2
			c-1.13,0.76-2.47,0.14-3.65,0.44c-0.92,0.24-1.16,0.73-2.15,1.02c-0.84,0.25-4.72-0.35-5.17,0.23c-0.62,0.79,1.23,1.83,1.65,2.37
			c-2.66,1.34-7.85-3.61-10.15-1.8c-3.63,2.84,8.07,5.22,9.16,5.95c1.84,1.25,3.29,2.64,5.58,3.16c2.09,0.48,3.85,0.43,5.86,1.22
			c2.04,0.8,11.25,4.28,11.97,0.85c-3.26-1.69-7.93-0.57-11.55-1.97c-1.17-0.45-7.93-2.54-7.48-3.67c0.31-0.79,3.04-0.28,3.71-1
			c1.13-1.21,0-1-0.17-2.07c-0.37-2.33,0.96-1.75,3.07-2.85c0.91-0.48,1.55-1.12,2.53-1.47c0.74-0.27,1.94-0.13,2.49-0.71
			c0.78-0.81,0.06-1.28,0.31-1.87c0.58-1.39,0.27-0.73,1.88-1.58c2.48-1.32,1.59-2.2,4.45-1.47c2.66,0.68,5.03-0.05,6.78-2.2
			c-2.56-0.17-5.14,0.69-7.66,0.36c-1.35-0.17-3.44-1.8-4.56-0.61H100.41z"/>
		<path class="st7" d="M123.02,91.89c-1.7-1.28-1.63,0.45-2.46,0.78c-1.01,0.4-3.02-0.22-3.01,1.05c-0.49,0.11-0.82,0.42-1.15,0.56
			c1.6,0.11,6.67-1.29,7.49,0.01c1.21,0.23,2.48-0.17,3.31-0.98c-1.26-1.08-3.82-0.99-5.21-1.63L123.02,91.89z"/>
		<path class="st7" d="M152.9,79.3c0.99,2.01-3.2,3.34-1.23,4.87c-1.31,1.76-10.35,2.36-9.75,5.25c2.82,0.2,4.27-1.16,6.79-2.01
			c1.11-0.37,2.66-0.15,3.56-0.8c0.6-0.43,0.66-1.22,1.05-1.63c0.17-0.18,0.88-0.76,1.04-0.97c0.61-0.81,1.57-1.04,0.64-2.29
			c9.49-3.67-1.88-5.16-2.3-2.43H152.9z"/>
		<path class="st19" d="M91.9,74.22c-1.14,0-8.78,0.06-6.41,2.46c1.6,1.62,8.83-0.42,10.16-1.84c-0.93-0.98-3.17-0.61-4.59-0.61
			H91.9z"/>
		<path class="st19" d="M107.88,72.6c2.02,0.58,3.35,3.05,5.39,3.61c1.77,0.49,2.84-0.17,1.46-1.63c-1.42-1.5-5.02-2.6-7.06-2.39
			L107.88,72.6z"/>
		<path class="st20" d="M195.02,25.89c-2.98-4.69-21.94,16.39-24.07,18.48c-6.57,6.42-12.88,13.11-19.56,19.34
			c-2.38,2.22-3.88,4.24-7.04,4.77c-2.8,0.48-6.01,1.78-8.39,3.15c3.79,1.33,7.81,1.25,11.71,2.84c6.03,2.45,2.34-1.93,4.03-5.13
			c1.16-2.19,3.57-4.03,5.36-5.68c2.48-2.29,4.91-4.61,7.2-7.11c4.52-4.92,9.83-8.9,14.73-13.41c4.7-4.32,9.5-6.69,14.98-9.79
			c1.78-1,3.22-2.26,3.11-4.42c-0.07-1.39-1.43-4.27-3.11-4.06L195.02,25.89z"/>
		<path class="st21" d="M189.76,27.11c1.78-1.42,5.59-1.43,6.26,1.32c0.82,3.36-3.91,5.32-6.29,6.49
			c-3.51,1.73-7.22,3.61-10.38,5.96c-1.68,1.25-3.02,2.79-4.66,4.09c-2.09,1.65-4.15,3.21-5.95,5.18c-2.66,2.91-5.69,5.47-8.2,8.49
			c-1.76,2.12-3.55,4.17-5.36,6.23c-1.15,1.3-3.28,2.81-3.88,4.46c-0.32,0.88-0.05,2.02-0.13,2.99c-0.09,1.13-0.52,2.16-0.84,3.21
			c1.07-3.09,1.24-5.98,3.33-8.65c2.34-3,5.12-5.74,7.75-8.47c2.81-2.91,6.09-5.5,8.98-8.42c2.76-2.78,6.02-5.32,9.1-7.75
			c4.17-3.29,9.41-5.47,14.03-8.19c2.18-1.28,4.62-2.13,4.4-5.04c-0.17-2.29-1.62-3.9-4.01-3.92c-1.05-0.01-3.87,0.98-3.87,2.03
			H189.76z"/>
		<path class="st22" d="M190.87,26.84c-0.67,0.89-2.25,1.48-3.22,2.17c-1.19,0.85-2.28,1.86-3.32,2.88
			c-0.54,0.54-3.24,2.81-2.58,3.77c0.82,1.19,5.62-1.53,6.49-1.9c2.33-1.01,5.82-2.09,5.66-5.14c-0.07-1.41-2.13-2.93-3.32-1.49
			L190.87,26.84z"/>
		<path class="st22" d="M162.52,53.65c-5.09,3.46-8.87,8.86-13.45,12.83c-3.36,2.9-8.46,2.53-12.09,5.01
			c2.86,0.19,5.52,0.81,8.23,1.23c0.09-2.17,1.15-2.7,2.9-3.91c2.41-1.67,4.14-4.09,6.16-6.19c1.75-1.83,3.51-3.69,5.36-5.42
			c0.68-0.64,3.26-2.49,3.04-3.28L162.52,53.65z"/>
	</g>
	<path class="st9" d="M42.18,68.11c-2.84,2.74,2.54,9.82,4.49,12.06c2.51,2.87,5.57,4.33,9.26,5.54c6.83,2.24,16.71,2.35,22.86-1.55
		c12.37-7.85,6.94-20.88-5.99-23.26c-6.34-1.16-13.4-1.31-19.62,0.71c-3.04,0.99-10.97,4.46-11,7.8V68.11z"/>
	<g>
		<path class="st23" d="M52.55,82.33c1.77,4.59,12.15,3.03,15.51,2.11c4.58-1.26,7.69-4.17,9.65-8.21
			c3.63-7.49-1.62-17.25-9.11-21.61c-5.9-3.43-14.58-4.76-20.17-1.03c-5.87,3.91-8.38,12.15-5.12,18.72
			c1.54,3.1,8.18,14.27,13.19,12.09L52.55,82.33z"/>
		<path class="st24" d="M47.19,54.71c-6.15,5.97-6.66,18.23-0.73,24.5c6.02,6.36,17.78,7.28,24.76,2.38
			c2.44-1.71,6.3-4.68,5.95-8.04c-5.27,6.1-12.39,7.69-19.5,2.31c-3-2.27-5.66-6.06-6.33-9.76c-0.42-2.31-0.51-7.34,1.91-8.83
			c0.87-0.54,2.1,0.19,2.92-0.28c0.53-0.3,1.23-1.92,1.62-2.47c1.34-1.88,2.29-2.64-1.11-3.18c-3.53-0.55-10.44,1.6-10.8,5.69
			L47.19,54.71z"/>
		<path class="st25" d="M55.09,51.61c4.12,0.02,8.48,1.23,10.54,5.16c0.94,1.79,0.16,3.39,0.77,5.1c0.59,1.64,2.34,2.16,3.43,3.46
			c2.39,2.85,2.69,7.27-0.26,9.75c-4.06,3.42-8.62,0.3-11.08-3.36c-2.17-3.23-3.1-7.26-2.89-11.09c0.11-1.98,1.25-4.84,0.2-6.7
			c-1.18-2.08-4.28-2.37-6.31-1.61c-3.22,1.2-4.59,4.73-5.41,7.74c-3.89,14.3,9.39,28.65,24.43,24.05
			c12.3-3.76,13.61-21.55,2.64-27.66c-3.85-2.14-9.15-5.3-13.7-4.83H55.09z"/>
		<path class="st26" d="M66.42,59.61c0.16-0.11,0.14-0.6,0.28-0.29c-0.65,3.95-4.15,6.32-7.19,8.6c-1.65,1.23-6.95,3.23-7.55,4.54
			c2.98,0.66,4.38-2.02,6.55-3.05c0.89-0.43,1.77-0.19,2.7-0.71c1.19-0.66,1.63-1.47,2.5-2.45c2.2-2.48,6.97-6.42,3.22-9.9
			c0.02,1.33,0.2,2.84-0.25,4.03L66.42,59.61z"/>
		<path class="st26" d="M72.21,59.86c-0.45,0.36-0.21,2.02-0.04,3.05c-0.61,0-1.13,0.4-1.77,0.34c1.38,5.51-4.51,13.06-9.17,15.64
			c3.07-0.48,5.47-3.53,7.09-5.89c1.27-1.85,1.91-5.41,3.62-6.73c0.24,0.36,0.62,0.54,0.85,1.04c2.02-4.45,3.24,2.08,3.15,4.37
			c5.37-1.89-2.36-14.46-4.52-12.86L72.21,59.86z"/>
		<path class="st26" d="M64.05,56.26c-2.23-1.74-4.51,0.67-5.2,2.75c-2.06-2.18-7,9.19-8.18,11.09c-0.38-3.23,2.82-8.22,4.75-10.75
			c0.84-1.1,3.57-2.12,3.83-3.41c0.38-1.95-1.88-1.66-2.8-2.97c2.31-1.16,6.88,0.23,7.86,2.77L64.05,56.26z"/>
	</g>
	<g>
		<g>
			<g>
				<path class="st27" d="M15.62,110.81c0.79,0.96,96.16,50.04,96.16,50.04l5.29,3.09l-3.89,0.81L14.54,113.9L15.62,110.81z"/>
				<path class="st27" d="M14.73,114.27c-2.83-0.94-8.35-0.45-8.87,3.18c-0.27,1.93,0.38,4.81,2.09,5.84
					c1.3,0.78,4.04,0.5,4.79-1.08c0.99-2.09-2.29-3.14-1.73-4.45c0.77-1.79,3.99,1.24,4.38,2.18c2.07,5-3.67,7.44-7.28,6.18
					c-2.5-0.87-5.66-3.91-6.02-6.81c-0.37-2.96,2.05-5.66,4.13-7.3c4.14-3.27,10.15-1.96,13.48,2.06c-1.33,1.75-3.75-0.71-5.33-0.58
					L14.73,114.27z"/>
			</g>
			<path class="st28" d="M29.56,111.43c1.99-1.28,4.62,1,5.72,2.66c1.83,2.75,0.85,4.42-1.36,6.38c-2.58,2.29-1.35,2.81-1.69,5.79
				c-0.21,1.76-1.35,2.91-3.12,2.92c-3.86,0.01-6.63-4.4-6.45-7.82c0.15-2.73-0.21-8.62,2.37-10.42c1.38-0.96,5.51-1.02,6.68,0.28
				L29.56,111.43z"/>
			<path class="st29" d="M29.64,110.55c2.59,0.19,6.11,1.8,7.9,3.86c3.11,3.56-0.88,4.75-2.86,6.77c-1.88,1.91-0.92,4.01-1.62,6.2
				c-1.16,3.61-5.81,2.06-6.86-0.82c0.99,1.59,4.27,1.48,2.64-0.39c0.68-0.47,0.64-1.12,0.97-1.67c0.06-0.1-0.31-0.68-0.15-0.91
				c0.14-0.22,0.85-0.39,0.88-0.46c0.35-0.89,0.67-0.27,0.57-1.65c-0.06-0.85,0.04-0.97-0.46-1.5c-0.46-0.51-4.2-1.6-1.37-2.37
				c-0.02,0.01,4.02,1.56,2.41-0.92c1.46-1.64,3.93-0.62,1.87-3.8C32.73,111.62,31.09,110.61,29.64,110.55L29.64,110.55z"/>
			<path class="st29" d="M25.08,111.99c-2.48,1.43-0.29,3.16,0.14,4.76c0.37,1.36-0.59,1.64-0.5,3.06c0.02,0.27,0.95,3.45,1.04,3.53
				c1.57,1.5,2.36-0.47,1.61-1.89c0.69-0.18,1.34,0.2,1.73,0.91c-0.63,0.68-0.29,1.52,0.38,2.12c-0.48,0.29-0.62,0.9-1.02,1.23
				c0.72,1.41,2.03-0.11,2.71,1.17c0.73,1.37-1.1,2.48-2.19,2.41c-1.93-0.12-4.74-2.85-5.48-4.57c-0.89-2.07-0.78-12.53,1.74-12.86
				L25.08,111.99z"/>
			<path class="st30" d="M43.82,114.77c-3.04,2.56-7.79,2.91-10.3,6.02c-1.72,2.13-0.55,3.8-0.56,6.18c0,1.91-1,7.74,2.66,7.53
				c-0.55-4.71,1.26-9.68,5.49-12.02c1.98-1.1,4.34-1.3,5-3.9c0.53-2.1-0.75-5.19-3.02-3.75L43.82,114.77z"/>
			<path class="st31" d="M43.54,114.74c-0.25-0.07-0.08-0.39-0.43-0.22c0.17,0.58,1.16,1.41,1.19,2.08
				c0.05,1.38-0.83,0.81-1.46,1.51c-0.48,0.53-0.41,1.3-1.05,1.93c-0.49,0.48-2.01,0.55-2.65,0.88c-3.86,1.98-4.64,6.15-4.62,10.13
				c-0.21-0.51-0.42-0.81-0.5-1.42c-0.37,1.7-0.18,3.4,1.2,4.61c1.08-1.29,0.67-4.35,0.91-6.09c0.37-2.78,1.77-3.76,3.83-5.22
				c1.72-1.22,4.26-1.64,5.59-3.4c1.28-1.68,0.35-5.21-2.12-4.97L43.54,114.74z"/>
			<path class="st32" d="M43.96,121.16c3.07,1.2,0.84,7.53-0.63,9.26c-1.51,1.79-5.7,3.98-6.93,0.41c-0.63-1.85,0.8-4.88,1.81-6.15
				c1.81-2.26,3.86-2.28,5.92-3.62c0.14,0.25-0.09,0.18-0.2,0.38L43.96,121.16z"/>
			<path class="st33" d="M43.81,121.28c0.36,3.27-0.46,6.75-2.36,9.35c0.45-1.45,1.08-2.89,1.07-4.4c-0.73,0.5-1.57,5.68-3.12,4.23
				c-1.09-1.02,1.43-5.19,1.59-6.18c-2.44,1.43-1.6,4.21-3.11,5.81c-1.07-0.93-0.31-2.34-0.53-3.54c-3.99,2.21,0.94,7.42,4.71,4.63
				c2.39-1.76,4.32-7.39,1.91-10.02L43.81,121.28z"/>
			<path class="st28" d="M49.93,121.41c1.99-1.28,4.61,1,5.72,2.66c1.83,2.75,0.84,4.42-1.36,6.38c-2.59,2.29-1.35,2.81-1.69,5.79
				c-0.21,1.76-1.36,2.91-3.12,2.92c-3.85,0.01-6.63-4.4-6.45-7.82c0.15-2.73-0.21-8.62,2.37-10.42c1.39-0.96,5.51-1.02,6.69,0.28
				L49.93,121.41z"/>
			<path class="st29" d="M50.01,120.53c2.6,0.19,6.11,1.8,7.9,3.86c3.11,3.56-0.88,4.75-2.87,6.77c-1.88,1.91-0.92,4.01-1.62,6.2
				c-1.16,3.61-5.81,2.06-6.86-0.82c1,1.59,4.27,1.48,2.64-0.38c0.69-0.47,0.64-1.12,0.98-1.67c0.06-0.1-0.31-0.68-0.16-0.91
				c0.14-0.22,0.85-0.39,0.88-0.46c0.35-0.89,0.67-0.27,0.57-1.65c-0.06-0.85,0.03-0.97-0.46-1.5c-0.46-0.51-4.2-1.6-1.36-2.37
				c-0.02,0.01,4.02,1.56,2.41-0.92c1.46-1.64,3.94-0.62,1.87-3.8C53.1,121.61,51.46,120.59,50.01,120.53L50.01,120.53z"/>
			<path class="st29" d="M45.45,121.97c-2.48,1.43-0.29,3.17,0.14,4.76c0.37,1.36-0.59,1.64-0.5,3.06c0.02,0.26,0.95,3.45,1.03,3.53
				c1.57,1.5,2.37-0.47,1.61-1.89c0.69-0.18,1.34,0.2,1.73,0.91c-0.64,0.68-0.29,1.52,0.38,2.12c-0.48,0.29-0.62,0.9-1.02,1.23
				c0.72,1.41,2.03-0.11,2.71,1.17c0.73,1.37-1.1,2.48-2.19,2.41c-1.93-0.12-4.74-2.85-5.48-4.57c-0.89-2.07-0.78-12.53,1.74-12.86
				L45.45,121.97z"/>
			<path class="st28" d="M64.89,128.46c1.99-1.28,4.61,1,5.72,2.66c1.83,2.75,0.84,4.42-1.36,6.38c-2.59,2.29-1.35,2.81-1.7,5.79
				c-0.2,1.75-1.35,2.91-3.12,2.92c-3.85,0.01-6.63-4.4-6.44-7.82c0.15-2.73-0.21-8.62,2.37-10.42c1.38-0.96,5.51-1.02,6.69,0.28
				L64.89,128.46z"/>
			<path class="st29" d="M64.97,127.58c2.59,0.19,6.11,1.8,7.9,3.86c3.11,3.56-0.88,4.75-2.87,6.77c-1.88,1.91-0.92,4.02-1.62,6.2
				c-1.16,3.61-5.81,2.06-6.86-0.82c0.99,1.59,4.27,1.48,2.64-0.39c0.68-0.47,0.64-1.12,0.97-1.67c0.06-0.1-0.31-0.68-0.16-0.91
				c0.14-0.22,0.85-0.39,0.88-0.46c0.34-0.89,0.67-0.27,0.57-1.65c-0.06-0.85,0.03-0.97-0.46-1.5c-0.46-0.51-4.2-1.6-1.37-2.37
				c-0.02,0.01,4.02,1.56,2.41-0.91c1.47-1.64,3.94-0.62,1.87-3.8C68.06,128.65,66.42,127.63,64.97,127.58L64.97,127.58z"/>
			<path class="st29" d="M60.41,129.01c-2.48,1.43-0.29,3.17,0.14,4.76c0.37,1.36-0.59,1.64-0.5,3.06c0.02,0.27,0.95,3.45,1.03,3.53
				c1.57,1.5,2.37-0.47,1.61-1.89c0.69-0.19,1.34,0.2,1.73,0.91c-0.64,0.68-0.29,1.52,0.38,2.12c-0.48,0.29-0.62,0.9-1.02,1.23
				c0.72,1.41,2.03-0.11,2.71,1.17c0.73,1.37-1.1,2.48-2.19,2.41c-1.93-0.12-4.74-2.85-5.48-4.57c-0.89-2.07-0.78-12.53,1.73-12.86
				L60.41,129.01z"/>
			<path class="st30" d="M59.52,128.63c-1.6,1.4,0.09,2.85,0.18,4.37c0.08,1.27-0.95,2.35-1.07,3.62c-0.12,1.3,0.5,2.66,0.32,3.94
				c-0.25,1.74-1.39,1.44-2.2,0.05c-1.26-2.17-0.03-5.04,0.4-7.29c0.18-0.94,0.23-2.05,0.66-2.92c0.3-0.61,1.76-1.89,1.8-1.65
				L59.52,128.63z"/>
			<path class="st34" d="M57.95,130.14c2-1.71,0.44-2-1.28-0.91c-1.22,0.78-2.96,1.9-3.5,3.37c-0.33,0.92-0.17,1.78-0.05,2.72
				c0.16,1.29-0.12,1.5-0.44,2.72c-0.15,0.56-0.3,2.37,0.62,2.43c0.83,0.05,0.9-1.46,1.03-2c0.14,0.75,0.96,2.64,1.82,1.66
				c-0.13-0.21-0.11-0.41-0.27-0.63c0.97,0.06,0.45-1.46,0.61-2.29c0.17-0.91,0.47-1.77,0.63-2.7c0.24-1.43,0.3-3.3,1.03-4.55
				c0.22-0.11,0.12,0.09,0.27,0.15L57.95,130.14z"/>
			<path class="st35" d="M59.19,129.09c0.38-0.95-2.74-0.2-3.35,0.12c-1.1,0.6-2.4,1.63-2.98,2.77c-0.68,1.33-0.43,2.66-0.35,4.08
				c0.09,1.5-0.49,3.13,0.8,4.31c0.6-0.51,0.35-1.65,0.28-2.36c-0.18,1.64,0.69,1.32,1.5,1.63c0.57,0.22,2.43,1.18,1.45-0.52
				c0.09,0.13,0.21,0.32,0.29,0.44c0.21-0.63-0.2-1.72-0.18-2.54c0.02-0.79,0.33-1.54,0.24-2.33c-1.15,0.88-0.36,3-0.85,4.1
				c-0.66-0.53-0.61-1.39-0.96-2.02c-0.31,0.36-0.45,0.91-0.6,1.37c-0.34-0.64-0.25-1.48-0.67-2.1c-0.11,0.33-0.27,0.39-0.24,0.89
				c-0.84-4.01,1.82-7.16,5.03-8.57c0.25,0.13,0.11,0.26,0.16,0.38L59.19,129.09z"/>
			<path class="st30" d="M69.92,136.77c1.34-0.39,2.98-3.15,4.62-2.56c2.79,0.99,0.42,3.22-0.41,4.41
				c-1.63,2.32-1.28,2.48-0.88,5.09c0.33,2.19,0.38,3.74-1.74,5.04c-0.37-0.5-1.07-0.64-1.42-1.21c-0.3,0.5-1.2,0.98-1.47,1.49
				c-3.63-1.5-0.74-10.96,2.39-11.73L69.92,136.77z"/>
			<path class="st36" d="M74.45,134.55c0.22,0.16,0.36,0.3,0.61,0.15c-0.24-0.5-0.62-0.4-1.03-0.2c-0.67,0.34-0.46,0.74-0.57,1.3
				c-0.11,0.56,0.09,0.69-0.37,1.13c-0.32,0.3-0.91,0.17-1.21,0.6c-0.25,0.36,0.16,0.65-0.32,1.07c-0.31,0.27-0.89,0.06-1.32,0.5
				c-0.63,0.65-1.44,2.87-1.13,3.76c0.24-0.25,0.81-0.78,1.12-0.39c0.34,0.44-0.38,1.18-0.42,1.61c-0.04,0.47,0.05,1.22,0.68,1.03
				c0.33-0.1,0.6-1.23,0.84-1.52c0.98,0.36,0.02,1.22-0.05,1.83c-0.09,0.71,0.31,0.93,0.39,1.54c0.27,2.15-1.38,0.01-1.86-0.56
				c-0.39,0.39-0.29,2.23-1.07,2.35c-0.76,0.12-1.32-1.59-1.43-2.14c-0.37-1.84,0.18-4.38,0.84-6.1c0.49-1.27,4.85-8.26,6.56-5.89
				c-0.14,0.08-0.08-0.09-0.18-0.11L74.45,134.55z"/>
			<path class="st28" d="M75.44,137.1c2.71-2.27,6.89-1.63,9.33,0.99c1.52,1.63,1.96,3.77,3.81,5.16c1.63,1.22,3.67,3.03,3.87,5.26
				c0.15,1.7-1.32,2.9-1.73,4.44c-0.49,1.87-0.82,1.61-2.38,1.11c-3.34-1.07-6.91-0.4-10.24-1.49c-1.82-0.6-3.62-1.75-4.22-3.71
				c-0.41-1.34-0.48-2.81-0.64-4.2c-0.35-3.14,0.07-5.62,2.42-7.62L75.44,137.1z"/>
			<path class="st29" d="M75.76,136.69c-1.03,0.81-1.26,2.91-1.34,4.16c-0.05,0.73,0.37,4.28,1.59,4.18
				c0.86-0.06,0.72-2.33,1.83-0.11c0.25,0.49,1.45,3.1,2.38,1.67c0.65-1-2.06-2.65-0.83-4.16c1.67-2.05,1.24,2.75,1.43,3.24
				c0.47,1.19,2.46,2.28,3.61,2.63c0.47,0.14,2.89,0.21,1.78-0.83c-0.14,0.92,2.96,0.46,1.25-1.07c-0.45-0.4-2.6-0.5-1.15-1.57
				c0.49-0.36,1.11,0.62,0.82-0.47c-0.19-0.71-1.22-1.01-1.56-1.64c-0.4-0.75-0.09-0.86,0.06-1.57c0.09-0.42,0.07-0.93,0.2-1.35
				c1.31,0.77,1.54,2.74,2.71,3.75c0.87,0.76,1.78,1.06,2.65,1.71c2.36,1.78,0.57,3.98-0.14,5.97c-0.27,0.76,0.1,2.42-0.64,2.83
				c-0.68,0.37-2.56-0.6-3.3-0.73c-3.3-0.61-6.74-0.63-10-1.53c-3.53-0.98-4.7-4.63-4.72-8.07c0-1.23,0.17-2.83,0.69-3.94
				c0.61-1.29,1.95-1.9,2.6-3.06L75.76,136.69z"/>
		</g>
		<g>
			<g>
				<path class="st37" d="M17.44,83.4c0.6,1.09,85.28,68.26,85.28,68.26l4.63,4.09l-3.98,0.01L15.8,86.2L17.44,83.4z"/>
				<path class="st37" d="M15.93,86.61c-2.61-1.49-8.13-2.11-9.31,1.33c-0.63,1.83-0.52,4.78,0.97,6.14c1.13,1.02,3.88,1.3,4.91-0.1
					c1.36-1.85-1.67-3.53-0.87-4.71c1.09-1.6,3.7,2.01,3.91,3.02c1.11,5.31-4.99,6.55-8.31,4.6c-2.3-1.36-4.84-4.96-4.66-7.87
					c0.18-2.98,3.06-5.13,5.41-6.32c4.68-2.37,10.34,0.11,12.87,4.72c-1.63,1.44-3.55-1.45-5.13-1.64L15.93,86.61z"/>
			</g>
			<path class="st28" d="M31.03,86.8c2.19-0.85,4.35,1.9,5.13,3.75c1.29,3.06,0.01,4.5-2.52,5.97c-2.97,1.73-1.85,2.48-2.74,5.33
				c-0.52,1.68-1.87,2.58-3.61,2.23c-3.79-0.76-5.7-5.64-4.89-8.95c0.65-2.64,1.4-8.49,4.26-9.72c1.54-0.67,5.61,0.1,6.52,1.62
				L31.03,86.8z"/>
			<path class="st29" d="M31.27,85.96c2.52,0.71,5.67,2.99,7.06,5.36c2.39,4.11-1.75,4.48-4.08,6.06c-2.2,1.5-1.64,3.75-2.74,5.75
				c-1.81,3.3-6.09,0.85-6.59-2.17c0.68,1.76,3.93,2.3,2.66,0.15c0.76-0.32,0.84-0.97,1.27-1.44c0.08-0.08-0.18-0.72,0.01-0.92
				c0.18-0.18,0.91-0.21,0.95-0.27c0.51-0.8,0.71-0.13,0.87-1.5c0.1-0.85,0.21-0.94-0.17-1.56c-0.36-0.59-3.83-2.4-0.9-2.59
				c-0.02,0,3.66,2.33,2.54-0.41c1.74-1.31,3.98,0.18,2.55-3.35C34.12,87.63,32.69,86.3,31.27,85.96L31.27,85.96z"/>
			<path class="st29" d="M26.53,86.45c-2.71,0.91-0.87,3.04-0.74,4.69c0.11,1.4-0.88,1.48-1.06,2.9c-0.03,0.26,0.29,3.57,0.36,3.67
				c1.26,1.79,2.41,0.01,1.93-1.53c0.71-0.04,1.28,0.46,1.54,1.23c-0.75,0.54-0.57,1.43-0.02,2.15c-0.53,0.19-0.77,0.76-1.23,1
				c0.44,1.53,2.02,0.3,2.45,1.69c0.46,1.49-1.54,2.2-2.6,1.92c-1.88-0.5-4.13-3.74-4.54-5.57c-0.49-2.21,1.56-12.42,4.09-12.24
				L26.53,86.45z"/>
			<path class="st30" d="M44.44,92.92c-3.46,1.9-8.2,1.29-11.24,3.84c-2.08,1.74-1.25,3.61-1.69,5.94
				c-0.36,1.87-2.42,7.39,1.22,7.91c0.33-4.72,3.03-9.22,7.63-10.67c2.15-0.68,4.51-0.41,5.64-2.81c0.91-1.95,0.22-5.24-2.28-4.28
				L44.44,92.92z"/>
			<path class="st31" d="M44.17,92.84c-0.23-0.12-0.01-0.4-0.38-0.3c0.06,0.6,0.88,1.61,0.78,2.27c-0.21,1.36-0.96,0.63-1.72,1.19
				c-0.57,0.42-0.64,1.19-1.39,1.68c-0.57,0.37-2.08,0.14-2.77,0.34c-4.16,1.16-5.7,5.09-6.43,8.99c-0.12-0.54-0.26-0.87-0.23-1.49
				c-0.68,1.59-0.81,3.29,0.33,4.76c1.3-1.04,1.47-4.13,2.02-5.78c0.88-2.65,2.44-3.33,4.73-4.34c1.92-0.85,4.49-0.75,6.13-2.2
				c1.57-1.38,1.31-5.03-1.16-5.3L44.17,92.84z"/>
			<path class="st32" d="M43.39,99.21c2.79,1.79-0.57,7.55-2.34,8.95c-1.82,1.45-6.35,2.76-6.89-0.99
				c-0.28-1.94,1.69-4.62,2.92-5.65c2.2-1.85,4.21-1.46,6.49-2.36c0.09,0.28-0.13,0.16-0.27,0.33L43.39,99.21z"/>
			<path class="st33" d="M43.21,99.3c-0.26,3.28-1.71,6.52-4.06,8.68c0.72-1.33,1.6-2.62,1.87-4.1c-0.81,0.35-2.6,5.24-3.85,3.52
				c-0.89-1.22,2.37-4.79,2.7-5.73c-2.67,0.91-2.35,3.81-4.13,5.06c-0.88-1.12,0.13-2.36,0.14-3.57c-4.33,1.36-0.46,7.45,3.78,5.48
				c2.67-1.25,5.62-6.37,3.73-9.43L43.21,99.3z"/>
			<path class="st28" d="M49.21,100.66c2.19-0.85,4.35,1.9,5.13,3.75c1.29,3.06,0.01,4.49-2.52,5.97c-2.97,1.73-1.84,2.48-2.74,5.33
				c-0.53,1.68-1.87,2.58-3.61,2.23c-3.79-0.76-5.71-5.64-4.89-8.95c0.65-2.64,1.4-8.49,4.26-9.72c1.54-0.67,5.61,0.1,6.52,1.61
				L49.21,100.66z"/>
			<path class="st29" d="M49.45,99.81c2.52,0.71,5.67,2.99,7.05,5.36c2.4,4.1-1.75,4.48-4.07,6.06c-2.21,1.5-1.65,3.75-2.74,5.75
				c-1.81,3.3-6.09,0.85-6.59-2.17c0.69,1.76,3.93,2.3,2.67,0.15c0.76-0.32,0.84-0.97,1.27-1.44c0.08-0.08-0.18-0.73,0.02-0.92
				c0.18-0.18,0.91-0.21,0.95-0.27c0.51-0.81,0.71-0.13,0.87-1.5c0.1-0.85,0.21-0.94-0.17-1.57c-0.36-0.59-3.83-2.4-0.9-2.59
				c-0.02,0,3.66,2.33,2.54-0.41c1.74-1.31,3.98,0.18,2.55-3.34C52.3,101.48,50.87,100.16,49.45,99.81L49.45,99.81z"/>
			<path class="st29" d="M44.71,100.3c-2.71,0.9-0.87,3.04-0.75,4.69c0.11,1.4-0.88,1.49-1.05,2.9c-0.03,0.26,0.29,3.56,0.36,3.67
				c1.27,1.78,2.42,0.01,1.93-1.53c0.71-0.04,1.28,0.46,1.54,1.23c-0.75,0.53-0.57,1.43-0.02,2.15c-0.53,0.19-0.77,0.76-1.23,1
				c0.44,1.52,2.02,0.3,2.45,1.69c0.46,1.49-1.54,2.2-2.6,1.92c-1.88-0.51-4.13-3.74-4.54-5.57c-0.49-2.21,1.56-12.42,4.09-12.24
				L44.71,100.3z"/>
			<path class="st28" d="M62.62,110.55c2.2-0.86,4.35,1.9,5.13,3.75c1.29,3.06,0.01,4.49-2.52,5.97c-2.97,1.73-1.85,2.49-2.74,5.33
				c-0.53,1.68-1.87,2.58-3.61,2.23c-3.79-0.76-5.7-5.64-4.89-8.95c0.65-2.64,1.39-8.48,4.26-9.72c1.54-0.66,5.61,0.1,6.52,1.61
				L62.62,110.55z"/>
			<path class="st29" d="M62.86,109.7c2.52,0.71,5.67,2.99,7.06,5.36c2.39,4.1-1.75,4.48-4.07,6.06c-2.21,1.5-1.65,3.75-2.74,5.75
				c-1.81,3.3-6.09,0.85-6.59-2.17c0.69,1.76,3.93,2.3,2.66,0.15c0.76-0.32,0.84-0.97,1.27-1.44c0.08-0.09-0.18-0.73,0.02-0.92
				c0.18-0.18,0.91-0.21,0.95-0.27c0.5-0.81,0.7-0.13,0.86-1.5c0.1-0.85,0.22-0.94-0.17-1.56c-0.36-0.59-3.83-2.4-0.9-2.59
				c-0.02,0,3.66,2.33,2.54-0.42c1.75-1.31,3.98,0.18,2.55-3.34C65.7,111.37,64.27,110.05,62.86,109.7L62.86,109.7z"/>
			<path class="st29" d="M58.11,110.19c-2.7,0.9-0.87,3.04-0.74,4.69c0.11,1.4-0.88,1.48-1.05,2.9c-0.03,0.26,0.29,3.56,0.36,3.66
				c1.27,1.79,2.42,0.01,1.93-1.53c0.71-0.04,1.28,0.46,1.53,1.24c-0.75,0.53-0.57,1.43-0.02,2.15c-0.52,0.19-0.77,0.75-1.23,1
				c0.45,1.52,2.02,0.3,2.45,1.69c0.46,1.49-1.54,2.2-2.6,1.92c-1.88-0.5-4.13-3.74-4.54-5.57c-0.49-2.21,1.56-12.42,4.09-12.24
				L58.11,110.19z"/>
			<path class="st30" d="M57.3,109.64c-1.83,1.05-0.45,2.81-0.63,4.31c-0.16,1.26-1.37,2.11-1.73,3.33c-0.36,1.24,0,2.7-0.42,3.92
				c-0.57,1.65-1.64,1.13-2.17-0.39c-0.84-2.37,0.9-4.94,1.75-7.06c0.35-0.88,0.6-1.96,1.19-2.73c0.41-0.53,2.08-1.49,2.07-1.26
				L57.3,109.64z"/>
			<path class="st32" d="M55.48,110.8c2.29-1.28,0.81-1.87-1.09-1.14c-1.35,0.52-3.27,1.27-4.07,2.6c-0.5,0.83-0.5,1.71-0.56,2.65
				c-0.08,1.3-0.39,1.45-0.94,2.58c-0.25,0.52-0.73,2.26,0.16,2.5c0.81,0.21,1.16-1.25,1.38-1.75c0,0.76,0.46,2.78,1.49,1.99
				c-0.09-0.24-0.03-0.43-0.15-0.67c0.94,0.26,0.72-1.34,1.03-2.12c0.34-0.86,0.79-1.64,1.12-2.52c0.5-1.36,0.9-3.17,1.85-4.25
				c0.23-0.06,0.1,0.12,0.24,0.2L55.48,110.8z"/>
			<path class="st32" d="M56.89,110.02c0.55-0.85-2.66-0.75-3.31-0.55c-1.19,0.36-2.66,1.11-3.45,2.11
				c-0.92,1.17-0.92,2.52-1.1,3.93c-0.19,1.49-1.07,2.97-0.01,4.38c0.68-0.38,0.65-1.54,0.71-2.26c-0.49,1.56,0.43,1.43,1.17,1.9
				c0.52,0.33,2.17,1.64,1.52-0.22c0.06,0.14,0.15,0.35,0.2,0.49c0.32-0.57,0.12-1.72,0.29-2.53c0.16-0.77,0.61-1.44,0.67-2.23
				c-1.3,0.63-0.91,2.87-1.6,3.84c-0.55-0.65-0.34-1.48-0.57-2.17c-0.37,0.29-0.61,0.8-0.84,1.22c-0.22-0.69,0.04-1.5-0.27-2.19
				c-0.17,0.3-0.34,0.33-0.4,0.82c-0.08-4.09,3.12-6.64,6.53-7.38c0.22,0.18,0.07,0.28,0.08,0.41L56.89,110.02z"/>
			<path class="st30" d="M66.02,119.7c1.39-0.12,3.52-2.49,5.03-1.58c2.56,1.53-0.19,3.24-1.22,4.23c-2.03,1.94-1.71,2.17-1.81,4.81
				c-0.08,2.21-0.32,3.74-2.65,4.59c-0.27-0.57-0.93-0.85-1.17-1.48c-0.39,0.43-1.36,0.72-1.72,1.17c-3.29-2.2,1.31-10.88,4.53-11
				L66.02,119.7z"/>
			<path class="st36" d="M70.89,118.43c0.19,0.2,0.3,0.36,0.57,0.26c-0.14-0.54-0.53-0.52-0.98-0.4c-0.72,0.2-0.58,0.64-0.8,1.16
				c-0.21,0.52-0.04,0.69-0.57,1.03c-0.37,0.23-0.92-0.02-1.3,0.35c-0.31,0.3,0.04,0.66-0.51,0.98c-0.36,0.21-0.89-0.12-1.39,0.22
				c-0.75,0.51-1.95,2.52-1.81,3.45c0.29-0.2,0.94-0.61,1.17-0.16c0.25,0.5-0.6,1.08-0.71,1.49c-0.13,0.45-0.18,1.2,0.48,1.14
				c0.34-0.03,0.82-1.08,1.11-1.32c0.9,0.55-0.2,1.2-0.39,1.78c-0.22,0.68,0.13,0.97,0.09,1.58c-0.13,2.16-1.36-0.26-1.73-0.93
				c-0.46,0.3-0.71,2.13-1.49,2.09c-0.77-0.04-1-1.83-1.01-2.39c-0.02-1.87,0.99-4.25,1.96-5.8c0.72-1.15,6.3-7.12,7.55-4.46
				c-0.15,0.06-0.06-0.11-0.16-0.14L70.89,118.43z"/>
			<path class="st28" d="M71.39,121.13c3.08-1.68,7.08-0.21,8.98,2.84c1.19,1.91,1.23,4.09,2.79,5.81c1.38,1.52,3.05,3.7,2.83,5.93
				c-0.16,1.69-1.84,2.57-2.52,4c-0.83,1.73-1.11,1.41-2.55,0.61c-3.08-1.72-6.72-1.78-9.79-3.51c-1.68-0.95-3.24-2.44-3.46-4.47
				c-0.15-1.39,0.04-2.85,0.15-4.24c0.24-3.15,1.12-5.49,3.8-6.97L71.39,121.13z"/>
			<path class="st29" d="M71.78,120.79c-1.16,0.59-1.78,2.61-2.09,3.8c-0.18,0.71-0.43,4.26,0.78,4.41
				c0.86,0.11,1.14-2.14,1.83,0.26c0.15,0.53,0.85,3.33,2.03,2.12c0.82-0.85-1.54-3.01-0.05-4.24c2.02-1.67,0.7,2.94,0.8,3.46
				c0.24,1.26,1.99,2.73,3.06,3.3c0.44,0.23,2.8,0.78,1.9-0.45c-0.3,0.87,2.82,1.05,1.42-0.8c-0.37-0.48-2.46-1.01-0.83-1.77
				c0.55-0.26,0.98,0.83,0.89-0.3c-0.05-0.73-1.01-1.23-1.23-1.91c-0.25-0.81,0.07-0.86,0.35-1.52c0.17-0.4,0.24-0.9,0.45-1.28
				c1.14,1.01,1,2.99,1.97,4.22c0.72,0.91,1.55,1.39,2.29,2.21c2,2.21-0.17,4.01-1.24,5.82c-0.41,0.69-0.35,2.39-1.15,2.64
				c-0.74,0.23-2.4-1.1-3.11-1.38c-3.13-1.26-6.51-1.97-9.55-3.5c-3.29-1.67-3.76-5.47-3.14-8.84c0.22-1.21,0.69-2.73,1.41-3.72
				c0.84-1.14,2.27-1.47,3.12-2.47L71.78,120.79z"/>
		</g>
		<path class="st38" d="M26.41,86.29c-0.24-1.4,4.97-0.19,5.87,0.29c1.23,0.65,5.64,4.41,3.28,5.82c-1.3-1.37-1.8-4.1-3.63-1.98
			c-0.6-0.57-0.84-1.4-1.44-1.98c-0.16,0.28-0.55,0.54-0.65,0.86c-1.48-2.7-1.21,1.86-1.91,1.98c-1.66,0.29-0.19-4.69-2.15-2.33
			c-1.04-0.9,0.35-2.52,0.93-2.93L26.41,86.29z"/>
		<path class="st38" d="M44.41,99.9c2.42-2.04,5.59-1.1,7.82,0.94c1.01,0.92,5.45,5.18,3.41,6.47c-0.65-0.8-1.41-5.19-3.15-3.11
			c-0.42-0.55-0.67-1.87-1.55-1.7c-0.86,0.16-0.22,1.47-1.25,1.04c-0.89-0.37-0.67-4.69-2.32-1.84c0,0-0.64,1.81-0.64,1.81
			c-0.07,0.62,0.63,1.32,0.04,1.79c-1.96,1.54-0.19-3.67-1.92-2.01c-0.13-0.48-0.16-1.04-0.33-1.46c-0.19,0.25-0.62,0.4-0.82,0.64
			c-0.86-0.78-0.05-2.67,0.93-2.93L44.41,99.9z"/>
		<path class="st39" d="M56.6,110.32c1.58-3.19,5.66-1.26,7.93-0.05c2.12,1.13,7.11,4.71,5.57,7.72c-0.52-0.97-2.41-6.11-4.09-4.31
			c-0.19-0.21-0.8-1.25-1.05-1.26c-0.9-0.03-0.26,1.1-0.5,1.52c-0.94,1.64-1.24-0.92-1.36-1.74c-0.17-1.12-0.47-1.48-1.82-1.21
			c-1.57,0.32-1.24,1.1-0.7,2.42c-0.93,1.28-1.48-0.55-1.68-1.26c-0.98,0.18-0.63,4.75-2.46,2.1c-0.73-1.06-0.69-3.57,0.65-3.98
			L56.6,110.32z"/>
		<path class="st39" d="M60.33,115.64c0.23,0.3,0.65,0.34,0.93,0.1c0.28-0.24,0.32-0.67,0.09-0.97c-0.23-0.3-0.65-0.34-0.93-0.1
			C60.14,114.91,60.1,115.34,60.33,115.64z"/>
		<path class="st39" d="M58.84,117.94c0.27,0.34,0.75,0.39,1.08,0.12c0.32-0.28,0.37-0.78,0.1-1.12c-0.27-0.34-0.75-0.39-1.08-0.11
			C58.61,117.1,58.57,117.6,58.84,117.94z"/>
		<path class="st39" d="M60.69,119.13c0.14,0.19,0.4,0.21,0.58,0.06c0.18-0.15,0.2-0.42,0.05-0.6c-0.14-0.19-0.4-0.21-0.58-0.06
			C60.57,118.68,60.55,118.95,60.69,119.13z"/>
		<path class="st39" d="M59.44,121.25c0.13,0.16,0.36,0.19,0.52,0.06c0.16-0.13,0.18-0.38,0.05-0.54c-0.13-0.16-0.36-0.19-0.52-0.05
			C59.33,120.84,59.31,121.08,59.44,121.25z"/>
		<path class="st39" d="M45.36,108.29c0.23,0.28,0.63,0.33,0.9,0.1c0.27-0.23,0.31-0.65,0.08-0.94c-0.23-0.29-0.63-0.33-0.9-0.1
			C45.17,107.58,45.13,108,45.36,108.29z"/>
		<path class="st39" d="M44.82,109.55c0.21,0.26,0.58,0.3,0.84,0.09c0.25-0.22,0.29-0.6,0.08-0.87c-0.21-0.27-0.59-0.31-0.84-0.09
			C44.64,108.89,44.61,109.28,44.82,109.55z"/>
		<path class="st39" d="M45.95,110.01c0.16,0.21,0.3,0.37,0.3,0.37S46.12,110.22,45.95,110.01c-0.16-0.21-0.29-0.37-0.29-0.37
			S45.79,109.8,45.95,110.01z"/>
		<path class="st39" d="M44.65,111.45c0.07,0.09,0.21,0.11,0.3,0.03c0.09-0.08,0.1-0.21,0.03-0.31c-0.07-0.09-0.21-0.11-0.3-0.03
			C44.59,111.22,44.58,111.36,44.65,111.45z"/>
		<path class="st39" d="M72.68,125.51c0.17,0.22,0.48,0.25,0.69,0.07c0.21-0.18,0.24-0.5,0.06-0.72c-0.17-0.22-0.48-0.25-0.69-0.07
			C72.54,124.97,72.51,125.29,72.68,125.51z"/>
		<path class="st39" d="M71.51,128.02c0.22,0.28,0.61,0.32,0.88,0.1c0.27-0.23,0.31-0.64,0.08-0.92c-0.22-0.28-0.62-0.32-0.88-0.1
			C71.33,127.33,71.29,127.74,71.51,128.02z"/>
		<path class="st39" d="M73.67,127.46c0.11,0.14,0.2,0.25,0.2,0.25S73.78,127.6,73.67,127.46c-0.11-0.14-0.2-0.25-0.2-0.25
			S73.56,127.32,73.67,127.46z"/>
		<path class="st39" d="M75.89,128.89c0.1,0.13,0.27,0.14,0.4,0.04c0.12-0.1,0.14-0.28,0.04-0.41c-0.1-0.12-0.28-0.14-0.4-0.04
			C75.81,128.58,75.79,128.76,75.89,128.89z"/>
		<path class="st28" d="M24.12,87.86c1.88-4.75-6.93-9.95-6.41-3.77c0.07,0.87,0.98,1.67,0.93,2.47c-0.06,1.01-1.25,1.32-1.31,2.46
			c-0.05,0.98,0.91,1.3,1.07,2.07c0.26,1.2-0.18,1.51-0.74,2.59c-0.23,0.43-1.06,1.2-0.98,1.78c0.18,1.42,0.76,0.42,1.93,0.87
			c1.98,0.76,2.21,1.74,3.44-0.69c0.71-1.4,2.81-6.54,2.39-7.99c-0.06,0.03-0.11,0.05-0.17,0.08L24.12,87.86z"/>
		<path class="st29" d="M17.58,82.85c-1.04,0.55,0.16,1.5,0,2.52c-0.23,1.35-1.18,1.64-0.95,3.15c0.21,1.41,1.12,1.81,0.92,3.37
			c-0.11,0.87-1.08,2-0.99,2.85c0.18,1.78,3.7,2.57,4.91,1.87c1.13-0.65,2.2-4.9,2.81-6.23c-1.16-0.22-2.67,6.01-3.56,2.79
			c-0.16,0.26-0.44,0.45-0.57,0.74c-1.08-1.01-0.06-1.9-0.34-2.99c-0.21-0.83-1.48-1.62-1.31-2.32c0.15-0.64,4.42-2.57,0.7-3.34
			c0.27-0.99-0.21-2.04-1.06-2.35L17.58,82.85z"/>
		<path class="st35" d="M29.78,88.48c0.49,0.16,0.15,0.88,0.71,1.56c0.64,0.78,1.59,1.13,2.22,1.88c-0.76,0.13-1.62-0.45-2.36,0.18
			c0.28,0.32,0.28,0.77,0.53,1.1c-0.68,0.43-0.86,1.12-0.64,1.84c-0.91-0.58-1.87-1.86-1.26-2.96c-0.15-0.04-0.46-0.12-0.61-0.18
			c0.39-0.28,0.5-0.8,0.88-1.11c-0.87-0.83-2.34-1.43-1.61-3c0.74-1.59,1.68-0.45,2.43,0.72L29.78,88.48z"/>
		<path class="st34" d="M62.53,105.38c0.63,0.81,1.73,1.36,2.73,1.48c0.85,0.1,2.12-0.66,2.72-0.5c3,0.82-1.08,1.84-1.69,2.09
			c0.61,0.4,1.22,0.88,1.64,1.51c-0.52,0.55-1.28,0.51-1.96,0.36c0.82,1.31,2.4,2.03,2.47,3.76c-1.16-0.62-1.81-1.99-3.03-2.69
			c-1.09-0.62-2.45-0.43-3.26-1.32c0.54-0.63,1.37-0.89,2.03-1.26c-1.1-0.87-4.73-2.03-2.42-4.37c0.29,0.31,0.71,0.7,0.9,1.09
			L62.53,105.38z"/>
		<path class="st40" d="M92.63,146.76c-2.17-1.41-5.5-2.32-7.93-3.51c-2.58-1.26-5.34-1.97-8.07-2.74
			c-3.37-0.96-7.16-1.67-9.77-4.12c-0.48-0.46-1.03-1.16-1.58-1.64c-0.77-0.67-0.59-0.56-1.61-0.99c-0.61-0.26-1.41-0.21-1.94-0.65
			c-0.72-0.59-0.69-1.62-1.23-2.14c-1.29-1.24-3.58-1.02-5.34-1.92c-1.97-1.01-1.92-2.64-3.41-3.94c-0.93-0.8-9.37-2.86-4.1-4.85
			c3.51-1.33,5.37,1.89,7.16,4.15c0.85,1.08,1.67,2.51,2.68,3.41c1.12,1,2.74,1.06,3.62,1.86c0.45,0.41,0.47,1.59,1.19,1.85
			c0.86,0.32,1.17-0.63,1.77-0.64c1.03-0.01,0.87,0.37,1.8,0.64c0.74,0.21,0.68,1.05,1.56,0.07c0.91,0.9,1.27,2.08,2.27,2.91
			c0.99,0.82,2.37,1.36,3.54,1.87c2.46,1.06,4.96,1.91,7.38,2.95c3.61,1.56,9.17,4.31,11.79,7.52c-0.17,0.03-0.34,0.01-0.5-0.03
			L92.63,146.76z"/>
	</g>
</g>
</svg>
